%TF.GenerationSoftware,KiCad,Pcbnew,9.0.4*%
%TF.CreationDate,2026-01-03T14:17:46-05:00*%
%TF.ProjectId,watering_pcb,77617465-7269-46e6-975f-7063622e6b69,rev?*%
%TF.SameCoordinates,Original*%
%TF.FileFunction,Copper,L2,Bot*%
%TF.FilePolarity,Positive*%
%FSLAX46Y46*%
G04 Gerber Fmt 4.6, Leading zero omitted, Abs format (unit mm)*
G04 Created by KiCad (PCBNEW 9.0.4) date 2026-01-03 14:17:46*
%MOMM*%
%LPD*%
G01*
G04 APERTURE LIST*
G04 Aperture macros list*
%AMRoundRect*
0 Rectangle with rounded corners*
0 $1 Rounding radius*
0 $2 $3 $4 $5 $6 $7 $8 $9 X,Y pos of 4 corners*
0 Add a 4 corners polygon primitive as box body*
4,1,4,$2,$3,$4,$5,$6,$7,$8,$9,$2,$3,0*
0 Add four circle primitives for the rounded corners*
1,1,$1+$1,$2,$3*
1,1,$1+$1,$4,$5*
1,1,$1+$1,$6,$7*
1,1,$1+$1,$8,$9*
0 Add four rect primitives between the rounded corners*
20,1,$1+$1,$2,$3,$4,$5,0*
20,1,$1+$1,$4,$5,$6,$7,0*
20,1,$1+$1,$6,$7,$8,$9,0*
20,1,$1+$1,$8,$9,$2,$3,0*%
G04 Aperture macros list end*
%TA.AperFunction,ComponentPad*%
%ADD10C,1.700000*%
%TD*%
%TA.AperFunction,ComponentPad*%
%ADD11R,1.700000X1.700000*%
%TD*%
%TA.AperFunction,ComponentPad*%
%ADD12O,2.000000X1.905000*%
%TD*%
%TA.AperFunction,ComponentPad*%
%ADD13R,2.000000X1.905000*%
%TD*%
%TA.AperFunction,ComponentPad*%
%ADD14C,1.600000*%
%TD*%
%TA.AperFunction,ComponentPad*%
%ADD15R,1.750000X2.250000*%
%TD*%
%TA.AperFunction,ComponentPad*%
%ADD16O,1.750000X2.250000*%
%TD*%
%TA.AperFunction,ComponentPad*%
%ADD17R,3.000000X3.000000*%
%TD*%
%TA.AperFunction,ComponentPad*%
%ADD18C,3.000000*%
%TD*%
%TA.AperFunction,ComponentPad*%
%ADD19RoundRect,0.250000X-1.050000X1.050000X-1.050000X-1.050000X1.050000X-1.050000X1.050000X1.050000X0*%
%TD*%
%TA.AperFunction,ComponentPad*%
%ADD20C,2.600000*%
%TD*%
%TA.AperFunction,ComponentPad*%
%ADD21RoundRect,0.249999X0.850001X0.850001X-0.850001X0.850001X-0.850001X-0.850001X0.850001X-0.850001X0*%
%TD*%
%TA.AperFunction,ComponentPad*%
%ADD22C,2.200000*%
%TD*%
%TA.AperFunction,ViaPad*%
%ADD23C,0.600000*%
%TD*%
G04 APERTURE END LIST*
D10*
%TO.P,JOYSTICK1,5,Pin_5*%
%TO.N,Net-(JOYSTICK1-Pin_5)*%
X195000000Y-33380000D03*
%TO.P,JOYSTICK1,4,Pin_4*%
%TO.N,Net-(JOYSTICK1-Pin_4)*%
X195000000Y-35920000D03*
%TO.P,JOYSTICK1,3,Pin_3*%
%TO.N,Net-(JOYSTICK1-Pin_3)*%
X195000000Y-38460000D03*
%TO.P,JOYSTICK1,2,Pin_2*%
%TO.N,Net-(JOYSTICK1-Pin_2)*%
X195000000Y-41000000D03*
D11*
%TO.P,JOYSTICK1,1,Pin_1*%
%TO.N,GND*%
X195000000Y-43540000D03*
%TD*%
D12*
%TO.P,Q3,3,E*%
%TO.N,GND*%
X119500000Y-60580000D03*
%TO.P,Q3,2,C*%
%TO.N,Net-(D4-K)*%
X119500000Y-58040000D03*
D13*
%TO.P,Q3,1,B*%
%TO.N,Net-(Q3-B)*%
X119500000Y-55500000D03*
%TD*%
D14*
%TO.P,R6,2*%
%TO.N,Net-(NANO_LEFT1-Pin_11)*%
X145500000Y-80000000D03*
%TO.P,R6,1*%
%TO.N,Net-(Q6-B)*%
X137880000Y-80000000D03*
%TD*%
%TO.P,R5,2*%
%TO.N,Net-(NANO_LEFT1-Pin_10)*%
X145500000Y-70000000D03*
%TO.P,R5,1*%
%TO.N,Net-(Q5-B)*%
X137880000Y-70000000D03*
%TD*%
D12*
%TO.P,Q1,3,E*%
%TO.N,GND*%
X119500000Y-33580000D03*
%TO.P,Q1,2,C*%
%TO.N,Net-(D6-K)*%
X119500000Y-31040000D03*
D13*
%TO.P,Q1,1,B*%
%TO.N,Net-(Q1-B)*%
X119500000Y-28500000D03*
%TD*%
D12*
%TO.P,Q2,3,E*%
%TO.N,GND*%
X119500000Y-47080000D03*
%TO.P,Q2,2,C*%
%TO.N,Net-(D5-K)*%
X119500000Y-44540000D03*
D13*
%TO.P,Q2,1,B*%
%TO.N,Net-(Q2-B)*%
X119500000Y-42000000D03*
%TD*%
D11*
%TO.P,SOLENOID_CONNECTOR1,1,Pin_1*%
%TO.N,Net-(D5-K)*%
X68000000Y-74380000D03*
D10*
%TO.P,SOLENOID_CONNECTOR1,2,Pin_2*%
%TO.N,Net-(D1-A)*%
X68000000Y-76920000D03*
%TO.P,SOLENOID_CONNECTOR1,3,Pin_3*%
%TO.N,Net-(D4-K)*%
X68000000Y-79460000D03*
%TO.P,SOLENOID_CONNECTOR1,4,Pin_4*%
%TO.N,Net-(D1-A)*%
X68000000Y-82000000D03*
%TO.P,SOLENOID_CONNECTOR1,5,Pin_5*%
%TO.N,Net-(D3-K)*%
X68000000Y-84540000D03*
%TO.P,SOLENOID_CONNECTOR1,6,Pin_6*%
%TO.N,Net-(D1-A)*%
X68000000Y-87080000D03*
%TO.P,SOLENOID_CONNECTOR1,7,Pin_7*%
%TO.N,Net-(D2-K)*%
X68000000Y-89620000D03*
%TO.P,SOLENOID_CONNECTOR1,8,Pin_8*%
%TO.N,Net-(D1-A)*%
X68000000Y-92160000D03*
%TO.P,SOLENOID_CONNECTOR1,9,Pin_9*%
%TO.N,Net-(D1-K)*%
X68000000Y-94700000D03*
%TO.P,SOLENOID_CONNECTOR1,10,Pin_10*%
%TO.N,Net-(D1-A)*%
X68000000Y-97240000D03*
%TD*%
D14*
%TO.P,R8,1*%
%TO.N,Net-(JOYSTICK1-Pin_2)*%
X207000000Y-47190000D03*
%TO.P,R8,2*%
%TO.N,Net-(LCD_DISPLAY1-Pin_3)*%
X207000000Y-54810000D03*
%TD*%
%TO.P,R7,1*%
%TO.N,Net-(JOYSTICK1-Pin_2)*%
X172950000Y-139810000D03*
%TO.P,R7,2*%
%TO.N,Net-(LCD_DISPLAY1-Pin_11)*%
X172950000Y-132190000D03*
%TD*%
%TO.P,R4,1*%
%TO.N,Net-(Q4-B)*%
X137880000Y-59500000D03*
%TO.P,R4,2*%
%TO.N,Net-(NANO_LEFT1-Pin_9)*%
X145500000Y-59500000D03*
%TD*%
%TO.P,R3,1*%
%TO.N,Net-(Q3-B)*%
X137880000Y-50000000D03*
%TO.P,R3,2*%
%TO.N,Net-(NANO_LEFT1-Pin_8)*%
X145500000Y-50000000D03*
%TD*%
%TO.P,R2,1*%
%TO.N,Net-(Q2-B)*%
X137880000Y-40500000D03*
%TO.P,R2,2*%
%TO.N,Net-(NANO_LEFT1-Pin_7)*%
X145500000Y-40500000D03*
%TD*%
%TO.P,R1,1*%
%TO.N,Net-(Q1-B)*%
X138190000Y-30500000D03*
%TO.P,R1,2*%
%TO.N,Net-(NANO_LEFT1-Pin_6)*%
X145810000Y-30500000D03*
%TD*%
D13*
%TO.P,Q6,1,B*%
%TO.N,Net-(Q6-B)*%
X119500000Y-97500000D03*
D12*
%TO.P,Q6,2,C*%
%TO.N,Net-(D1-K)*%
X119500000Y-100040000D03*
%TO.P,Q6,3,E*%
%TO.N,GND*%
X119500000Y-102580000D03*
%TD*%
D13*
%TO.P,Q5,1,B*%
%TO.N,Net-(Q5-B)*%
X119500000Y-83000000D03*
D12*
%TO.P,Q5,2,C*%
%TO.N,Net-(D2-K)*%
X119500000Y-85540000D03*
%TO.P,Q5,3,E*%
%TO.N,GND*%
X119500000Y-88080000D03*
%TD*%
D13*
%TO.P,Q4,1,B*%
%TO.N,Net-(Q4-B)*%
X119500000Y-69500000D03*
D12*
%TO.P,Q4,2,C*%
%TO.N,Net-(D3-K)*%
X119500000Y-72040000D03*
%TO.P,Q4,3,E*%
%TO.N,GND*%
X119500000Y-74580000D03*
%TD*%
D15*
%TO.P,PS2,1,-Vin*%
%TO.N,Net-(PS1--Vo)*%
X158892500Y-153342500D03*
D16*
%TO.P,PS2,2,+Vin*%
%TO.N,Net-(D1-A)*%
X161432500Y-153342500D03*
%TO.P,PS2,3,-Vout*%
%TO.N,Net-(NANO_LEFT1-Pin_14)*%
X163972500Y-153342500D03*
%TO.P,PS2,4,+Vout*%
%TO.N,Net-(NANO_LEFT1-Pin_15)*%
X166512500Y-153342500D03*
%TD*%
D17*
%TO.P,PS1,1,AC/L*%
%TO.N,Net-(J2-Pin_1)*%
X90200000Y-117717500D03*
D18*
%TO.P,PS1,2,AC/N*%
%TO.N,Net-(J2-Pin_2)*%
X90200000Y-138517500D03*
%TO.P,PS1,3,-Vo*%
%TO.N,Net-(PS1--Vo)*%
X135200000Y-138517500D03*
%TO.P,PS1,4,+Vo*%
%TO.N,Net-(D1-A)*%
X135200000Y-130517500D03*
%TD*%
D11*
%TO.P,NANO_RIGHT1,1,Pin_1*%
%TO.N,Net-(JOYSTICK1-Pin_3)*%
X175500000Y-67680000D03*
D10*
%TO.P,NANO_RIGHT1,2,Pin_2*%
%TO.N,Net-(LCD_DISPLAY1-Pin_10)*%
X175500000Y-70220000D03*
%TO.P,NANO_RIGHT1,3,Pin_3*%
%TO.N,Net-(LCD_DISPLAY1-Pin_9)*%
X175500000Y-72760000D03*
%TO.P,NANO_RIGHT1,4,Pin_4*%
%TO.N,Net-(LCD_DISPLAY1-Pin_8)*%
X175500000Y-75300000D03*
%TO.P,NANO_RIGHT1,5,Pin_5*%
%TO.N,Net-(LCD_DISPLAY1-Pin_7)*%
X175500000Y-77840000D03*
%TO.P,NANO_RIGHT1,6,Pin_6*%
%TO.N,Net-(LCD_DISPLAY1-Pin_6)*%
X175500000Y-80380000D03*
%TO.P,NANO_RIGHT1,7,Pin_7*%
%TO.N,Net-(LCD_DISPLAY1-Pin_4)*%
X175500000Y-82920000D03*
%TO.P,NANO_RIGHT1,8,Pin_8*%
%TO.N,unconnected-(NANO_RIGHT1-Pin_8-Pad8)*%
X175500000Y-85460000D03*
%TO.P,NANO_RIGHT1,9,Pin_9*%
%TO.N,unconnected-(NANO_RIGHT1-Pin_9-Pad9)*%
X175500000Y-88000000D03*
%TO.P,NANO_RIGHT1,10,Pin_10*%
%TO.N,unconnected-(NANO_RIGHT1-Pin_10-Pad10)*%
X175500000Y-90540000D03*
%TO.P,NANO_RIGHT1,11,Pin_11*%
%TO.N,unconnected-(NANO_RIGHT1-Pin_11-Pad11)*%
X175500000Y-93080000D03*
%TO.P,NANO_RIGHT1,12,Pin_12*%
%TO.N,unconnected-(NANO_RIGHT1-Pin_12-Pad12)*%
X175500000Y-95620000D03*
%TO.P,NANO_RIGHT1,13,Pin_13*%
%TO.N,unconnected-(NANO_RIGHT1-Pin_13-Pad13)*%
X175500000Y-98160000D03*
%TO.P,NANO_RIGHT1,14,Pin_14*%
%TO.N,unconnected-(NANO_RIGHT1-Pin_14-Pad14)*%
X175500000Y-100700000D03*
%TO.P,NANO_RIGHT1,15,Pin_15*%
%TO.N,unconnected-(NANO_RIGHT1-Pin_15-Pad15)*%
X175500000Y-103240000D03*
%TD*%
D11*
%TO.P,NANO_LEFT1,1,Pin_1*%
%TO.N,unconnected-(NANO_LEFT1-Pin_1-Pad1)*%
X160000000Y-67680000D03*
D10*
%TO.P,NANO_LEFT1,2,Pin_2*%
%TO.N,unconnected-(NANO_LEFT1-Pin_2-Pad2)*%
X160000000Y-70220000D03*
%TO.P,NANO_LEFT1,3,Pin_3*%
%TO.N,unconnected-(NANO_LEFT1-Pin_3-Pad3)*%
X160000000Y-72760000D03*
%TO.P,NANO_LEFT1,4,Pin_4*%
%TO.N,Net-(JOYSTICK1-Pin_4)*%
X160000000Y-75300000D03*
%TO.P,NANO_LEFT1,5,Pin_5*%
%TO.N,Net-(JOYSTICK1-Pin_5)*%
X160000000Y-77840000D03*
%TO.P,NANO_LEFT1,6,Pin_6*%
%TO.N,Net-(NANO_LEFT1-Pin_6)*%
X160000000Y-80380000D03*
%TO.P,NANO_LEFT1,7,Pin_7*%
%TO.N,Net-(NANO_LEFT1-Pin_7)*%
X160000000Y-82920000D03*
%TO.P,NANO_LEFT1,8,Pin_8*%
%TO.N,Net-(NANO_LEFT1-Pin_8)*%
X160000000Y-85460000D03*
%TO.P,NANO_LEFT1,9,Pin_9*%
%TO.N,Net-(NANO_LEFT1-Pin_9)*%
X160000000Y-88000000D03*
%TO.P,NANO_LEFT1,10,Pin_10*%
%TO.N,Net-(NANO_LEFT1-Pin_10)*%
X160000000Y-90540000D03*
%TO.P,NANO_LEFT1,11,Pin_11*%
%TO.N,Net-(NANO_LEFT1-Pin_11)*%
X160000000Y-93080000D03*
%TO.P,NANO_LEFT1,12,Pin_12*%
%TO.N,Net-(JOYSTICK1-Pin_2)*%
X160000000Y-95620000D03*
%TO.P,NANO_LEFT1,13,Pin_13*%
%TO.N,unconnected-(NANO_LEFT1-Pin_13-Pad13)*%
X160000000Y-98160000D03*
%TO.P,NANO_LEFT1,14,Pin_14*%
%TO.N,Net-(NANO_LEFT1-Pin_14)*%
X160000000Y-100700000D03*
%TO.P,NANO_LEFT1,15,Pin_15*%
%TO.N,Net-(NANO_LEFT1-Pin_15)*%
X160000000Y-103240000D03*
%TD*%
D11*
%TO.P,LCD_DISPLAY1,1,Pin_1*%
%TO.N,GND*%
X201000000Y-94900000D03*
D10*
%TO.P,LCD_DISPLAY1,2,Pin_2*%
%TO.N,Net-(JOYSTICK1-Pin_2)*%
X201000000Y-92360000D03*
%TO.P,LCD_DISPLAY1,3,Pin_3*%
%TO.N,Net-(LCD_DISPLAY1-Pin_3)*%
X201000000Y-89820000D03*
%TO.P,LCD_DISPLAY1,4,Pin_4*%
%TO.N,Net-(LCD_DISPLAY1-Pin_4)*%
X201000000Y-87280000D03*
%TO.P,LCD_DISPLAY1,5,Pin_5*%
%TO.N,GND*%
X201000000Y-84740000D03*
%TO.P,LCD_DISPLAY1,6,Pin_6*%
%TO.N,Net-(LCD_DISPLAY1-Pin_6)*%
X201000000Y-82200000D03*
%TO.P,LCD_DISPLAY1,7,Pin_7*%
%TO.N,Net-(LCD_DISPLAY1-Pin_7)*%
X201000000Y-79660000D03*
%TO.P,LCD_DISPLAY1,8,Pin_8*%
%TO.N,Net-(LCD_DISPLAY1-Pin_8)*%
X201000000Y-77120000D03*
%TO.P,LCD_DISPLAY1,9,Pin_9*%
%TO.N,Net-(LCD_DISPLAY1-Pin_9)*%
X201000000Y-74580000D03*
%TO.P,LCD_DISPLAY1,10,Pin_10*%
%TO.N,Net-(LCD_DISPLAY1-Pin_10)*%
X201000000Y-72040000D03*
%TO.P,LCD_DISPLAY1,11,Pin_11*%
%TO.N,Net-(LCD_DISPLAY1-Pin_11)*%
X201000000Y-69500000D03*
%TO.P,LCD_DISPLAY1,12,Pin_12*%
%TO.N,GND*%
X201000000Y-66960000D03*
%TD*%
D19*
%TO.P,J2,1,Pin_1*%
%TO.N,Net-(J2-Pin_1)*%
X68832500Y-125455000D03*
D20*
%TO.P,J2,2,Pin_2*%
%TO.N,Net-(J2-Pin_2)*%
X68832500Y-130535000D03*
%TD*%
D19*
%TO.P,J1,1,Pin_1*%
%TO.N,Net-(D6-K)*%
X68332500Y-30955000D03*
D20*
%TO.P,J1,2,Pin_2*%
%TO.N,Net-(D1-A)*%
X68332500Y-36035000D03*
%TD*%
D21*
%TO.P,D6,1,K*%
%TO.N,Net-(D6-K)*%
X101160000Y-30000000D03*
D22*
%TO.P,D6,2,A*%
%TO.N,Net-(D1-A)*%
X91000000Y-30000000D03*
%TD*%
D21*
%TO.P,D5,1,K*%
%TO.N,Net-(D5-K)*%
X101160000Y-44000000D03*
D22*
%TO.P,D5,2,A*%
%TO.N,Net-(D1-A)*%
X91000000Y-44000000D03*
%TD*%
D21*
%TO.P,D4,1,K*%
%TO.N,Net-(D4-K)*%
X101160000Y-58000000D03*
D22*
%TO.P,D4,2,A*%
%TO.N,Net-(D1-A)*%
X91000000Y-58000000D03*
%TD*%
D21*
%TO.P,D3,1,K*%
%TO.N,Net-(D3-K)*%
X100160000Y-69500000D03*
D22*
%TO.P,D3,2,A*%
%TO.N,Net-(D1-A)*%
X90000000Y-69500000D03*
%TD*%
D21*
%TO.P,D2,1,K*%
%TO.N,Net-(D2-K)*%
X100740000Y-83500000D03*
D22*
%TO.P,D2,2,A*%
%TO.N,Net-(D1-A)*%
X90580000Y-83500000D03*
%TD*%
D21*
%TO.P,D1,1,K*%
%TO.N,Net-(D1-K)*%
X100740000Y-99000000D03*
D22*
%TO.P,D1,2,A*%
%TO.N,Net-(D1-A)*%
X90580000Y-99000000D03*
%TD*%
D23*
%TO.N,GND*%
X127500000Y-103000000D03*
X126500000Y-88000000D03*
X126500000Y-75500000D03*
X127500000Y-62000000D03*
X127000000Y-47500000D03*
X127500000Y-34500000D03*
X187500000Y-61500000D03*
%TD*%
%TA.AperFunction,Conductor*%
%TO.N,GND*%
G36*
X210442539Y-16520185D02*
G01*
X210488294Y-16572989D01*
X210499500Y-16624500D01*
X210499500Y-162375500D01*
X210479815Y-162442539D01*
X210427011Y-162488294D01*
X210375500Y-162499500D01*
X54624500Y-162499500D01*
X54557461Y-162479815D01*
X54511706Y-162427011D01*
X54500500Y-162375500D01*
X54500500Y-152169635D01*
X157517000Y-152169635D01*
X157517000Y-154515370D01*
X157517001Y-154515376D01*
X157523408Y-154574983D01*
X157573702Y-154709828D01*
X157573706Y-154709835D01*
X157659952Y-154825044D01*
X157659955Y-154825047D01*
X157775164Y-154911293D01*
X157775171Y-154911297D01*
X157910017Y-154961591D01*
X157910016Y-154961591D01*
X157916944Y-154962335D01*
X157969627Y-154968000D01*
X159815372Y-154967999D01*
X159874983Y-154961591D01*
X160009831Y-154911296D01*
X160125046Y-154825046D01*
X160211296Y-154709831D01*
X160250706Y-154604166D01*
X160292577Y-154548234D01*
X160358041Y-154523816D01*
X160426314Y-154538667D01*
X160454569Y-154559819D01*
X160536422Y-154641672D01*
X160711581Y-154768933D01*
X160806197Y-154817142D01*
X160904490Y-154867226D01*
X160904493Y-154867227D01*
X161007447Y-154900678D01*
X161110403Y-154934130D01*
X161324246Y-154968000D01*
X161324247Y-154968000D01*
X161540753Y-154968000D01*
X161540754Y-154968000D01*
X161754597Y-154934130D01*
X161960509Y-154867226D01*
X162153419Y-154768933D01*
X162328578Y-154641672D01*
X162481672Y-154488578D01*
X162602183Y-154322708D01*
X162657512Y-154280045D01*
X162727125Y-154274066D01*
X162788920Y-154306672D01*
X162802813Y-154322705D01*
X162923328Y-154488578D01*
X163076422Y-154641672D01*
X163251581Y-154768933D01*
X163346197Y-154817142D01*
X163444490Y-154867226D01*
X163444493Y-154867227D01*
X163547447Y-154900678D01*
X163650403Y-154934130D01*
X163864246Y-154968000D01*
X163864247Y-154968000D01*
X164080753Y-154968000D01*
X164080754Y-154968000D01*
X164294597Y-154934130D01*
X164500509Y-154867226D01*
X164693419Y-154768933D01*
X164868578Y-154641672D01*
X165021672Y-154488578D01*
X165142183Y-154322708D01*
X165197512Y-154280045D01*
X165267125Y-154274066D01*
X165328920Y-154306672D01*
X165342813Y-154322705D01*
X165463328Y-154488578D01*
X165616422Y-154641672D01*
X165791581Y-154768933D01*
X165886197Y-154817142D01*
X165984490Y-154867226D01*
X165984493Y-154867227D01*
X166087447Y-154900678D01*
X166190403Y-154934130D01*
X166404246Y-154968000D01*
X166404247Y-154968000D01*
X166620753Y-154968000D01*
X166620754Y-154968000D01*
X166834597Y-154934130D01*
X167040509Y-154867226D01*
X167233419Y-154768933D01*
X167408578Y-154641672D01*
X167561672Y-154488578D01*
X167688933Y-154313419D01*
X167787226Y-154120509D01*
X167854130Y-153914597D01*
X167888000Y-153700754D01*
X167888000Y-152984246D01*
X167854130Y-152770403D01*
X167787226Y-152564491D01*
X167787226Y-152564490D01*
X167688932Y-152371580D01*
X167677000Y-152355157D01*
X167561672Y-152196422D01*
X167408578Y-152043328D01*
X167233419Y-151916067D01*
X167040509Y-151817773D01*
X167040506Y-151817772D01*
X166834598Y-151750870D01*
X166727675Y-151733935D01*
X166620754Y-151717000D01*
X166404246Y-151717000D01*
X166363782Y-151723409D01*
X166190401Y-151750870D01*
X165984493Y-151817772D01*
X165984490Y-151817773D01*
X165791580Y-151916067D01*
X165691645Y-151988674D01*
X165616422Y-152043328D01*
X165616420Y-152043330D01*
X165616419Y-152043330D01*
X165463330Y-152196419D01*
X165463330Y-152196420D01*
X165463328Y-152196422D01*
X165355030Y-152345479D01*
X165342818Y-152362289D01*
X165287488Y-152404954D01*
X165217874Y-152410933D01*
X165156079Y-152378327D01*
X165142182Y-152362289D01*
X165137000Y-152355157D01*
X165021672Y-152196422D01*
X164868578Y-152043328D01*
X164693419Y-151916067D01*
X164500509Y-151817773D01*
X164500506Y-151817772D01*
X164294598Y-151750870D01*
X164187675Y-151733935D01*
X164080754Y-151717000D01*
X163864246Y-151717000D01*
X163823782Y-151723409D01*
X163650401Y-151750870D01*
X163444493Y-151817772D01*
X163444490Y-151817773D01*
X163251580Y-151916067D01*
X163151645Y-151988674D01*
X163076422Y-152043328D01*
X163076420Y-152043330D01*
X163076419Y-152043330D01*
X162923330Y-152196419D01*
X162923330Y-152196420D01*
X162923328Y-152196422D01*
X162815030Y-152345479D01*
X162802818Y-152362289D01*
X162747488Y-152404954D01*
X162677874Y-152410933D01*
X162616079Y-152378327D01*
X162602182Y-152362289D01*
X162597000Y-152355157D01*
X162481672Y-152196422D01*
X162328578Y-152043328D01*
X162153419Y-151916067D01*
X161960509Y-151817773D01*
X161960506Y-151817772D01*
X161754598Y-151750870D01*
X161647675Y-151733935D01*
X161540754Y-151717000D01*
X161324246Y-151717000D01*
X161283782Y-151723409D01*
X161110401Y-151750870D01*
X160904493Y-151817772D01*
X160904490Y-151817773D01*
X160711580Y-151916067D01*
X160536423Y-152043327D01*
X160454569Y-152125181D01*
X160393245Y-152158665D01*
X160323554Y-152153681D01*
X160267620Y-152111809D01*
X160250706Y-152080832D01*
X160211297Y-151975171D01*
X160211293Y-151975164D01*
X160125047Y-151859955D01*
X160125044Y-151859952D01*
X160009835Y-151773706D01*
X160009828Y-151773702D01*
X159874982Y-151723408D01*
X159874983Y-151723408D01*
X159815383Y-151717001D01*
X159815381Y-151717000D01*
X159815373Y-151717000D01*
X159815364Y-151717000D01*
X157969629Y-151717000D01*
X157969623Y-151717001D01*
X157910016Y-151723408D01*
X157775171Y-151773702D01*
X157775164Y-151773706D01*
X157659955Y-151859952D01*
X157659952Y-151859955D01*
X157573706Y-151975164D01*
X157573702Y-151975171D01*
X157523408Y-152110017D01*
X157517001Y-152169616D01*
X157517000Y-152169635D01*
X54500500Y-152169635D01*
X54500500Y-138386372D01*
X88199500Y-138386372D01*
X88199500Y-138648627D01*
X88221804Y-138818034D01*
X88233730Y-138908616D01*
X88248245Y-138962786D01*
X88301602Y-139161918D01*
X88301605Y-139161928D01*
X88401953Y-139404190D01*
X88401958Y-139404200D01*
X88533075Y-139631303D01*
X88692718Y-139839351D01*
X88692726Y-139839360D01*
X88878140Y-140024774D01*
X88878148Y-140024781D01*
X89086196Y-140184424D01*
X89313299Y-140315541D01*
X89313309Y-140315546D01*
X89555571Y-140415894D01*
X89555581Y-140415898D01*
X89808884Y-140483770D01*
X90068880Y-140518000D01*
X90068887Y-140518000D01*
X90331113Y-140518000D01*
X90331120Y-140518000D01*
X90591116Y-140483770D01*
X90844419Y-140415898D01*
X91086697Y-140315543D01*
X91313803Y-140184424D01*
X91521851Y-140024782D01*
X91521855Y-140024777D01*
X91521860Y-140024774D01*
X91707274Y-139839360D01*
X91707277Y-139839355D01*
X91707282Y-139839351D01*
X91866924Y-139631303D01*
X91998043Y-139404197D01*
X92098398Y-139161919D01*
X92166270Y-138908616D01*
X92200500Y-138648620D01*
X92200500Y-138386380D01*
X92200499Y-138386372D01*
X133199500Y-138386372D01*
X133199500Y-138648627D01*
X133221804Y-138818034D01*
X133233730Y-138908616D01*
X133248245Y-138962786D01*
X133301602Y-139161918D01*
X133301605Y-139161928D01*
X133401953Y-139404190D01*
X133401958Y-139404200D01*
X133533075Y-139631303D01*
X133692718Y-139839351D01*
X133692726Y-139839360D01*
X133878140Y-140024774D01*
X133878148Y-140024781D01*
X134086196Y-140184424D01*
X134313299Y-140315541D01*
X134313309Y-140315546D01*
X134555571Y-140415894D01*
X134555581Y-140415898D01*
X134808884Y-140483770D01*
X135068880Y-140518000D01*
X135068887Y-140518000D01*
X135331113Y-140518000D01*
X135331120Y-140518000D01*
X135591116Y-140483770D01*
X135844419Y-140415898D01*
X136086697Y-140315543D01*
X136313803Y-140184424D01*
X136521851Y-140024782D01*
X136521855Y-140024777D01*
X136521860Y-140024774D01*
X136707274Y-139839360D01*
X136707277Y-139839355D01*
X136707282Y-139839351D01*
X136808342Y-139707648D01*
X171649500Y-139707648D01*
X171649500Y-139912351D01*
X171681522Y-140114534D01*
X171744781Y-140309223D01*
X171799134Y-140415894D01*
X171833718Y-140483770D01*
X171837715Y-140491613D01*
X171958028Y-140657213D01*
X172102786Y-140801971D01*
X172257749Y-140914556D01*
X172268390Y-140922287D01*
X172384607Y-140981503D01*
X172450776Y-141015218D01*
X172450778Y-141015218D01*
X172450781Y-141015220D01*
X172555137Y-141049127D01*
X172645465Y-141078477D01*
X172746557Y-141094488D01*
X172847648Y-141110500D01*
X172847649Y-141110500D01*
X173052351Y-141110500D01*
X173052352Y-141110500D01*
X173254534Y-141078477D01*
X173449219Y-141015220D01*
X173631610Y-140922287D01*
X173724590Y-140854732D01*
X173797213Y-140801971D01*
X173797215Y-140801968D01*
X173797219Y-140801966D01*
X173941966Y-140657219D01*
X173941968Y-140657215D01*
X173941971Y-140657213D01*
X173994732Y-140584590D01*
X174062287Y-140491610D01*
X174155220Y-140309219D01*
X174218477Y-140114534D01*
X174250500Y-139912352D01*
X174250500Y-139707648D01*
X174218477Y-139505466D01*
X174155220Y-139310781D01*
X174155218Y-139310778D01*
X174155218Y-139310776D01*
X174079375Y-139161928D01*
X174062287Y-139128390D01*
X174054556Y-139117749D01*
X173941971Y-138962786D01*
X173797213Y-138818028D01*
X173631613Y-138697715D01*
X173631612Y-138697714D01*
X173631610Y-138697713D01*
X173574653Y-138668691D01*
X173449223Y-138604781D01*
X173254534Y-138541522D01*
X173079995Y-138513878D01*
X173052352Y-138509500D01*
X172847648Y-138509500D01*
X172823329Y-138513351D01*
X172645465Y-138541522D01*
X172450776Y-138604781D01*
X172268386Y-138697715D01*
X172102786Y-138818028D01*
X171958028Y-138962786D01*
X171837715Y-139128386D01*
X171744781Y-139310776D01*
X171681522Y-139505465D01*
X171649500Y-139707648D01*
X136808342Y-139707648D01*
X136866924Y-139631303D01*
X136998043Y-139404197D01*
X137098398Y-139161919D01*
X137166270Y-138908616D01*
X137200500Y-138648620D01*
X137200500Y-138386380D01*
X137166270Y-138126384D01*
X137098398Y-137873081D01*
X137098394Y-137873071D01*
X136998046Y-137630809D01*
X136998041Y-137630799D01*
X136866924Y-137403696D01*
X136707281Y-137195648D01*
X136707274Y-137195640D01*
X136521860Y-137010226D01*
X136521851Y-137010218D01*
X136313803Y-136850575D01*
X136086700Y-136719458D01*
X136086690Y-136719453D01*
X135844428Y-136619105D01*
X135844421Y-136619103D01*
X135844419Y-136619102D01*
X135591116Y-136551230D01*
X135533339Y-136543623D01*
X135331127Y-136517000D01*
X135331120Y-136517000D01*
X135068880Y-136517000D01*
X135068872Y-136517000D01*
X134837772Y-136547426D01*
X134808884Y-136551230D01*
X134555581Y-136619102D01*
X134555571Y-136619105D01*
X134313309Y-136719453D01*
X134313299Y-136719458D01*
X134086196Y-136850575D01*
X133878148Y-137010218D01*
X133692718Y-137195648D01*
X133533075Y-137403696D01*
X133401958Y-137630799D01*
X133401953Y-137630809D01*
X133301605Y-137873071D01*
X133301602Y-137873081D01*
X133233730Y-138126385D01*
X133199500Y-138386372D01*
X92200499Y-138386372D01*
X92166270Y-138126384D01*
X92098398Y-137873081D01*
X92098394Y-137873071D01*
X91998046Y-137630809D01*
X91998041Y-137630799D01*
X91866924Y-137403696D01*
X91707281Y-137195648D01*
X91707274Y-137195640D01*
X91521860Y-137010226D01*
X91521851Y-137010218D01*
X91313803Y-136850575D01*
X91086700Y-136719458D01*
X91086690Y-136719453D01*
X90844428Y-136619105D01*
X90844421Y-136619103D01*
X90844419Y-136619102D01*
X90591116Y-136551230D01*
X90533339Y-136543623D01*
X90331127Y-136517000D01*
X90331120Y-136517000D01*
X90068880Y-136517000D01*
X90068872Y-136517000D01*
X89837772Y-136547426D01*
X89808884Y-136551230D01*
X89555581Y-136619102D01*
X89555571Y-136619105D01*
X89313309Y-136719453D01*
X89313299Y-136719458D01*
X89086196Y-136850575D01*
X88878148Y-137010218D01*
X88692718Y-137195648D01*
X88533075Y-137403696D01*
X88401958Y-137630799D01*
X88401953Y-137630809D01*
X88301605Y-137873071D01*
X88301602Y-137873081D01*
X88233730Y-138126385D01*
X88199500Y-138386372D01*
X54500500Y-138386372D01*
X54500500Y-130416995D01*
X67032000Y-130416995D01*
X67032000Y-130653004D01*
X67032001Y-130653020D01*
X67062806Y-130887010D01*
X67123894Y-131114993D01*
X67214214Y-131333045D01*
X67214219Y-131333056D01*
X67255289Y-131404190D01*
X67332227Y-131537450D01*
X67332229Y-131537453D01*
X67332230Y-131537454D01*
X67475906Y-131724697D01*
X67475912Y-131724704D01*
X67642795Y-131891587D01*
X67642801Y-131891592D01*
X67830050Y-132035273D01*
X67961418Y-132111118D01*
X68034443Y-132153280D01*
X68034448Y-132153282D01*
X68034451Y-132153284D01*
X68252507Y-132243606D01*
X68480486Y-132304693D01*
X68714489Y-132335500D01*
X68714496Y-132335500D01*
X68950504Y-132335500D01*
X68950511Y-132335500D01*
X69184514Y-132304693D01*
X69412493Y-132243606D01*
X69630549Y-132153284D01*
X69834950Y-132035273D01*
X70022199Y-131891592D01*
X70189092Y-131724699D01*
X70332773Y-131537450D01*
X70450784Y-131333049D01*
X70541106Y-131114993D01*
X70602193Y-130887014D01*
X70633000Y-130653011D01*
X70633000Y-130416989D01*
X70628970Y-130386380D01*
X70628969Y-130386372D01*
X133199500Y-130386372D01*
X133199500Y-130648627D01*
X133226123Y-130850839D01*
X133233730Y-130908616D01*
X133301602Y-131161918D01*
X133301605Y-131161928D01*
X133401953Y-131404190D01*
X133401958Y-131404200D01*
X133533075Y-131631303D01*
X133692718Y-131839351D01*
X133692726Y-131839360D01*
X133878140Y-132024774D01*
X133878148Y-132024781D01*
X134086196Y-132184424D01*
X134313299Y-132315541D01*
X134313309Y-132315546D01*
X134555571Y-132415894D01*
X134555581Y-132415898D01*
X134808884Y-132483770D01*
X135068880Y-132518000D01*
X135068887Y-132518000D01*
X135331113Y-132518000D01*
X135331120Y-132518000D01*
X135591116Y-132483770D01*
X135844419Y-132415898D01*
X136038517Y-132335500D01*
X136086690Y-132315546D01*
X136086691Y-132315545D01*
X136086697Y-132315543D01*
X136313803Y-132184424D01*
X136439923Y-132087648D01*
X171649500Y-132087648D01*
X171649500Y-132292351D01*
X171681522Y-132494534D01*
X171744781Y-132689223D01*
X171837715Y-132871613D01*
X171958028Y-133037213D01*
X172102786Y-133181971D01*
X172257749Y-133294556D01*
X172268390Y-133302287D01*
X172384607Y-133361503D01*
X172450776Y-133395218D01*
X172450778Y-133395218D01*
X172450781Y-133395220D01*
X172555137Y-133429127D01*
X172645465Y-133458477D01*
X172746557Y-133474488D01*
X172847648Y-133490500D01*
X172847649Y-133490500D01*
X173052351Y-133490500D01*
X173052352Y-133490500D01*
X173254534Y-133458477D01*
X173449219Y-133395220D01*
X173631610Y-133302287D01*
X173724590Y-133234732D01*
X173797213Y-133181971D01*
X173797215Y-133181968D01*
X173797219Y-133181966D01*
X173941966Y-133037219D01*
X173941968Y-133037215D01*
X173941971Y-133037213D01*
X173994732Y-132964590D01*
X174062287Y-132871610D01*
X174155220Y-132689219D01*
X174218477Y-132494534D01*
X174250500Y-132292352D01*
X174250500Y-132087648D01*
X174218477Y-131885465D01*
X174166242Y-131724704D01*
X174155220Y-131690781D01*
X174155218Y-131690778D01*
X174155218Y-131690776D01*
X174121503Y-131624607D01*
X174062287Y-131508390D01*
X174054556Y-131497749D01*
X173941971Y-131342786D01*
X173797213Y-131198028D01*
X173631613Y-131077715D01*
X173631612Y-131077714D01*
X173631610Y-131077713D01*
X173574653Y-131048691D01*
X173449223Y-130984781D01*
X173254534Y-130921522D01*
X173079995Y-130893878D01*
X173052352Y-130889500D01*
X172847648Y-130889500D01*
X172823329Y-130893351D01*
X172645465Y-130921522D01*
X172450776Y-130984781D01*
X172268386Y-131077715D01*
X172102786Y-131198028D01*
X171958028Y-131342786D01*
X171837715Y-131508386D01*
X171744781Y-131690776D01*
X171681522Y-131885465D01*
X171649500Y-132087648D01*
X136439923Y-132087648D01*
X136521851Y-132024782D01*
X136521855Y-132024777D01*
X136521860Y-132024774D01*
X136707274Y-131839360D01*
X136707277Y-131839355D01*
X136707282Y-131839351D01*
X136866924Y-131631303D01*
X136998043Y-131404197D01*
X137098398Y-131161919D01*
X137166270Y-130908616D01*
X137200500Y-130648620D01*
X137200500Y-130386380D01*
X137166270Y-130126384D01*
X137098398Y-129873081D01*
X137098394Y-129873071D01*
X136998046Y-129630809D01*
X136998041Y-129630799D01*
X136866924Y-129403696D01*
X136707281Y-129195648D01*
X136707274Y-129195640D01*
X136521860Y-129010226D01*
X136521851Y-129010218D01*
X136313803Y-128850575D01*
X136086700Y-128719458D01*
X136086690Y-128719453D01*
X135844428Y-128619105D01*
X135844421Y-128619103D01*
X135844419Y-128619102D01*
X135591116Y-128551230D01*
X135533339Y-128543623D01*
X135331127Y-128517000D01*
X135331120Y-128517000D01*
X135068880Y-128517000D01*
X135068872Y-128517000D01*
X134837772Y-128547426D01*
X134808884Y-128551230D01*
X134555581Y-128619102D01*
X134555571Y-128619105D01*
X134313309Y-128719453D01*
X134313299Y-128719458D01*
X134086196Y-128850575D01*
X133878148Y-129010218D01*
X133692718Y-129195648D01*
X133533075Y-129403696D01*
X133401958Y-129630799D01*
X133401953Y-129630809D01*
X133301605Y-129873071D01*
X133301602Y-129873081D01*
X133233730Y-130126385D01*
X133199500Y-130386372D01*
X70628969Y-130386372D01*
X70602193Y-130182989D01*
X70602193Y-130182986D01*
X70541106Y-129955007D01*
X70450784Y-129736951D01*
X70450782Y-129736948D01*
X70450780Y-129736943D01*
X70389497Y-129630799D01*
X70332773Y-129532550D01*
X70189092Y-129345301D01*
X70189087Y-129345295D01*
X70022204Y-129178412D01*
X70022197Y-129178406D01*
X69834954Y-129034730D01*
X69834953Y-129034729D01*
X69834950Y-129034727D01*
X69753457Y-128987677D01*
X69630556Y-128916719D01*
X69630545Y-128916714D01*
X69412493Y-128826394D01*
X69184510Y-128765306D01*
X68950520Y-128734501D01*
X68950517Y-128734500D01*
X68950511Y-128734500D01*
X68714489Y-128734500D01*
X68714483Y-128734500D01*
X68714479Y-128734501D01*
X68480489Y-128765306D01*
X68252506Y-128826394D01*
X68034454Y-128916714D01*
X68034443Y-128916719D01*
X67830045Y-129034730D01*
X67642802Y-129178406D01*
X67642795Y-129178412D01*
X67475912Y-129345295D01*
X67475906Y-129345302D01*
X67332230Y-129532545D01*
X67214219Y-129736943D01*
X67214214Y-129736954D01*
X67123894Y-129955006D01*
X67062806Y-130182989D01*
X67032001Y-130416979D01*
X67032000Y-130416995D01*
X54500500Y-130416995D01*
X54500500Y-124354983D01*
X67032000Y-124354983D01*
X67032000Y-126555001D01*
X67032001Y-126555018D01*
X67042500Y-126657796D01*
X67042501Y-126657799D01*
X67097685Y-126824331D01*
X67097686Y-126824334D01*
X67189788Y-126973656D01*
X67313844Y-127097712D01*
X67463166Y-127189814D01*
X67629703Y-127244999D01*
X67732491Y-127255500D01*
X69932508Y-127255499D01*
X70035297Y-127244999D01*
X70201834Y-127189814D01*
X70351156Y-127097712D01*
X70475212Y-126973656D01*
X70567314Y-126824334D01*
X70622499Y-126657797D01*
X70633000Y-126555009D01*
X70632999Y-124354992D01*
X70622499Y-124252203D01*
X70567314Y-124085666D01*
X70475212Y-123936344D01*
X70351156Y-123812288D01*
X70201834Y-123720186D01*
X70035297Y-123665001D01*
X70035295Y-123665000D01*
X69932510Y-123654500D01*
X67732498Y-123654500D01*
X67732481Y-123654501D01*
X67629703Y-123665000D01*
X67629700Y-123665001D01*
X67463168Y-123720185D01*
X67463163Y-123720187D01*
X67313842Y-123812289D01*
X67189789Y-123936342D01*
X67097687Y-124085663D01*
X67097686Y-124085666D01*
X67042501Y-124252203D01*
X67042501Y-124252204D01*
X67042500Y-124252204D01*
X67032000Y-124354983D01*
X54500500Y-124354983D01*
X54500500Y-116169635D01*
X88199500Y-116169635D01*
X88199500Y-119265370D01*
X88199501Y-119265376D01*
X88205908Y-119324983D01*
X88256202Y-119459828D01*
X88256206Y-119459835D01*
X88342452Y-119575044D01*
X88342455Y-119575047D01*
X88457664Y-119661293D01*
X88457671Y-119661297D01*
X88592517Y-119711591D01*
X88592516Y-119711591D01*
X88599444Y-119712335D01*
X88652127Y-119718000D01*
X91747872Y-119717999D01*
X91807483Y-119711591D01*
X91942331Y-119661296D01*
X92057546Y-119575046D01*
X92143796Y-119459831D01*
X92194091Y-119324983D01*
X92200500Y-119265373D01*
X92200499Y-116169628D01*
X92194091Y-116110017D01*
X92143796Y-115975169D01*
X92143795Y-115975168D01*
X92143793Y-115975164D01*
X92057547Y-115859955D01*
X92057544Y-115859952D01*
X91942335Y-115773706D01*
X91942328Y-115773702D01*
X91807482Y-115723408D01*
X91807483Y-115723408D01*
X91747883Y-115717001D01*
X91747881Y-115717000D01*
X91747873Y-115717000D01*
X91747864Y-115717000D01*
X88652129Y-115717000D01*
X88652123Y-115717001D01*
X88592516Y-115723408D01*
X88457671Y-115773702D01*
X88457664Y-115773706D01*
X88342455Y-115859952D01*
X88342452Y-115859955D01*
X88256206Y-115975164D01*
X88256202Y-115975171D01*
X88205908Y-116110017D01*
X88199501Y-116169616D01*
X88199501Y-116169623D01*
X88199500Y-116169635D01*
X54500500Y-116169635D01*
X54500500Y-98874038D01*
X88979500Y-98874038D01*
X88979500Y-99125961D01*
X89018910Y-99374785D01*
X89096760Y-99614383D01*
X89211132Y-99838848D01*
X89359201Y-100042649D01*
X89359205Y-100042654D01*
X89537345Y-100220794D01*
X89537350Y-100220798D01*
X89715117Y-100349952D01*
X89741155Y-100368870D01*
X89884184Y-100441747D01*
X89965616Y-100483239D01*
X89965618Y-100483239D01*
X89965621Y-100483241D01*
X90205215Y-100561090D01*
X90454038Y-100600500D01*
X90454039Y-100600500D01*
X90705961Y-100600500D01*
X90705962Y-100600500D01*
X90954785Y-100561090D01*
X91194379Y-100483241D01*
X91418845Y-100368870D01*
X91622656Y-100220793D01*
X91800793Y-100042656D01*
X91948870Y-99838845D01*
X92063241Y-99614379D01*
X92141090Y-99374785D01*
X92180500Y-99125962D01*
X92180500Y-98874038D01*
X92141090Y-98625215D01*
X92063241Y-98385621D01*
X92063239Y-98385618D01*
X92063239Y-98385616D01*
X91948869Y-98161154D01*
X91948865Y-98161148D01*
X91904426Y-98099982D01*
X99139500Y-98099982D01*
X99139500Y-99900017D01*
X99150000Y-100002796D01*
X99200221Y-100154353D01*
X99205186Y-100169335D01*
X99297288Y-100318656D01*
X99421344Y-100442712D01*
X99570665Y-100534814D01*
X99737202Y-100589999D01*
X99839990Y-100600500D01*
X99839995Y-100600500D01*
X101640005Y-100600500D01*
X101640010Y-100600500D01*
X101742798Y-100589999D01*
X101909335Y-100534814D01*
X102058656Y-100442712D01*
X102182712Y-100318656D01*
X102274814Y-100169335D01*
X102329999Y-100002798D01*
X102340500Y-99900010D01*
X102340500Y-98099990D01*
X102329999Y-97997202D01*
X102274814Y-97830665D01*
X102182712Y-97681344D01*
X102058656Y-97557288D01*
X101909335Y-97465186D01*
X101742798Y-97410001D01*
X101742796Y-97410000D01*
X101640017Y-97399500D01*
X101640010Y-97399500D01*
X99839990Y-97399500D01*
X99839982Y-97399500D01*
X99737203Y-97410000D01*
X99737202Y-97410001D01*
X99654669Y-97437349D01*
X99570667Y-97465185D01*
X99570662Y-97465187D01*
X99421342Y-97557289D01*
X99297289Y-97681342D01*
X99205187Y-97830662D01*
X99205185Y-97830667D01*
X99177349Y-97914669D01*
X99150001Y-97997202D01*
X99150001Y-97997203D01*
X99150000Y-97997203D01*
X99139500Y-98099982D01*
X91904426Y-98099982D01*
X91800798Y-97957350D01*
X91800794Y-97957345D01*
X91622654Y-97779205D01*
X91622649Y-97779201D01*
X91418848Y-97631132D01*
X91418847Y-97631131D01*
X91418845Y-97631130D01*
X91348747Y-97595413D01*
X91194383Y-97516760D01*
X90954785Y-97438910D01*
X90705962Y-97399500D01*
X90454038Y-97399500D01*
X90387738Y-97410001D01*
X90205214Y-97438910D01*
X89965616Y-97516760D01*
X89741151Y-97631132D01*
X89537350Y-97779201D01*
X89537345Y-97779205D01*
X89359205Y-97957345D01*
X89359201Y-97957350D01*
X89211132Y-98161151D01*
X89096760Y-98385616D01*
X89018910Y-98625214D01*
X88979500Y-98874038D01*
X54500500Y-98874038D01*
X54500500Y-73482135D01*
X66649500Y-73482135D01*
X66649500Y-75277870D01*
X66649501Y-75277876D01*
X66655908Y-75337483D01*
X66706202Y-75472328D01*
X66706206Y-75472335D01*
X66792452Y-75587544D01*
X66792455Y-75587547D01*
X66907664Y-75673793D01*
X66907671Y-75673797D01*
X67039082Y-75722810D01*
X67095016Y-75764681D01*
X67119433Y-75830145D01*
X67104582Y-75898418D01*
X67083431Y-75926673D01*
X66969889Y-76040215D01*
X66844951Y-76212179D01*
X66748444Y-76401585D01*
X66682753Y-76603760D01*
X66649500Y-76813713D01*
X66649500Y-77026286D01*
X66666272Y-77132184D01*
X66682754Y-77236243D01*
X66747738Y-77436243D01*
X66748444Y-77438414D01*
X66844951Y-77627820D01*
X66969890Y-77799786D01*
X67120213Y-77950109D01*
X67292182Y-78075050D01*
X67300946Y-78079516D01*
X67351742Y-78127491D01*
X67368536Y-78195312D01*
X67345998Y-78261447D01*
X67300946Y-78300484D01*
X67292182Y-78304949D01*
X67120213Y-78429890D01*
X66969890Y-78580213D01*
X66844951Y-78752179D01*
X66748444Y-78941585D01*
X66682753Y-79143760D01*
X66649500Y-79353713D01*
X66649500Y-79566286D01*
X66666272Y-79672184D01*
X66682754Y-79776243D01*
X66747738Y-79976243D01*
X66748444Y-79978414D01*
X66844951Y-80167820D01*
X66969890Y-80339786D01*
X67120213Y-80490109D01*
X67292182Y-80615050D01*
X67300946Y-80619516D01*
X67351742Y-80667491D01*
X67368536Y-80735312D01*
X67345998Y-80801447D01*
X67300946Y-80840484D01*
X67292182Y-80844949D01*
X67120213Y-80969890D01*
X66969890Y-81120213D01*
X66844951Y-81292179D01*
X66748444Y-81481585D01*
X66682753Y-81683760D01*
X66649500Y-81893713D01*
X66649500Y-82106286D01*
X66676887Y-82279205D01*
X66682754Y-82316243D01*
X66747738Y-82516243D01*
X66748444Y-82518414D01*
X66844951Y-82707820D01*
X66969890Y-82879786D01*
X67120213Y-83030109D01*
X67292182Y-83155050D01*
X67300946Y-83159516D01*
X67351742Y-83207491D01*
X67368536Y-83275312D01*
X67345998Y-83341447D01*
X67300946Y-83380484D01*
X67292182Y-83384949D01*
X67120213Y-83509890D01*
X66969890Y-83660213D01*
X66844951Y-83832179D01*
X66748444Y-84021585D01*
X66682753Y-84223760D01*
X66650105Y-84429896D01*
X66649500Y-84433713D01*
X66649500Y-84646287D01*
X66653151Y-84669337D01*
X66681170Y-84846246D01*
X66682754Y-84856243D01*
X66744737Y-85047007D01*
X66748444Y-85058414D01*
X66844951Y-85247820D01*
X66969890Y-85419786D01*
X67120213Y-85570109D01*
X67292182Y-85695050D01*
X67300946Y-85699516D01*
X67351742Y-85747491D01*
X67368536Y-85815312D01*
X67345998Y-85881447D01*
X67300946Y-85920484D01*
X67292182Y-85924949D01*
X67120213Y-86049890D01*
X66969890Y-86200213D01*
X66844951Y-86372179D01*
X66748444Y-86561585D01*
X66682753Y-86763760D01*
X66649500Y-86973713D01*
X66649500Y-87186286D01*
X66666272Y-87292184D01*
X66682754Y-87396243D01*
X66747738Y-87596243D01*
X66748444Y-87598414D01*
X66844951Y-87787820D01*
X66969890Y-87959786D01*
X67120213Y-88110109D01*
X67292182Y-88235050D01*
X67300946Y-88239516D01*
X67351742Y-88287491D01*
X67368536Y-88355312D01*
X67345998Y-88421447D01*
X67300946Y-88460484D01*
X67292182Y-88464949D01*
X67120213Y-88589890D01*
X66969890Y-88740213D01*
X66844951Y-88912179D01*
X66748444Y-89101585D01*
X66682753Y-89303760D01*
X66649500Y-89513713D01*
X66649500Y-89726286D01*
X66666272Y-89832184D01*
X66682754Y-89936243D01*
X66747738Y-90136243D01*
X66748444Y-90138414D01*
X66844951Y-90327820D01*
X66969890Y-90499786D01*
X67120213Y-90650109D01*
X67292182Y-90775050D01*
X67300946Y-90779516D01*
X67351742Y-90827491D01*
X67368536Y-90895312D01*
X67345998Y-90961447D01*
X67300946Y-91000484D01*
X67292182Y-91004949D01*
X67120213Y-91129890D01*
X66969890Y-91280213D01*
X66844951Y-91452179D01*
X66748444Y-91641585D01*
X66682753Y-91843760D01*
X66649500Y-92053713D01*
X66649500Y-92266286D01*
X66666272Y-92372184D01*
X66682754Y-92476243D01*
X66747738Y-92676243D01*
X66748444Y-92678414D01*
X66844951Y-92867820D01*
X66969890Y-93039786D01*
X67120213Y-93190109D01*
X67292182Y-93315050D01*
X67300946Y-93319516D01*
X67351742Y-93367491D01*
X67368536Y-93435312D01*
X67345998Y-93501447D01*
X67300946Y-93540484D01*
X67292182Y-93544949D01*
X67120213Y-93669890D01*
X66969890Y-93820213D01*
X66844951Y-93992179D01*
X66748444Y-94181585D01*
X66682753Y-94383760D01*
X66649500Y-94593713D01*
X66649500Y-94806286D01*
X66674768Y-94965826D01*
X66682754Y-95016243D01*
X66744737Y-95207007D01*
X66748444Y-95218414D01*
X66844951Y-95407820D01*
X66969890Y-95579786D01*
X67120213Y-95730109D01*
X67292182Y-95855050D01*
X67300946Y-95859516D01*
X67351742Y-95907491D01*
X67368536Y-95975312D01*
X67345998Y-96041447D01*
X67300946Y-96080484D01*
X67292182Y-96084949D01*
X67120213Y-96209890D01*
X66969890Y-96360213D01*
X66844951Y-96532179D01*
X66748444Y-96721585D01*
X66682753Y-96923760D01*
X66649500Y-97133713D01*
X66649500Y-97346286D01*
X66666272Y-97452184D01*
X66682754Y-97556243D01*
X66723401Y-97681342D01*
X66748444Y-97758414D01*
X66844951Y-97947820D01*
X66969890Y-98119786D01*
X67120213Y-98270109D01*
X67292179Y-98395048D01*
X67292181Y-98395049D01*
X67292184Y-98395051D01*
X67481588Y-98491557D01*
X67683757Y-98557246D01*
X67893713Y-98590500D01*
X67893714Y-98590500D01*
X68106286Y-98590500D01*
X68106287Y-98590500D01*
X68316243Y-98557246D01*
X68518412Y-98491557D01*
X68707816Y-98395051D01*
X68729789Y-98379086D01*
X68879786Y-98270109D01*
X68879788Y-98270106D01*
X68879792Y-98270104D01*
X69030104Y-98119792D01*
X69030106Y-98119788D01*
X69030109Y-98119786D01*
X69148128Y-97957345D01*
X69155051Y-97947816D01*
X69251557Y-97758412D01*
X69317246Y-97556243D01*
X69350500Y-97346287D01*
X69350500Y-97133713D01*
X69317246Y-96923757D01*
X69251557Y-96721588D01*
X69155051Y-96532184D01*
X69131403Y-96499635D01*
X117999500Y-96499635D01*
X117999500Y-98500370D01*
X117999501Y-98500376D01*
X118005908Y-98559983D01*
X118056202Y-98694828D01*
X118056206Y-98694835D01*
X118142452Y-98810044D01*
X118142455Y-98810047D01*
X118257664Y-98896293D01*
X118257669Y-98896296D01*
X118285539Y-98906690D01*
X118341473Y-98948561D01*
X118365891Y-99014024D01*
X118351040Y-99082298D01*
X118342525Y-99095759D01*
X118209783Y-99278461D01*
X118105950Y-99482244D01*
X118035278Y-99699750D01*
X118035278Y-99699753D01*
X118003561Y-99900004D01*
X117999500Y-99925646D01*
X117999500Y-100154354D01*
X118010023Y-100220793D01*
X118035278Y-100380246D01*
X118035278Y-100380249D01*
X118105950Y-100597755D01*
X118107349Y-100600500D01*
X118209783Y-100801538D01*
X118344214Y-100986566D01*
X118505934Y-101148286D01*
X118590864Y-101209991D01*
X118633529Y-101265321D01*
X118639508Y-101334935D01*
X118606902Y-101396730D01*
X118590864Y-101410627D01*
X118506257Y-101472097D01*
X118344597Y-101633757D01*
X118210211Y-101818723D01*
X118106417Y-102022429D01*
X118035765Y-102239871D01*
X118021491Y-102330000D01*
X119009252Y-102330000D01*
X118987482Y-102367708D01*
X118950000Y-102507591D01*
X118950000Y-102652409D01*
X118987482Y-102792292D01*
X119009252Y-102830000D01*
X118021491Y-102830000D01*
X118035765Y-102920128D01*
X118106417Y-103137570D01*
X118210211Y-103341276D01*
X118344597Y-103526242D01*
X118506257Y-103687902D01*
X118691223Y-103822288D01*
X118894929Y-103926082D01*
X119112371Y-103996734D01*
X119250000Y-104018532D01*
X119250000Y-103070747D01*
X119287708Y-103092518D01*
X119427591Y-103130000D01*
X119572409Y-103130000D01*
X119712292Y-103092518D01*
X119750000Y-103070747D01*
X119750000Y-104018531D01*
X119887628Y-103996734D01*
X120105070Y-103926082D01*
X120308776Y-103822288D01*
X120493742Y-103687902D01*
X120655402Y-103526242D01*
X120789788Y-103341276D01*
X120893582Y-103137570D01*
X120964234Y-102920128D01*
X120978509Y-102830000D01*
X119990748Y-102830000D01*
X120012518Y-102792292D01*
X120050000Y-102652409D01*
X120050000Y-102507591D01*
X120012518Y-102367708D01*
X119990748Y-102330000D01*
X120978509Y-102330000D01*
X120964234Y-102239871D01*
X120893582Y-102022429D01*
X120789788Y-101818723D01*
X120655402Y-101633757D01*
X120493742Y-101472097D01*
X120409135Y-101410626D01*
X120366470Y-101355296D01*
X120360491Y-101285682D01*
X120393097Y-101223887D01*
X120409125Y-101209999D01*
X120494066Y-101148286D01*
X120655786Y-100986566D01*
X120790217Y-100801538D01*
X120894048Y-100597758D01*
X120905962Y-100561090D01*
X120964721Y-100380249D01*
X120964721Y-100380248D01*
X120964722Y-100380245D01*
X121000500Y-100154354D01*
X121000500Y-99925646D01*
X120964722Y-99699755D01*
X120964721Y-99699751D01*
X120964721Y-99699750D01*
X120894049Y-99482244D01*
X120894048Y-99482242D01*
X120790217Y-99278462D01*
X120657472Y-99095755D01*
X120633994Y-99029953D01*
X120649819Y-98961899D01*
X120699925Y-98913204D01*
X120714455Y-98906692D01*
X120742331Y-98896296D01*
X120857546Y-98810046D01*
X120943796Y-98694831D01*
X120994091Y-98559983D01*
X121000500Y-98500373D01*
X121000499Y-96499628D01*
X120994091Y-96440017D01*
X120964324Y-96360208D01*
X120943797Y-96305171D01*
X120943793Y-96305164D01*
X120857547Y-96189955D01*
X120857544Y-96189952D01*
X120742335Y-96103706D01*
X120742328Y-96103702D01*
X120607482Y-96053408D01*
X120607483Y-96053408D01*
X120547883Y-96047001D01*
X120547881Y-96047000D01*
X120547873Y-96047000D01*
X120547864Y-96047000D01*
X118452129Y-96047000D01*
X118452123Y-96047001D01*
X118392516Y-96053408D01*
X118257671Y-96103702D01*
X118257664Y-96103706D01*
X118142455Y-96189952D01*
X118142452Y-96189955D01*
X118056206Y-96305164D01*
X118056202Y-96305171D01*
X118005908Y-96440017D01*
X117999501Y-96499616D01*
X117999501Y-96499623D01*
X117999500Y-96499635D01*
X69131403Y-96499635D01*
X69131389Y-96499616D01*
X69030109Y-96360213D01*
X68879786Y-96209890D01*
X68707820Y-96084951D01*
X68707115Y-96084591D01*
X68699054Y-96080485D01*
X68648259Y-96032512D01*
X68631463Y-95964692D01*
X68653999Y-95898556D01*
X68699054Y-95859515D01*
X68707816Y-95855051D01*
X68729789Y-95839086D01*
X68879786Y-95730109D01*
X68879788Y-95730106D01*
X68879792Y-95730104D01*
X69030104Y-95579792D01*
X69030106Y-95579788D01*
X69030109Y-95579786D01*
X69155048Y-95407820D01*
X69155047Y-95407820D01*
X69155051Y-95407816D01*
X69251557Y-95218412D01*
X69317246Y-95016243D01*
X69350500Y-94806287D01*
X69350500Y-94593713D01*
X69317246Y-94383757D01*
X69251557Y-94181588D01*
X69155051Y-93992184D01*
X69155049Y-93992181D01*
X69155048Y-93992179D01*
X69030109Y-93820213D01*
X68879786Y-93669890D01*
X68707820Y-93544951D01*
X68707115Y-93544591D01*
X68699054Y-93540485D01*
X68648259Y-93492512D01*
X68631463Y-93424692D01*
X68653999Y-93358556D01*
X68699054Y-93319515D01*
X68707816Y-93315051D01*
X68811402Y-93239792D01*
X68879786Y-93190109D01*
X68879788Y-93190106D01*
X68879792Y-93190104D01*
X69030104Y-93039792D01*
X69030106Y-93039788D01*
X69030109Y-93039786D01*
X69155048Y-92867820D01*
X69155047Y-92867820D01*
X69155051Y-92867816D01*
X69251557Y-92678412D01*
X69317246Y-92476243D01*
X69350500Y-92266287D01*
X69350500Y-92053713D01*
X69317246Y-91843757D01*
X69251557Y-91641588D01*
X69155051Y-91452184D01*
X69155049Y-91452181D01*
X69155048Y-91452179D01*
X69030109Y-91280213D01*
X68879786Y-91129890D01*
X68707820Y-91004951D01*
X68707115Y-91004591D01*
X68699054Y-91000485D01*
X68648259Y-90952512D01*
X68631463Y-90884692D01*
X68653999Y-90818556D01*
X68699054Y-90779515D01*
X68707816Y-90775051D01*
X68811402Y-90699792D01*
X68879786Y-90650109D01*
X68879788Y-90650106D01*
X68879792Y-90650104D01*
X69030104Y-90499792D01*
X69030106Y-90499788D01*
X69030109Y-90499786D01*
X69155048Y-90327820D01*
X69155047Y-90327820D01*
X69155051Y-90327816D01*
X69251557Y-90138412D01*
X69317246Y-89936243D01*
X69350500Y-89726287D01*
X69350500Y-89513713D01*
X69317246Y-89303757D01*
X69251557Y-89101588D01*
X69155051Y-88912184D01*
X69155049Y-88912181D01*
X69155048Y-88912179D01*
X69030109Y-88740213D01*
X68879786Y-88589890D01*
X68707820Y-88464951D01*
X68707115Y-88464591D01*
X68699054Y-88460485D01*
X68695656Y-88457275D01*
X68691136Y-88456079D01*
X68670493Y-88433510D01*
X68648259Y-88412512D01*
X68647134Y-88407973D01*
X68643979Y-88404523D01*
X68638814Y-88374375D01*
X68631463Y-88344692D01*
X68632970Y-88340266D01*
X68632181Y-88335656D01*
X68644136Y-88307497D01*
X68653999Y-88278556D01*
X68658167Y-88274453D01*
X68659488Y-88271344D01*
X68669557Y-88263243D01*
X68685531Y-88247523D01*
X68692034Y-88243091D01*
X68707816Y-88235051D01*
X68821564Y-88152409D01*
X68879786Y-88110109D01*
X68879788Y-88110106D01*
X68879792Y-88110104D01*
X69030104Y-87959792D01*
X69030106Y-87959788D01*
X69030109Y-87959786D01*
X69155048Y-87787820D01*
X69155047Y-87787820D01*
X69155051Y-87787816D01*
X69251557Y-87598412D01*
X69317246Y-87396243D01*
X69350500Y-87186287D01*
X69350500Y-86973713D01*
X69317246Y-86763757D01*
X69251557Y-86561588D01*
X69155051Y-86372184D01*
X69155049Y-86372181D01*
X69155048Y-86372179D01*
X69030109Y-86200213D01*
X68879786Y-86049890D01*
X68707820Y-85924951D01*
X68707115Y-85924591D01*
X68699054Y-85920485D01*
X68648259Y-85872512D01*
X68631463Y-85804692D01*
X68653999Y-85738556D01*
X68699054Y-85699515D01*
X68707816Y-85695051D01*
X68763831Y-85654354D01*
X68879786Y-85570109D01*
X68879788Y-85570106D01*
X68879792Y-85570104D01*
X69030104Y-85419792D01*
X69030106Y-85419788D01*
X69030109Y-85419786D01*
X69155048Y-85247820D01*
X69155047Y-85247820D01*
X69155051Y-85247816D01*
X69251557Y-85058412D01*
X69317246Y-84856243D01*
X69350500Y-84646287D01*
X69350500Y-84433713D01*
X69317246Y-84223757D01*
X69251557Y-84021588D01*
X69155051Y-83832184D01*
X69155049Y-83832181D01*
X69155048Y-83832179D01*
X69030109Y-83660213D01*
X68879790Y-83509894D01*
X68879785Y-83509890D01*
X68825044Y-83470118D01*
X68824986Y-83470077D01*
X68707816Y-83384949D01*
X68691347Y-83376557D01*
X68687747Y-83374038D01*
X88979500Y-83374038D01*
X88979500Y-83625961D01*
X89018910Y-83874785D01*
X89096760Y-84114383D01*
X89211132Y-84338848D01*
X89359201Y-84542649D01*
X89359205Y-84542654D01*
X89537345Y-84720794D01*
X89537350Y-84720798D01*
X89710016Y-84846246D01*
X89741155Y-84868870D01*
X89867004Y-84932993D01*
X89965616Y-84983239D01*
X89965618Y-84983239D01*
X89965621Y-84983241D01*
X90205215Y-85061090D01*
X90454038Y-85100500D01*
X90454039Y-85100500D01*
X90705961Y-85100500D01*
X90705962Y-85100500D01*
X90954785Y-85061090D01*
X91194379Y-84983241D01*
X91418845Y-84868870D01*
X91622656Y-84720793D01*
X91800793Y-84542656D01*
X91948870Y-84338845D01*
X92063241Y-84114379D01*
X92141090Y-83874785D01*
X92180500Y-83625962D01*
X92180500Y-83374038D01*
X92141090Y-83125215D01*
X92063241Y-82885621D01*
X92063239Y-82885618D01*
X92063239Y-82885616D01*
X91948869Y-82661154D01*
X91948865Y-82661148D01*
X91904426Y-82599982D01*
X99139500Y-82599982D01*
X99139500Y-84400017D01*
X99150000Y-84502796D01*
X99164650Y-84547007D01*
X99205186Y-84669335D01*
X99297288Y-84818656D01*
X99421344Y-84942712D01*
X99570665Y-85034814D01*
X99737202Y-85089999D01*
X99839990Y-85100500D01*
X99839995Y-85100500D01*
X101640005Y-85100500D01*
X101640010Y-85100500D01*
X101742798Y-85089999D01*
X101909335Y-85034814D01*
X102058656Y-84942712D01*
X102182712Y-84818656D01*
X102274814Y-84669335D01*
X102329999Y-84502798D01*
X102340500Y-84400010D01*
X102340500Y-82599990D01*
X102329999Y-82497202D01*
X102274814Y-82330665D01*
X102182712Y-82181344D01*
X102058656Y-82057288D01*
X101965186Y-81999635D01*
X117999500Y-81999635D01*
X117999500Y-84000370D01*
X117999501Y-84000376D01*
X118005908Y-84059983D01*
X118056202Y-84194828D01*
X118056206Y-84194835D01*
X118142452Y-84310044D01*
X118142455Y-84310047D01*
X118257664Y-84396293D01*
X118257669Y-84396296D01*
X118285539Y-84406690D01*
X118341473Y-84448561D01*
X118365891Y-84514024D01*
X118351040Y-84582298D01*
X118342525Y-84595759D01*
X118209783Y-84778461D01*
X118105950Y-84982244D01*
X118035278Y-85199750D01*
X118035278Y-85199753D01*
X117999500Y-85425646D01*
X117999500Y-85654353D01*
X118035278Y-85880246D01*
X118035278Y-85880249D01*
X118105950Y-86097755D01*
X118119806Y-86124949D01*
X118209783Y-86301538D01*
X118344214Y-86486566D01*
X118505934Y-86648286D01*
X118590864Y-86709991D01*
X118633529Y-86765321D01*
X118639508Y-86834935D01*
X118606902Y-86896730D01*
X118590864Y-86910627D01*
X118506257Y-86972097D01*
X118344597Y-87133757D01*
X118210211Y-87318723D01*
X118106417Y-87522429D01*
X118035765Y-87739871D01*
X118021491Y-87830000D01*
X119009252Y-87830000D01*
X118987482Y-87867708D01*
X118950000Y-88007591D01*
X118950000Y-88152409D01*
X118987482Y-88292292D01*
X119009252Y-88330000D01*
X118021491Y-88330000D01*
X118035765Y-88420128D01*
X118106417Y-88637570D01*
X118210211Y-88841276D01*
X118344597Y-89026242D01*
X118506257Y-89187902D01*
X118691223Y-89322288D01*
X118894929Y-89426082D01*
X119112371Y-89496734D01*
X119250000Y-89518532D01*
X119250000Y-88570747D01*
X119287708Y-88592518D01*
X119427591Y-88630000D01*
X119572409Y-88630000D01*
X119712292Y-88592518D01*
X119750000Y-88570747D01*
X119750000Y-89518531D01*
X119887628Y-89496734D01*
X120105070Y-89426082D01*
X120308776Y-89322288D01*
X120493742Y-89187902D01*
X120655402Y-89026242D01*
X120789788Y-88841276D01*
X120893582Y-88637570D01*
X120964234Y-88420128D01*
X120978509Y-88330000D01*
X119990748Y-88330000D01*
X120012518Y-88292292D01*
X120050000Y-88152409D01*
X120050000Y-88007591D01*
X120012518Y-87867708D01*
X119990748Y-87830000D01*
X120978509Y-87830000D01*
X120964234Y-87739871D01*
X120893582Y-87522429D01*
X120789788Y-87318723D01*
X120655402Y-87133757D01*
X120493742Y-86972097D01*
X120409135Y-86910626D01*
X120366470Y-86855296D01*
X120360491Y-86785682D01*
X120393097Y-86723887D01*
X120409125Y-86709999D01*
X120494066Y-86648286D01*
X120655786Y-86486566D01*
X120790217Y-86301538D01*
X120894048Y-86097758D01*
X120937913Y-85962754D01*
X120964721Y-85880249D01*
X120964721Y-85880248D01*
X120964722Y-85880245D01*
X121000500Y-85654354D01*
X121000500Y-85425646D01*
X120964722Y-85199755D01*
X120964721Y-85199751D01*
X120964721Y-85199750D01*
X120894049Y-84982244D01*
X120836282Y-84868870D01*
X120790217Y-84778462D01*
X120657472Y-84595755D01*
X120633994Y-84529953D01*
X120649819Y-84461899D01*
X120699925Y-84413204D01*
X120714455Y-84406692D01*
X120742331Y-84396296D01*
X120857546Y-84310046D01*
X120943796Y-84194831D01*
X120994091Y-84059983D01*
X121000500Y-84000373D01*
X121000499Y-81999628D01*
X120994091Y-81940017D01*
X120982895Y-81910000D01*
X120943797Y-81805171D01*
X120943793Y-81805164D01*
X120857547Y-81689955D01*
X120857544Y-81689952D01*
X120742335Y-81603706D01*
X120742328Y-81603702D01*
X120607482Y-81553408D01*
X120607483Y-81553408D01*
X120547883Y-81547001D01*
X120547881Y-81547000D01*
X120547873Y-81547000D01*
X120547864Y-81547000D01*
X118452129Y-81547000D01*
X118452123Y-81547001D01*
X118392516Y-81553408D01*
X118257671Y-81603702D01*
X118257664Y-81603706D01*
X118142455Y-81689952D01*
X118142452Y-81689955D01*
X118056206Y-81805164D01*
X118056202Y-81805171D01*
X118005908Y-81940017D01*
X117999501Y-81999616D01*
X117999501Y-81999623D01*
X117999500Y-81999635D01*
X101965186Y-81999635D01*
X101909335Y-81965186D01*
X101742798Y-81910001D01*
X101742796Y-81910000D01*
X101640017Y-81899500D01*
X101640010Y-81899500D01*
X99839990Y-81899500D01*
X99839982Y-81899500D01*
X99737203Y-81910000D01*
X99737202Y-81910001D01*
X99654669Y-81937349D01*
X99570667Y-81965185D01*
X99570662Y-81965187D01*
X99421342Y-82057289D01*
X99297289Y-82181342D01*
X99205187Y-82330662D01*
X99205186Y-82330665D01*
X99150001Y-82497202D01*
X99150001Y-82497203D01*
X99150000Y-82497203D01*
X99139500Y-82599982D01*
X91904426Y-82599982D01*
X91800798Y-82457350D01*
X91800794Y-82457345D01*
X91622654Y-82279205D01*
X91622649Y-82279201D01*
X91418848Y-82131132D01*
X91418847Y-82131131D01*
X91418845Y-82131130D01*
X91345410Y-82093713D01*
X91194383Y-82016760D01*
X90954785Y-81938910D01*
X90705962Y-81899500D01*
X90454038Y-81899500D01*
X90387738Y-81910001D01*
X90205214Y-81938910D01*
X89965616Y-82016760D01*
X89741151Y-82131132D01*
X89537350Y-82279201D01*
X89537345Y-82279205D01*
X89359205Y-82457345D01*
X89359201Y-82457350D01*
X89211132Y-82661151D01*
X89096760Y-82885616D01*
X89018910Y-83125214D01*
X88979500Y-83374038D01*
X68687747Y-83374038D01*
X68684254Y-83371594D01*
X68667622Y-83350799D01*
X68648259Y-83332512D01*
X68646134Y-83323931D01*
X68640614Y-83317030D01*
X68637864Y-83290541D01*
X68631463Y-83264692D01*
X68634313Y-83256326D01*
X68633401Y-83247533D01*
X68645409Y-83223763D01*
X68653999Y-83198556D01*
X68661371Y-83192167D01*
X68664907Y-83185170D01*
X68679051Y-83176847D01*
X68699054Y-83159515D01*
X68707816Y-83155051D01*
X68748882Y-83125215D01*
X68879786Y-83030109D01*
X68879788Y-83030106D01*
X68879792Y-83030104D01*
X69030104Y-82879792D01*
X69030106Y-82879788D01*
X69030109Y-82879786D01*
X69155048Y-82707820D01*
X69155047Y-82707820D01*
X69155051Y-82707816D01*
X69251557Y-82518412D01*
X69317246Y-82316243D01*
X69350500Y-82106287D01*
X69350500Y-81893713D01*
X69317246Y-81683757D01*
X69251557Y-81481588D01*
X69155051Y-81292184D01*
X69155049Y-81292181D01*
X69155048Y-81292179D01*
X69030109Y-81120213D01*
X68879786Y-80969890D01*
X68707820Y-80844951D01*
X68707115Y-80844591D01*
X68699054Y-80840485D01*
X68648259Y-80792512D01*
X68631463Y-80724692D01*
X68653999Y-80658556D01*
X68699054Y-80619515D01*
X68707816Y-80615051D01*
X68811402Y-80539792D01*
X68879786Y-80490109D01*
X68879788Y-80490106D01*
X68879792Y-80490104D01*
X69030104Y-80339792D01*
X69030106Y-80339788D01*
X69030109Y-80339786D01*
X69155048Y-80167820D01*
X69155047Y-80167820D01*
X69155051Y-80167816D01*
X69251557Y-79978412D01*
X69277799Y-79897648D01*
X136579500Y-79897648D01*
X136579500Y-80102351D01*
X136611522Y-80304534D01*
X136674781Y-80499223D01*
X136733798Y-80615048D01*
X136755966Y-80658556D01*
X136767715Y-80681613D01*
X136888028Y-80847213D01*
X137032786Y-80991971D01*
X137164708Y-81087816D01*
X137198390Y-81112287D01*
X137311442Y-81169890D01*
X137380776Y-81205218D01*
X137380778Y-81205218D01*
X137380781Y-81205220D01*
X137485137Y-81239127D01*
X137575465Y-81268477D01*
X137676557Y-81284488D01*
X137777648Y-81300500D01*
X137777649Y-81300500D01*
X137982351Y-81300500D01*
X137982352Y-81300500D01*
X138184534Y-81268477D01*
X138379219Y-81205220D01*
X138561610Y-81112287D01*
X138660439Y-81040484D01*
X138727213Y-80991971D01*
X138727215Y-80991968D01*
X138727219Y-80991966D01*
X138871966Y-80847219D01*
X138871968Y-80847215D01*
X138871971Y-80847213D01*
X138943730Y-80748443D01*
X138992287Y-80681610D01*
X139085220Y-80499219D01*
X139148477Y-80304534D01*
X139180500Y-80102352D01*
X139180500Y-79897648D01*
X144199500Y-79897648D01*
X144199500Y-80102351D01*
X144231522Y-80304534D01*
X144294781Y-80499223D01*
X144353798Y-80615048D01*
X144375966Y-80658556D01*
X144387715Y-80681613D01*
X144508028Y-80847213D01*
X144652786Y-80991971D01*
X144784708Y-81087816D01*
X144818390Y-81112287D01*
X144931442Y-81169890D01*
X145000776Y-81205218D01*
X145000778Y-81205218D01*
X145000781Y-81205220D01*
X145105137Y-81239127D01*
X145195465Y-81268477D01*
X145296557Y-81284488D01*
X145397648Y-81300500D01*
X145397649Y-81300500D01*
X145602351Y-81300500D01*
X145602352Y-81300500D01*
X145804534Y-81268477D01*
X145999219Y-81205220D01*
X146181610Y-81112287D01*
X146280439Y-81040484D01*
X146347213Y-80991971D01*
X146347215Y-80991968D01*
X146347219Y-80991966D01*
X146491966Y-80847219D01*
X146491968Y-80847215D01*
X146491971Y-80847213D01*
X146563730Y-80748443D01*
X146612287Y-80681610D01*
X146705220Y-80499219D01*
X146768477Y-80304534D01*
X146800500Y-80102352D01*
X146800500Y-79897648D01*
X146768477Y-79695466D01*
X146705220Y-79500781D01*
X146705218Y-79500778D01*
X146705218Y-79500776D01*
X146671503Y-79434607D01*
X146612287Y-79318390D01*
X146604556Y-79307749D01*
X146491971Y-79152786D01*
X146347213Y-79008028D01*
X146181613Y-78887715D01*
X146181612Y-78887714D01*
X146181610Y-78887713D01*
X146124653Y-78858691D01*
X145999223Y-78794781D01*
X145804534Y-78731522D01*
X145629995Y-78703878D01*
X145602352Y-78699500D01*
X145397648Y-78699500D01*
X145373329Y-78703351D01*
X145195465Y-78731522D01*
X145000776Y-78794781D01*
X144818386Y-78887715D01*
X144652786Y-79008028D01*
X144508028Y-79152786D01*
X144387715Y-79318386D01*
X144294781Y-79500776D01*
X144231522Y-79695465D01*
X144199500Y-79897648D01*
X139180500Y-79897648D01*
X139148477Y-79695466D01*
X139085220Y-79500781D01*
X139085218Y-79500778D01*
X139085218Y-79500776D01*
X139051503Y-79434607D01*
X138992287Y-79318390D01*
X138984556Y-79307749D01*
X138871971Y-79152786D01*
X138727213Y-79008028D01*
X138561613Y-78887715D01*
X138561612Y-78887714D01*
X138561610Y-78887713D01*
X138504653Y-78858691D01*
X138379223Y-78794781D01*
X138184534Y-78731522D01*
X138009995Y-78703878D01*
X137982352Y-78699500D01*
X137777648Y-78699500D01*
X137753329Y-78703351D01*
X137575465Y-78731522D01*
X137380776Y-78794781D01*
X137198386Y-78887715D01*
X137032786Y-79008028D01*
X136888028Y-79152786D01*
X136767715Y-79318386D01*
X136674781Y-79500776D01*
X136611522Y-79695465D01*
X136579500Y-79897648D01*
X69277799Y-79897648D01*
X69317246Y-79776243D01*
X69350500Y-79566287D01*
X69350500Y-79353713D01*
X69317246Y-79143757D01*
X69251557Y-78941588D01*
X69155051Y-78752184D01*
X69155049Y-78752181D01*
X69155048Y-78752179D01*
X69030109Y-78580213D01*
X68879786Y-78429890D01*
X68707820Y-78304951D01*
X68707115Y-78304591D01*
X68699054Y-78300485D01*
X68648259Y-78252512D01*
X68631463Y-78184692D01*
X68653999Y-78118556D01*
X68699054Y-78079515D01*
X68707816Y-78075051D01*
X68811402Y-77999792D01*
X68879786Y-77950109D01*
X68879788Y-77950106D01*
X68879792Y-77950104D01*
X69030104Y-77799792D01*
X69030106Y-77799788D01*
X69030109Y-77799786D01*
X69155048Y-77627820D01*
X69155047Y-77627820D01*
X69155051Y-77627816D01*
X69251557Y-77438412D01*
X69317246Y-77236243D01*
X69350500Y-77026287D01*
X69350500Y-76813713D01*
X69317246Y-76603757D01*
X69251557Y-76401588D01*
X69155051Y-76212184D01*
X69155049Y-76212181D01*
X69155048Y-76212179D01*
X69030109Y-76040213D01*
X68916569Y-75926673D01*
X68883084Y-75865350D01*
X68888068Y-75795658D01*
X68929940Y-75739725D01*
X68960915Y-75722810D01*
X69092331Y-75673796D01*
X69207546Y-75587546D01*
X69293796Y-75472331D01*
X69344091Y-75337483D01*
X69350500Y-75277873D01*
X69350499Y-74367708D01*
X69350499Y-73482129D01*
X69350498Y-73482123D01*
X69350497Y-73482116D01*
X69344353Y-73424951D01*
X69344091Y-73422516D01*
X69293797Y-73287671D01*
X69293793Y-73287664D01*
X69207547Y-73172455D01*
X69207544Y-73172452D01*
X69092335Y-73086206D01*
X69092328Y-73086202D01*
X68957482Y-73035908D01*
X68957483Y-73035908D01*
X68897883Y-73029501D01*
X68897881Y-73029500D01*
X68897873Y-73029500D01*
X68897864Y-73029500D01*
X67102129Y-73029500D01*
X67102123Y-73029501D01*
X67042516Y-73035908D01*
X66907671Y-73086202D01*
X66907664Y-73086206D01*
X66792455Y-73172452D01*
X66792452Y-73172455D01*
X66706206Y-73287664D01*
X66706202Y-73287671D01*
X66655908Y-73422517D01*
X66651038Y-73467820D01*
X66649501Y-73482123D01*
X66649500Y-73482135D01*
X54500500Y-73482135D01*
X54500500Y-69374038D01*
X88399500Y-69374038D01*
X88399500Y-69625962D01*
X88411478Y-69701585D01*
X88438910Y-69874785D01*
X88516760Y-70114383D01*
X88595413Y-70268747D01*
X88624731Y-70326287D01*
X88631132Y-70338848D01*
X88779201Y-70542649D01*
X88779205Y-70542654D01*
X88957345Y-70720794D01*
X88957350Y-70720798D01*
X89111112Y-70832512D01*
X89161155Y-70868870D01*
X89276851Y-70927820D01*
X89385616Y-70983239D01*
X89385618Y-70983239D01*
X89385621Y-70983241D01*
X89625215Y-71061090D01*
X89874038Y-71100500D01*
X89874039Y-71100500D01*
X90125961Y-71100500D01*
X90125962Y-71100500D01*
X90374785Y-71061090D01*
X90614379Y-70983241D01*
X90838845Y-70868870D01*
X91042656Y-70720793D01*
X91220793Y-70542656D01*
X91368870Y-70338845D01*
X91483241Y-70114379D01*
X91561090Y-69874785D01*
X91600500Y-69625962D01*
X91600500Y-69374038D01*
X91561090Y-69125215D01*
X91483241Y-68885621D01*
X91483239Y-68885618D01*
X91483239Y-68885616D01*
X91404724Y-68731522D01*
X91368870Y-68661155D01*
X91339124Y-68620213D01*
X91324425Y-68599982D01*
X98559500Y-68599982D01*
X98559500Y-70400017D01*
X98570000Y-70502796D01*
X98625185Y-70669332D01*
X98625187Y-70669337D01*
X98643210Y-70698556D01*
X98717288Y-70818656D01*
X98841344Y-70942712D01*
X98990665Y-71034814D01*
X99157202Y-71089999D01*
X99259990Y-71100500D01*
X99259995Y-71100500D01*
X101060005Y-71100500D01*
X101060010Y-71100500D01*
X101162798Y-71089999D01*
X101329335Y-71034814D01*
X101478656Y-70942712D01*
X101602712Y-70818656D01*
X101694814Y-70669335D01*
X101749999Y-70502798D01*
X101760500Y-70400010D01*
X101760500Y-68599990D01*
X101750248Y-68499635D01*
X117999500Y-68499635D01*
X117999500Y-70500370D01*
X117999501Y-70500376D01*
X118005908Y-70559983D01*
X118056202Y-70694828D01*
X118056206Y-70694835D01*
X118142452Y-70810044D01*
X118142455Y-70810047D01*
X118257664Y-70896293D01*
X118257669Y-70896296D01*
X118285539Y-70906690D01*
X118341473Y-70948561D01*
X118365891Y-71014024D01*
X118351040Y-71082298D01*
X118342526Y-71095756D01*
X118312212Y-71137480D01*
X118209783Y-71278461D01*
X118105950Y-71482244D01*
X118035278Y-71699750D01*
X118035278Y-71699753D01*
X117999500Y-71925646D01*
X117999500Y-72154353D01*
X118035278Y-72380246D01*
X118035278Y-72380249D01*
X118105950Y-72597755D01*
X118105952Y-72597758D01*
X118209783Y-72801538D01*
X118344214Y-72986566D01*
X118505934Y-73148286D01*
X118590864Y-73209991D01*
X118633529Y-73265321D01*
X118639508Y-73334935D01*
X118606902Y-73396730D01*
X118590864Y-73410627D01*
X118506257Y-73472097D01*
X118344597Y-73633757D01*
X118210211Y-73818723D01*
X118106417Y-74022429D01*
X118035765Y-74239871D01*
X118021491Y-74330000D01*
X119009252Y-74330000D01*
X118987482Y-74367708D01*
X118950000Y-74507591D01*
X118950000Y-74652409D01*
X118987482Y-74792292D01*
X119009252Y-74830000D01*
X118021491Y-74830000D01*
X118035765Y-74920128D01*
X118106417Y-75137570D01*
X118210211Y-75341276D01*
X118344597Y-75526242D01*
X118506257Y-75687902D01*
X118691223Y-75822288D01*
X118894929Y-75926082D01*
X119112371Y-75996734D01*
X119250000Y-76018532D01*
X119250000Y-75070747D01*
X119287708Y-75092518D01*
X119427591Y-75130000D01*
X119572409Y-75130000D01*
X119712292Y-75092518D01*
X119750000Y-75070747D01*
X119750000Y-76018531D01*
X119887628Y-75996734D01*
X120105070Y-75926082D01*
X120308776Y-75822288D01*
X120493742Y-75687902D01*
X120655402Y-75526242D01*
X120789788Y-75341276D01*
X120893582Y-75137570D01*
X120964234Y-74920128D01*
X120978509Y-74830000D01*
X119990748Y-74830000D01*
X120012518Y-74792292D01*
X120050000Y-74652409D01*
X120050000Y-74507591D01*
X120012518Y-74367708D01*
X119990748Y-74330000D01*
X120978509Y-74330000D01*
X120964234Y-74239871D01*
X120893582Y-74022429D01*
X120789788Y-73818723D01*
X120655402Y-73633757D01*
X120493742Y-73472097D01*
X120409135Y-73410626D01*
X120366470Y-73355296D01*
X120360491Y-73285682D01*
X120393097Y-73223887D01*
X120409125Y-73209999D01*
X120494066Y-73148286D01*
X120655786Y-72986566D01*
X120790217Y-72801538D01*
X120894048Y-72597758D01*
X120964722Y-72380245D01*
X121000500Y-72154354D01*
X121000500Y-71925646D01*
X120964722Y-71699755D01*
X120964721Y-71699751D01*
X120964721Y-71699750D01*
X120894049Y-71482244D01*
X120861598Y-71418556D01*
X120790217Y-71278462D01*
X120657472Y-71095755D01*
X120633994Y-71029953D01*
X120649819Y-70961899D01*
X120699925Y-70913204D01*
X120714455Y-70906692D01*
X120742331Y-70896296D01*
X120857546Y-70810046D01*
X120943796Y-70694831D01*
X120994091Y-70559983D01*
X121000500Y-70500373D01*
X121000499Y-69897648D01*
X136579500Y-69897648D01*
X136579500Y-70102352D01*
X136581405Y-70114379D01*
X136611522Y-70304534D01*
X136674781Y-70499223D01*
X136738691Y-70624653D01*
X136754180Y-70655051D01*
X136767715Y-70681613D01*
X136888028Y-70847213D01*
X137032786Y-70991971D01*
X137167713Y-71089999D01*
X137198390Y-71112287D01*
X137292440Y-71160208D01*
X137380776Y-71205218D01*
X137380778Y-71205218D01*
X137380781Y-71205220D01*
X137485137Y-71239127D01*
X137575465Y-71268477D01*
X137676557Y-71284488D01*
X137777648Y-71300500D01*
X137777649Y-71300500D01*
X137982351Y-71300500D01*
X137982352Y-71300500D01*
X138184534Y-71268477D01*
X138379219Y-71205220D01*
X138561610Y-71112287D01*
X138696859Y-71014024D01*
X138727213Y-70991971D01*
X138727215Y-70991968D01*
X138727219Y-70991966D01*
X138871966Y-70847219D01*
X138871968Y-70847215D01*
X138871971Y-70847213D01*
X138941468Y-70751557D01*
X138992287Y-70681610D01*
X139084627Y-70500383D01*
X139085218Y-70499223D01*
X139085218Y-70499222D01*
X139085220Y-70499219D01*
X139148477Y-70304534D01*
X139180500Y-70102352D01*
X139180500Y-69897648D01*
X144199500Y-69897648D01*
X144199500Y-70102352D01*
X144201405Y-70114379D01*
X144231522Y-70304534D01*
X144294781Y-70499223D01*
X144358691Y-70624653D01*
X144374180Y-70655051D01*
X144387715Y-70681613D01*
X144508028Y-70847213D01*
X144652786Y-70991971D01*
X144787713Y-71089999D01*
X144818390Y-71112287D01*
X144912440Y-71160208D01*
X145000776Y-71205218D01*
X145000778Y-71205218D01*
X145000781Y-71205220D01*
X145105137Y-71239127D01*
X145195465Y-71268477D01*
X145296557Y-71284488D01*
X145397648Y-71300500D01*
X145397649Y-71300500D01*
X145602351Y-71300500D01*
X145602352Y-71300500D01*
X145804534Y-71268477D01*
X145999219Y-71205220D01*
X146181610Y-71112287D01*
X146316859Y-71014024D01*
X146347213Y-70991971D01*
X146347215Y-70991968D01*
X146347219Y-70991966D01*
X146491966Y-70847219D01*
X146491968Y-70847215D01*
X146491971Y-70847213D01*
X146561468Y-70751557D01*
X146612287Y-70681610D01*
X146704627Y-70500383D01*
X146705218Y-70499223D01*
X146705218Y-70499222D01*
X146705220Y-70499219D01*
X146768477Y-70304534D01*
X146800500Y-70102352D01*
X146800500Y-69897648D01*
X146768477Y-69695466D01*
X146745893Y-69625961D01*
X146708925Y-69512184D01*
X146705220Y-69500781D01*
X146705218Y-69500778D01*
X146705218Y-69500776D01*
X146623406Y-69340213D01*
X146612287Y-69318390D01*
X146604556Y-69307749D01*
X146491971Y-69152786D01*
X146347213Y-69008028D01*
X146181613Y-68887715D01*
X146181612Y-68887714D01*
X146181610Y-68887713D01*
X146124653Y-68858691D01*
X145999223Y-68794781D01*
X145804534Y-68731522D01*
X145629995Y-68703878D01*
X145602352Y-68699500D01*
X145397648Y-68699500D01*
X145373329Y-68703351D01*
X145195465Y-68731522D01*
X145000776Y-68794781D01*
X144818386Y-68887715D01*
X144652786Y-69008028D01*
X144508028Y-69152786D01*
X144387715Y-69318386D01*
X144294781Y-69500776D01*
X144231522Y-69695465D01*
X144212394Y-69816239D01*
X144199500Y-69897648D01*
X139180500Y-69897648D01*
X139148477Y-69695466D01*
X139125893Y-69625961D01*
X139088925Y-69512184D01*
X139085220Y-69500781D01*
X139085218Y-69500778D01*
X139085218Y-69500776D01*
X139003406Y-69340213D01*
X138992287Y-69318390D01*
X138984556Y-69307749D01*
X138871971Y-69152786D01*
X138727213Y-69008028D01*
X138561613Y-68887715D01*
X138561612Y-68887714D01*
X138561610Y-68887713D01*
X138504653Y-68858691D01*
X138379223Y-68794781D01*
X138184534Y-68731522D01*
X138009995Y-68703878D01*
X137982352Y-68699500D01*
X137777648Y-68699500D01*
X137753329Y-68703351D01*
X137575465Y-68731522D01*
X137380776Y-68794781D01*
X137198386Y-68887715D01*
X137032786Y-69008028D01*
X136888028Y-69152786D01*
X136767715Y-69318386D01*
X136674781Y-69500776D01*
X136611522Y-69695465D01*
X136592394Y-69816239D01*
X136579500Y-69897648D01*
X121000499Y-69897648D01*
X121000499Y-69461726D01*
X121000499Y-68499629D01*
X121000498Y-68499623D01*
X121000497Y-68499616D01*
X120994091Y-68440017D01*
X120956862Y-68340202D01*
X120943797Y-68305171D01*
X120943793Y-68305164D01*
X120857547Y-68189955D01*
X120857544Y-68189952D01*
X120742335Y-68103706D01*
X120742328Y-68103702D01*
X120607482Y-68053408D01*
X120607483Y-68053408D01*
X120547883Y-68047001D01*
X120547881Y-68047000D01*
X120547873Y-68047000D01*
X120547864Y-68047000D01*
X118452129Y-68047000D01*
X118452123Y-68047001D01*
X118392516Y-68053408D01*
X118257671Y-68103702D01*
X118257664Y-68103706D01*
X118142455Y-68189952D01*
X118142452Y-68189955D01*
X118056206Y-68305164D01*
X118056202Y-68305171D01*
X118005908Y-68440017D01*
X117999501Y-68499616D01*
X117999501Y-68499623D01*
X117999500Y-68499635D01*
X101750248Y-68499635D01*
X101749999Y-68497202D01*
X101694814Y-68330665D01*
X101602712Y-68181344D01*
X101478656Y-68057288D01*
X101329335Y-67965186D01*
X101162798Y-67910001D01*
X101162796Y-67910000D01*
X101060017Y-67899500D01*
X101060010Y-67899500D01*
X99259990Y-67899500D01*
X99259982Y-67899500D01*
X99157203Y-67910000D01*
X99157202Y-67910001D01*
X99074669Y-67937349D01*
X98990667Y-67965185D01*
X98990662Y-67965187D01*
X98841342Y-68057289D01*
X98717289Y-68181342D01*
X98625187Y-68330662D01*
X98625185Y-68330667D01*
X98597349Y-68414669D01*
X98570001Y-68497202D01*
X98570001Y-68497203D01*
X98570000Y-68497203D01*
X98559500Y-68599982D01*
X91324425Y-68599982D01*
X91220798Y-68457350D01*
X91220794Y-68457345D01*
X91042654Y-68279205D01*
X91042649Y-68279201D01*
X90838848Y-68131132D01*
X90838847Y-68131131D01*
X90838845Y-68131130D01*
X90768747Y-68095413D01*
X90614383Y-68016760D01*
X90374785Y-67938910D01*
X90125962Y-67899500D01*
X89874038Y-67899500D01*
X89807738Y-67910001D01*
X89625214Y-67938910D01*
X89385616Y-68016760D01*
X89161151Y-68131132D01*
X88957350Y-68279201D01*
X88957345Y-68279205D01*
X88779205Y-68457345D01*
X88779201Y-68457350D01*
X88631132Y-68661151D01*
X88516760Y-68885616D01*
X88438910Y-69125214D01*
X88408314Y-69318386D01*
X88399500Y-69374038D01*
X54500500Y-69374038D01*
X54500500Y-66782135D01*
X158649500Y-66782135D01*
X158649500Y-68577870D01*
X158649501Y-68577876D01*
X158655908Y-68637483D01*
X158706202Y-68772328D01*
X158706206Y-68772335D01*
X158792452Y-68887544D01*
X158792455Y-68887547D01*
X158907664Y-68973793D01*
X158907671Y-68973797D01*
X159039082Y-69022810D01*
X159095016Y-69064681D01*
X159119433Y-69130145D01*
X159104582Y-69198418D01*
X159083431Y-69226673D01*
X158969889Y-69340215D01*
X158844951Y-69512179D01*
X158748444Y-69701585D01*
X158682753Y-69903760D01*
X158664594Y-70018412D01*
X158649500Y-70113713D01*
X158649500Y-70326287D01*
X158657973Y-70379786D01*
X158681781Y-70530104D01*
X158682754Y-70536243D01*
X158742718Y-70720793D01*
X158748444Y-70738414D01*
X158844951Y-70927820D01*
X158969890Y-71099786D01*
X159120213Y-71250109D01*
X159292182Y-71375050D01*
X159300946Y-71379516D01*
X159351742Y-71427491D01*
X159368536Y-71495312D01*
X159345998Y-71561447D01*
X159300946Y-71600484D01*
X159292182Y-71604949D01*
X159120213Y-71729890D01*
X158969890Y-71880213D01*
X158844951Y-72052179D01*
X158748444Y-72241585D01*
X158682753Y-72443760D01*
X158649500Y-72653713D01*
X158649500Y-72866286D01*
X158681781Y-73070104D01*
X158682754Y-73076243D01*
X158744189Y-73265321D01*
X158748444Y-73278414D01*
X158844951Y-73467820D01*
X158969890Y-73639786D01*
X159120213Y-73790109D01*
X159292182Y-73915050D01*
X159300946Y-73919516D01*
X159351742Y-73967491D01*
X159368536Y-74035312D01*
X159345998Y-74101447D01*
X159300946Y-74140484D01*
X159292182Y-74144949D01*
X159120213Y-74269890D01*
X158969890Y-74420213D01*
X158844951Y-74592179D01*
X158748444Y-74781585D01*
X158682753Y-74983760D01*
X158649500Y-75193713D01*
X158649500Y-75406286D01*
X158681781Y-75610104D01*
X158682754Y-75616243D01*
X158722807Y-75739514D01*
X158748444Y-75818414D01*
X158844951Y-76007820D01*
X158969890Y-76179786D01*
X159120213Y-76330109D01*
X159292182Y-76455050D01*
X159300946Y-76459516D01*
X159351742Y-76507491D01*
X159368536Y-76575312D01*
X159345998Y-76641447D01*
X159300946Y-76680484D01*
X159292182Y-76684949D01*
X159120213Y-76809890D01*
X158969890Y-76960213D01*
X158844951Y-77132179D01*
X158748444Y-77321585D01*
X158682753Y-77523760D01*
X158649500Y-77733713D01*
X158649500Y-77946286D01*
X158681781Y-78150104D01*
X158682754Y-78156243D01*
X158731072Y-78304951D01*
X158748444Y-78358414D01*
X158844951Y-78547820D01*
X158969890Y-78719786D01*
X159120213Y-78870109D01*
X159292182Y-78995050D01*
X159300946Y-78999516D01*
X159351742Y-79047491D01*
X159368536Y-79115312D01*
X159345998Y-79181447D01*
X159300946Y-79220484D01*
X159292182Y-79224949D01*
X159120213Y-79349890D01*
X158969890Y-79500213D01*
X158844951Y-79672179D01*
X158748444Y-79861585D01*
X158682753Y-80063760D01*
X158649500Y-80273713D01*
X158649500Y-80486286D01*
X158681781Y-80690104D01*
X158682754Y-80696243D01*
X158731809Y-80847219D01*
X158748444Y-80898414D01*
X158844951Y-81087820D01*
X158969890Y-81259786D01*
X159120213Y-81410109D01*
X159292182Y-81535050D01*
X159300946Y-81539516D01*
X159351742Y-81587491D01*
X159368536Y-81655312D01*
X159345998Y-81721447D01*
X159300946Y-81760484D01*
X159292182Y-81764949D01*
X159120213Y-81889890D01*
X158969890Y-82040213D01*
X158844951Y-82212179D01*
X158748444Y-82401585D01*
X158682753Y-82603760D01*
X158649500Y-82813713D01*
X158649500Y-83026286D01*
X158681781Y-83230104D01*
X158682754Y-83236243D01*
X158738485Y-83407766D01*
X158748444Y-83438414D01*
X158844951Y-83627820D01*
X158969890Y-83799786D01*
X159120213Y-83950109D01*
X159292182Y-84075050D01*
X159300946Y-84079516D01*
X159351742Y-84127491D01*
X159368536Y-84195312D01*
X159345998Y-84261447D01*
X159300946Y-84300484D01*
X159292182Y-84304949D01*
X159120213Y-84429890D01*
X158969890Y-84580213D01*
X158844951Y-84752179D01*
X158748444Y-84941585D01*
X158682753Y-85143760D01*
X158649500Y-85353713D01*
X158649500Y-85566286D01*
X158670601Y-85699516D01*
X158682754Y-85776243D01*
X158743355Y-85962754D01*
X158748444Y-85978414D01*
X158844951Y-86167820D01*
X158969890Y-86339786D01*
X159120213Y-86490109D01*
X159292182Y-86615050D01*
X159300946Y-86619516D01*
X159351742Y-86667491D01*
X159368536Y-86735312D01*
X159345998Y-86801447D01*
X159300946Y-86840484D01*
X159292182Y-86844949D01*
X159120213Y-86969890D01*
X158969890Y-87120213D01*
X158844951Y-87292179D01*
X158748444Y-87481585D01*
X158682753Y-87683760D01*
X158649500Y-87893713D01*
X158649500Y-88106286D01*
X158681781Y-88310104D01*
X158682754Y-88316243D01*
X158731072Y-88464951D01*
X158748444Y-88518414D01*
X158844951Y-88707820D01*
X158969890Y-88879786D01*
X159120213Y-89030109D01*
X159292182Y-89155050D01*
X159300946Y-89159516D01*
X159351742Y-89207491D01*
X159368536Y-89275312D01*
X159345998Y-89341447D01*
X159300946Y-89380484D01*
X159292182Y-89384949D01*
X159120213Y-89509890D01*
X158969890Y-89660213D01*
X158844951Y-89832179D01*
X158748444Y-90021585D01*
X158682753Y-90223760D01*
X158649500Y-90433713D01*
X158649500Y-90646286D01*
X158681781Y-90850104D01*
X158682754Y-90856243D01*
X158731072Y-91004951D01*
X158748444Y-91058414D01*
X158844951Y-91247820D01*
X158969890Y-91419786D01*
X159120213Y-91570109D01*
X159292182Y-91695050D01*
X159300946Y-91699516D01*
X159351742Y-91747491D01*
X159368536Y-91815312D01*
X159345998Y-91881447D01*
X159300946Y-91920484D01*
X159292182Y-91924949D01*
X159120213Y-92049890D01*
X158969890Y-92200213D01*
X158844951Y-92372179D01*
X158748444Y-92561585D01*
X158682753Y-92763760D01*
X158649500Y-92973713D01*
X158649500Y-93186286D01*
X158681781Y-93390104D01*
X158682754Y-93396243D01*
X158731072Y-93544951D01*
X158748444Y-93598414D01*
X158844951Y-93787820D01*
X158969890Y-93959786D01*
X159120213Y-94110109D01*
X159292182Y-94235050D01*
X159300946Y-94239516D01*
X159351742Y-94287491D01*
X159368536Y-94355312D01*
X159345998Y-94421447D01*
X159300946Y-94460484D01*
X159292182Y-94464949D01*
X159120213Y-94589890D01*
X158969890Y-94740213D01*
X158844951Y-94912179D01*
X158748444Y-95101585D01*
X158682753Y-95303760D01*
X158649500Y-95513713D01*
X158649500Y-95726286D01*
X158670601Y-95859516D01*
X158682754Y-95936243D01*
X158738298Y-96107190D01*
X158748444Y-96138414D01*
X158844951Y-96327820D01*
X158969890Y-96499786D01*
X159120213Y-96650109D01*
X159292182Y-96775050D01*
X159300946Y-96779516D01*
X159351742Y-96827491D01*
X159368536Y-96895312D01*
X159345998Y-96961447D01*
X159300946Y-97000484D01*
X159292182Y-97004949D01*
X159120213Y-97129890D01*
X158969890Y-97280213D01*
X158844951Y-97452179D01*
X158748444Y-97641585D01*
X158682753Y-97843760D01*
X158658450Y-97997203D01*
X158649500Y-98053713D01*
X158649500Y-98266287D01*
X158682754Y-98476243D01*
X158731158Y-98625215D01*
X158748444Y-98678414D01*
X158844951Y-98867820D01*
X158969890Y-99039786D01*
X159120213Y-99190109D01*
X159292182Y-99315050D01*
X159300946Y-99319516D01*
X159351742Y-99367491D01*
X159368536Y-99435312D01*
X159345998Y-99501447D01*
X159300946Y-99540484D01*
X159292182Y-99544949D01*
X159120213Y-99669890D01*
X158969890Y-99820213D01*
X158844951Y-99992179D01*
X158748444Y-100181585D01*
X158682753Y-100383760D01*
X158649500Y-100593713D01*
X158649500Y-100806286D01*
X158678053Y-100986567D01*
X158682754Y-101016243D01*
X158745706Y-101209989D01*
X158748444Y-101218414D01*
X158844951Y-101407820D01*
X158969890Y-101579786D01*
X159120213Y-101730109D01*
X159292182Y-101855050D01*
X159300946Y-101859516D01*
X159351742Y-101907491D01*
X159368536Y-101975312D01*
X159345998Y-102041447D01*
X159300946Y-102080484D01*
X159292182Y-102084949D01*
X159120213Y-102209890D01*
X158969890Y-102360213D01*
X158844951Y-102532179D01*
X158748444Y-102721585D01*
X158682753Y-102923760D01*
X158649500Y-103133713D01*
X158649500Y-103346286D01*
X158682753Y-103556239D01*
X158748444Y-103758414D01*
X158844951Y-103947820D01*
X158969890Y-104119786D01*
X159120213Y-104270109D01*
X159292179Y-104395048D01*
X159292181Y-104395049D01*
X159292184Y-104395051D01*
X159481588Y-104491557D01*
X159683757Y-104557246D01*
X159893713Y-104590500D01*
X159893714Y-104590500D01*
X160106286Y-104590500D01*
X160106287Y-104590500D01*
X160316243Y-104557246D01*
X160518412Y-104491557D01*
X160707816Y-104395051D01*
X160729789Y-104379086D01*
X160879786Y-104270109D01*
X160879788Y-104270106D01*
X160879792Y-104270104D01*
X161030104Y-104119792D01*
X161030106Y-104119788D01*
X161030109Y-104119786D01*
X161155048Y-103947820D01*
X161155047Y-103947820D01*
X161155051Y-103947816D01*
X161251557Y-103758412D01*
X161317246Y-103556243D01*
X161350500Y-103346287D01*
X161350500Y-103133713D01*
X161317246Y-102923757D01*
X161251557Y-102721588D01*
X161155051Y-102532184D01*
X161155049Y-102532181D01*
X161155048Y-102532179D01*
X161030109Y-102360213D01*
X160879786Y-102209890D01*
X160707820Y-102084951D01*
X160707115Y-102084591D01*
X160699054Y-102080485D01*
X160648259Y-102032512D01*
X160631463Y-101964692D01*
X160653999Y-101898556D01*
X160699054Y-101859515D01*
X160707816Y-101855051D01*
X160757818Y-101818723D01*
X160879786Y-101730109D01*
X160879788Y-101730106D01*
X160879792Y-101730104D01*
X161030104Y-101579792D01*
X161030106Y-101579788D01*
X161030109Y-101579786D01*
X161155048Y-101407820D01*
X161155047Y-101407820D01*
X161155051Y-101407816D01*
X161251557Y-101218412D01*
X161317246Y-101016243D01*
X161350500Y-100806287D01*
X161350500Y-100593713D01*
X161317246Y-100383757D01*
X161251557Y-100181588D01*
X161155051Y-99992184D01*
X161155049Y-99992181D01*
X161155048Y-99992179D01*
X161030109Y-99820213D01*
X160879786Y-99669890D01*
X160707820Y-99544951D01*
X160707115Y-99544591D01*
X160699054Y-99540485D01*
X160648259Y-99492512D01*
X160631463Y-99424692D01*
X160653999Y-99358556D01*
X160699054Y-99319515D01*
X160707816Y-99315051D01*
X160758178Y-99278461D01*
X160879786Y-99190109D01*
X160879788Y-99190106D01*
X160879792Y-99190104D01*
X161030104Y-99039792D01*
X161030106Y-99039788D01*
X161030109Y-99039786D01*
X161155048Y-98867820D01*
X161155047Y-98867820D01*
X161155051Y-98867816D01*
X161251557Y-98678412D01*
X161317246Y-98476243D01*
X161350500Y-98266287D01*
X161350500Y-98053713D01*
X161317246Y-97843757D01*
X161251557Y-97641588D01*
X161155051Y-97452184D01*
X161155049Y-97452181D01*
X161155048Y-97452179D01*
X161030109Y-97280213D01*
X160879786Y-97129890D01*
X160707820Y-97004951D01*
X160707115Y-97004591D01*
X160699054Y-97000485D01*
X160648259Y-96952512D01*
X160631463Y-96884692D01*
X160653999Y-96818556D01*
X160699054Y-96779515D01*
X160707816Y-96775051D01*
X160781406Y-96721585D01*
X160879786Y-96650109D01*
X160879788Y-96650106D01*
X160879792Y-96650104D01*
X161030104Y-96499792D01*
X161030106Y-96499788D01*
X161030109Y-96499786D01*
X161155048Y-96327820D01*
X161155047Y-96327820D01*
X161155051Y-96327816D01*
X161251557Y-96138412D01*
X161317246Y-95936243D01*
X161350500Y-95726287D01*
X161350500Y-95513713D01*
X161317246Y-95303757D01*
X161251557Y-95101588D01*
X161155051Y-94912184D01*
X161155049Y-94912181D01*
X161155048Y-94912179D01*
X161030109Y-94740213D01*
X160879786Y-94589890D01*
X160707820Y-94464951D01*
X160707115Y-94464591D01*
X160699054Y-94460485D01*
X160648259Y-94412512D01*
X160631463Y-94344692D01*
X160653999Y-94278556D01*
X160699054Y-94239515D01*
X160707816Y-94235051D01*
X160781406Y-94181585D01*
X160879786Y-94110109D01*
X160879788Y-94110106D01*
X160879792Y-94110104D01*
X161030104Y-93959792D01*
X161030106Y-93959788D01*
X161030109Y-93959786D01*
X161155048Y-93787820D01*
X161155047Y-93787820D01*
X161155051Y-93787816D01*
X161251557Y-93598412D01*
X161317246Y-93396243D01*
X161350500Y-93186287D01*
X161350500Y-92973713D01*
X161317246Y-92763757D01*
X161251557Y-92561588D01*
X161155051Y-92372184D01*
X161155049Y-92372181D01*
X161155048Y-92372179D01*
X161030109Y-92200213D01*
X160879786Y-92049890D01*
X160707820Y-91924951D01*
X160707115Y-91924591D01*
X160699054Y-91920485D01*
X160648259Y-91872512D01*
X160631463Y-91804692D01*
X160653999Y-91738556D01*
X160699054Y-91699515D01*
X160707816Y-91695051D01*
X160781406Y-91641585D01*
X160879786Y-91570109D01*
X160879788Y-91570106D01*
X160879792Y-91570104D01*
X161030104Y-91419792D01*
X161030106Y-91419788D01*
X161030109Y-91419786D01*
X161155048Y-91247820D01*
X161155047Y-91247820D01*
X161155051Y-91247816D01*
X161251557Y-91058412D01*
X161317246Y-90856243D01*
X161350500Y-90646287D01*
X161350500Y-90433713D01*
X161317246Y-90223757D01*
X161251557Y-90021588D01*
X161155051Y-89832184D01*
X161155049Y-89832181D01*
X161155048Y-89832179D01*
X161030109Y-89660213D01*
X160879786Y-89509890D01*
X160707820Y-89384951D01*
X160707115Y-89384591D01*
X160699054Y-89380485D01*
X160648259Y-89332512D01*
X160631463Y-89264692D01*
X160653999Y-89198556D01*
X160699054Y-89159515D01*
X160707816Y-89155051D01*
X160781406Y-89101585D01*
X160879786Y-89030109D01*
X160879788Y-89030106D01*
X160879792Y-89030104D01*
X161030104Y-88879792D01*
X161030106Y-88879788D01*
X161030109Y-88879786D01*
X161155048Y-88707820D01*
X161155047Y-88707820D01*
X161155051Y-88707816D01*
X161251557Y-88518412D01*
X161317246Y-88316243D01*
X161350500Y-88106287D01*
X161350500Y-87893713D01*
X161317246Y-87683757D01*
X161251557Y-87481588D01*
X161155051Y-87292184D01*
X161155049Y-87292181D01*
X161155048Y-87292179D01*
X161030109Y-87120213D01*
X160879786Y-86969890D01*
X160707820Y-86844951D01*
X160707115Y-86844591D01*
X160699054Y-86840485D01*
X160648259Y-86792512D01*
X160631463Y-86724692D01*
X160653999Y-86658556D01*
X160699054Y-86619515D01*
X160707816Y-86615051D01*
X160781406Y-86561585D01*
X160879786Y-86490109D01*
X160879788Y-86490106D01*
X160879792Y-86490104D01*
X161030104Y-86339792D01*
X161030106Y-86339788D01*
X161030109Y-86339786D01*
X161155048Y-86167820D01*
X161155047Y-86167820D01*
X161155051Y-86167816D01*
X161251557Y-85978412D01*
X161317246Y-85776243D01*
X161350500Y-85566287D01*
X161350500Y-85353713D01*
X161317246Y-85143757D01*
X161251557Y-84941588D01*
X161155051Y-84752184D01*
X161155049Y-84752181D01*
X161155048Y-84752179D01*
X161030109Y-84580213D01*
X160879786Y-84429890D01*
X160707820Y-84304951D01*
X160707115Y-84304591D01*
X160699054Y-84300485D01*
X160648259Y-84252512D01*
X160631463Y-84184692D01*
X160653999Y-84118556D01*
X160699054Y-84079515D01*
X160707816Y-84075051D01*
X160781406Y-84021585D01*
X160879786Y-83950109D01*
X160879788Y-83950106D01*
X160879792Y-83950104D01*
X161030104Y-83799792D01*
X161030106Y-83799788D01*
X161030109Y-83799786D01*
X161155048Y-83627820D01*
X161155047Y-83627820D01*
X161155051Y-83627816D01*
X161251557Y-83438412D01*
X161317246Y-83236243D01*
X161350500Y-83026287D01*
X161350500Y-82813713D01*
X161317246Y-82603757D01*
X161251557Y-82401588D01*
X161155051Y-82212184D01*
X161155049Y-82212181D01*
X161155048Y-82212179D01*
X161030109Y-82040213D01*
X160879786Y-81889890D01*
X160707820Y-81764951D01*
X160707115Y-81764591D01*
X160699054Y-81760485D01*
X160648259Y-81712512D01*
X160631463Y-81644692D01*
X160653999Y-81578556D01*
X160699054Y-81539515D01*
X160707816Y-81535051D01*
X160781406Y-81481585D01*
X160879786Y-81410109D01*
X160879788Y-81410106D01*
X160879792Y-81410104D01*
X161030104Y-81259792D01*
X161030106Y-81259788D01*
X161030109Y-81259786D01*
X161155048Y-81087820D01*
X161155047Y-81087820D01*
X161155051Y-81087816D01*
X161251557Y-80898412D01*
X161317246Y-80696243D01*
X161350500Y-80486287D01*
X161350500Y-80273713D01*
X161317246Y-80063757D01*
X161251557Y-79861588D01*
X161155051Y-79672184D01*
X161155049Y-79672181D01*
X161155048Y-79672179D01*
X161030109Y-79500213D01*
X160879786Y-79349890D01*
X160707820Y-79224951D01*
X160707115Y-79224591D01*
X160699054Y-79220485D01*
X160648259Y-79172512D01*
X160631463Y-79104692D01*
X160653999Y-79038556D01*
X160699054Y-78999515D01*
X160707816Y-78995051D01*
X160781406Y-78941585D01*
X160879786Y-78870109D01*
X160879788Y-78870106D01*
X160879792Y-78870104D01*
X161030104Y-78719792D01*
X161030106Y-78719788D01*
X161030109Y-78719786D01*
X161155048Y-78547820D01*
X161155047Y-78547820D01*
X161155051Y-78547816D01*
X161251557Y-78358412D01*
X161317246Y-78156243D01*
X161350500Y-77946287D01*
X161350500Y-77733713D01*
X161317246Y-77523757D01*
X161251557Y-77321588D01*
X161155051Y-77132184D01*
X161155049Y-77132181D01*
X161155048Y-77132179D01*
X161030109Y-76960213D01*
X160879786Y-76809890D01*
X160707820Y-76684951D01*
X160707115Y-76684591D01*
X160699054Y-76680485D01*
X160648259Y-76632512D01*
X160631463Y-76564692D01*
X160653999Y-76498556D01*
X160699054Y-76459515D01*
X160707816Y-76455051D01*
X160781406Y-76401585D01*
X160879786Y-76330109D01*
X160879788Y-76330106D01*
X160879792Y-76330104D01*
X161030104Y-76179792D01*
X161030106Y-76179788D01*
X161030109Y-76179786D01*
X161155048Y-76007820D01*
X161155047Y-76007820D01*
X161155051Y-76007816D01*
X161251557Y-75818412D01*
X161317246Y-75616243D01*
X161350500Y-75406287D01*
X161350500Y-75193713D01*
X161317246Y-74983757D01*
X161251557Y-74781588D01*
X161155051Y-74592184D01*
X161155049Y-74592181D01*
X161155048Y-74592179D01*
X161030109Y-74420213D01*
X160879786Y-74269890D01*
X160707820Y-74144951D01*
X160707115Y-74144591D01*
X160699054Y-74140485D01*
X160648259Y-74092512D01*
X160631463Y-74024692D01*
X160653999Y-73958556D01*
X160699054Y-73919515D01*
X160707816Y-73915051D01*
X160766825Y-73872179D01*
X160879786Y-73790109D01*
X160879788Y-73790106D01*
X160879792Y-73790104D01*
X161030104Y-73639792D01*
X161030106Y-73639788D01*
X161030109Y-73639786D01*
X161144653Y-73482128D01*
X161155051Y-73467816D01*
X161251557Y-73278412D01*
X161317246Y-73076243D01*
X161350500Y-72866287D01*
X161350500Y-72653713D01*
X161317246Y-72443757D01*
X161251557Y-72241588D01*
X161155051Y-72052184D01*
X161155049Y-72052181D01*
X161155048Y-72052179D01*
X161030109Y-71880213D01*
X160879786Y-71729890D01*
X160707820Y-71604951D01*
X160707115Y-71604591D01*
X160699054Y-71600485D01*
X160648259Y-71552512D01*
X160631463Y-71484692D01*
X160653999Y-71418556D01*
X160699054Y-71379515D01*
X160707816Y-71375051D01*
X160766825Y-71332179D01*
X160879786Y-71250109D01*
X160879788Y-71250106D01*
X160879792Y-71250104D01*
X161030104Y-71099792D01*
X161030106Y-71099788D01*
X161030109Y-71099786D01*
X161155048Y-70927820D01*
X161155047Y-70927820D01*
X161155051Y-70927816D01*
X161251557Y-70738412D01*
X161317246Y-70536243D01*
X161350500Y-70326287D01*
X161350500Y-70113713D01*
X161317246Y-69903757D01*
X161251557Y-69701588D01*
X161155051Y-69512184D01*
X161155049Y-69512181D01*
X161155048Y-69512179D01*
X161030109Y-69340213D01*
X160916569Y-69226673D01*
X160883084Y-69165350D01*
X160888068Y-69095658D01*
X160929940Y-69039725D01*
X160960915Y-69022810D01*
X161092331Y-68973796D01*
X161207546Y-68887546D01*
X161293796Y-68772331D01*
X161344091Y-68637483D01*
X161350500Y-68577873D01*
X161350499Y-66782135D01*
X174149500Y-66782135D01*
X174149500Y-68577870D01*
X174149501Y-68577876D01*
X174155908Y-68637483D01*
X174206202Y-68772328D01*
X174206206Y-68772335D01*
X174292452Y-68887544D01*
X174292455Y-68887547D01*
X174407664Y-68973793D01*
X174407671Y-68973797D01*
X174539082Y-69022810D01*
X174595016Y-69064681D01*
X174619433Y-69130145D01*
X174604582Y-69198418D01*
X174583431Y-69226673D01*
X174469889Y-69340215D01*
X174344951Y-69512179D01*
X174248444Y-69701585D01*
X174182753Y-69903760D01*
X174164594Y-70018412D01*
X174149500Y-70113713D01*
X174149500Y-70326287D01*
X174157973Y-70379786D01*
X174181781Y-70530104D01*
X174182754Y-70536243D01*
X174242718Y-70720793D01*
X174248444Y-70738414D01*
X174344951Y-70927820D01*
X174469890Y-71099786D01*
X174620213Y-71250109D01*
X174792182Y-71375050D01*
X174800946Y-71379516D01*
X174851742Y-71427491D01*
X174868536Y-71495312D01*
X174845998Y-71561447D01*
X174800946Y-71600484D01*
X174792182Y-71604949D01*
X174620213Y-71729890D01*
X174469890Y-71880213D01*
X174344951Y-72052179D01*
X174248444Y-72241585D01*
X174182753Y-72443760D01*
X174149500Y-72653713D01*
X174149500Y-72866286D01*
X174181781Y-73070104D01*
X174182754Y-73076243D01*
X174244189Y-73265321D01*
X174248444Y-73278414D01*
X174344951Y-73467820D01*
X174469890Y-73639786D01*
X174620213Y-73790109D01*
X174792182Y-73915050D01*
X174800946Y-73919516D01*
X174851742Y-73967491D01*
X174868536Y-74035312D01*
X174845998Y-74101447D01*
X174800946Y-74140484D01*
X174792182Y-74144949D01*
X174620213Y-74269890D01*
X174469890Y-74420213D01*
X174344951Y-74592179D01*
X174248444Y-74781585D01*
X174182753Y-74983760D01*
X174149500Y-75193713D01*
X174149500Y-75406286D01*
X174181781Y-75610104D01*
X174182754Y-75616243D01*
X174222807Y-75739514D01*
X174248444Y-75818414D01*
X174344951Y-76007820D01*
X174469890Y-76179786D01*
X174620213Y-76330109D01*
X174792182Y-76455050D01*
X174800946Y-76459516D01*
X174851742Y-76507491D01*
X174868536Y-76575312D01*
X174845998Y-76641447D01*
X174800946Y-76680484D01*
X174792182Y-76684949D01*
X174620213Y-76809890D01*
X174469890Y-76960213D01*
X174344951Y-77132179D01*
X174248444Y-77321585D01*
X174182753Y-77523760D01*
X174149500Y-77733713D01*
X174149500Y-77946286D01*
X174181781Y-78150104D01*
X174182754Y-78156243D01*
X174231072Y-78304951D01*
X174248444Y-78358414D01*
X174344951Y-78547820D01*
X174469890Y-78719786D01*
X174620213Y-78870109D01*
X174792182Y-78995050D01*
X174800946Y-78999516D01*
X174851742Y-79047491D01*
X174868536Y-79115312D01*
X174845998Y-79181447D01*
X174800946Y-79220484D01*
X174792182Y-79224949D01*
X174620213Y-79349890D01*
X174469890Y-79500213D01*
X174344951Y-79672179D01*
X174248444Y-79861585D01*
X174182753Y-80063760D01*
X174149500Y-80273713D01*
X174149500Y-80486286D01*
X174181781Y-80690104D01*
X174182754Y-80696243D01*
X174231809Y-80847219D01*
X174248444Y-80898414D01*
X174344951Y-81087820D01*
X174469890Y-81259786D01*
X174620213Y-81410109D01*
X174792182Y-81535050D01*
X174800946Y-81539516D01*
X174851742Y-81587491D01*
X174868536Y-81655312D01*
X174845998Y-81721447D01*
X174800946Y-81760484D01*
X174792182Y-81764949D01*
X174620213Y-81889890D01*
X174469890Y-82040213D01*
X174344951Y-82212179D01*
X174248444Y-82401585D01*
X174182753Y-82603760D01*
X174149500Y-82813713D01*
X174149500Y-83026286D01*
X174181781Y-83230104D01*
X174182754Y-83236243D01*
X174238485Y-83407766D01*
X174248444Y-83438414D01*
X174344951Y-83627820D01*
X174469890Y-83799786D01*
X174620213Y-83950109D01*
X174792182Y-84075050D01*
X174800946Y-84079516D01*
X174851742Y-84127491D01*
X174868536Y-84195312D01*
X174845998Y-84261447D01*
X174800946Y-84300484D01*
X174792182Y-84304949D01*
X174620213Y-84429890D01*
X174469890Y-84580213D01*
X174344951Y-84752179D01*
X174248444Y-84941585D01*
X174182753Y-85143760D01*
X174149500Y-85353713D01*
X174149500Y-85566286D01*
X174170601Y-85699516D01*
X174182754Y-85776243D01*
X174243355Y-85962754D01*
X174248444Y-85978414D01*
X174344951Y-86167820D01*
X174469890Y-86339786D01*
X174620213Y-86490109D01*
X174792182Y-86615050D01*
X174800946Y-86619516D01*
X174851742Y-86667491D01*
X174868536Y-86735312D01*
X174845998Y-86801447D01*
X174800946Y-86840484D01*
X174792182Y-86844949D01*
X174620213Y-86969890D01*
X174469890Y-87120213D01*
X174344951Y-87292179D01*
X174248444Y-87481585D01*
X174182753Y-87683760D01*
X174149500Y-87893713D01*
X174149500Y-88106286D01*
X174181781Y-88310104D01*
X174182754Y-88316243D01*
X174231072Y-88464951D01*
X174248444Y-88518414D01*
X174344951Y-88707820D01*
X174469890Y-88879786D01*
X174620213Y-89030109D01*
X174792182Y-89155050D01*
X174800946Y-89159516D01*
X174851742Y-89207491D01*
X174868536Y-89275312D01*
X174845998Y-89341447D01*
X174800946Y-89380484D01*
X174792182Y-89384949D01*
X174620213Y-89509890D01*
X174469890Y-89660213D01*
X174344951Y-89832179D01*
X174248444Y-90021585D01*
X174182753Y-90223760D01*
X174149500Y-90433713D01*
X174149500Y-90646286D01*
X174181781Y-90850104D01*
X174182754Y-90856243D01*
X174231072Y-91004951D01*
X174248444Y-91058414D01*
X174344951Y-91247820D01*
X174469890Y-91419786D01*
X174620213Y-91570109D01*
X174792182Y-91695050D01*
X174800946Y-91699516D01*
X174851742Y-91747491D01*
X174868536Y-91815312D01*
X174845998Y-91881447D01*
X174800946Y-91920484D01*
X174792182Y-91924949D01*
X174620213Y-92049890D01*
X174469890Y-92200213D01*
X174344951Y-92372179D01*
X174248444Y-92561585D01*
X174182753Y-92763760D01*
X174149500Y-92973713D01*
X174149500Y-93186286D01*
X174181781Y-93390104D01*
X174182754Y-93396243D01*
X174231072Y-93544951D01*
X174248444Y-93598414D01*
X174344951Y-93787820D01*
X174469890Y-93959786D01*
X174620213Y-94110109D01*
X174792182Y-94235050D01*
X174800946Y-94239516D01*
X174851742Y-94287491D01*
X174868536Y-94355312D01*
X174845998Y-94421447D01*
X174800946Y-94460484D01*
X174792182Y-94464949D01*
X174620213Y-94589890D01*
X174469890Y-94740213D01*
X174344951Y-94912179D01*
X174248444Y-95101585D01*
X174182753Y-95303760D01*
X174149500Y-95513713D01*
X174149500Y-95726286D01*
X174170601Y-95859516D01*
X174182754Y-95936243D01*
X174238298Y-96107190D01*
X174248444Y-96138414D01*
X174344951Y-96327820D01*
X174469890Y-96499786D01*
X174620213Y-96650109D01*
X174792182Y-96775050D01*
X174800946Y-96779516D01*
X174851742Y-96827491D01*
X174868536Y-96895312D01*
X174845998Y-96961447D01*
X174800946Y-97000484D01*
X174792182Y-97004949D01*
X174620213Y-97129890D01*
X174469890Y-97280213D01*
X174344951Y-97452179D01*
X174248444Y-97641585D01*
X174182753Y-97843760D01*
X174158450Y-97997203D01*
X174149500Y-98053713D01*
X174149500Y-98266287D01*
X174182754Y-98476243D01*
X174231158Y-98625215D01*
X174248444Y-98678414D01*
X174344951Y-98867820D01*
X174469890Y-99039786D01*
X174620213Y-99190109D01*
X174792182Y-99315050D01*
X174800946Y-99319516D01*
X174851742Y-99367491D01*
X174868536Y-99435312D01*
X174845998Y-99501447D01*
X174800946Y-99540484D01*
X174792182Y-99544949D01*
X174620213Y-99669890D01*
X174469890Y-99820213D01*
X174344951Y-99992179D01*
X174248444Y-100181585D01*
X174182753Y-100383760D01*
X174149500Y-100593713D01*
X174149500Y-100806286D01*
X174178053Y-100986567D01*
X174182754Y-101016243D01*
X174245706Y-101209989D01*
X174248444Y-101218414D01*
X174344951Y-101407820D01*
X174469890Y-101579786D01*
X174620213Y-101730109D01*
X174792182Y-101855050D01*
X174800946Y-101859516D01*
X174851742Y-101907491D01*
X174868536Y-101975312D01*
X174845998Y-102041447D01*
X174800946Y-102080484D01*
X174792182Y-102084949D01*
X174620213Y-102209890D01*
X174469890Y-102360213D01*
X174344951Y-102532179D01*
X174248444Y-102721585D01*
X174182753Y-102923760D01*
X174149500Y-103133713D01*
X174149500Y-103346286D01*
X174182753Y-103556239D01*
X174248444Y-103758414D01*
X174344951Y-103947820D01*
X174469890Y-104119786D01*
X174620213Y-104270109D01*
X174792179Y-104395048D01*
X174792181Y-104395049D01*
X174792184Y-104395051D01*
X174981588Y-104491557D01*
X175183757Y-104557246D01*
X175393713Y-104590500D01*
X175393714Y-104590500D01*
X175606286Y-104590500D01*
X175606287Y-104590500D01*
X175816243Y-104557246D01*
X176018412Y-104491557D01*
X176207816Y-104395051D01*
X176229789Y-104379086D01*
X176379786Y-104270109D01*
X176379788Y-104270106D01*
X176379792Y-104270104D01*
X176530104Y-104119792D01*
X176530106Y-104119788D01*
X176530109Y-104119786D01*
X176655048Y-103947820D01*
X176655047Y-103947820D01*
X176655051Y-103947816D01*
X176751557Y-103758412D01*
X176817246Y-103556243D01*
X176850500Y-103346287D01*
X176850500Y-103133713D01*
X176817246Y-102923757D01*
X176751557Y-102721588D01*
X176655051Y-102532184D01*
X176655049Y-102532181D01*
X176655048Y-102532179D01*
X176530109Y-102360213D01*
X176379786Y-102209890D01*
X176207820Y-102084951D01*
X176207115Y-102084591D01*
X176199054Y-102080485D01*
X176148259Y-102032512D01*
X176131463Y-101964692D01*
X176153999Y-101898556D01*
X176199054Y-101859515D01*
X176207816Y-101855051D01*
X176257818Y-101818723D01*
X176379786Y-101730109D01*
X176379788Y-101730106D01*
X176379792Y-101730104D01*
X176530104Y-101579792D01*
X176530106Y-101579788D01*
X176530109Y-101579786D01*
X176655048Y-101407820D01*
X176655047Y-101407820D01*
X176655051Y-101407816D01*
X176751557Y-101218412D01*
X176817246Y-101016243D01*
X176850500Y-100806287D01*
X176850500Y-100593713D01*
X176817246Y-100383757D01*
X176751557Y-100181588D01*
X176655051Y-99992184D01*
X176655049Y-99992181D01*
X176655048Y-99992179D01*
X176530109Y-99820213D01*
X176379786Y-99669890D01*
X176207820Y-99544951D01*
X176207115Y-99544591D01*
X176199054Y-99540485D01*
X176148259Y-99492512D01*
X176131463Y-99424692D01*
X176153999Y-99358556D01*
X176199054Y-99319515D01*
X176207816Y-99315051D01*
X176258178Y-99278461D01*
X176379786Y-99190109D01*
X176379788Y-99190106D01*
X176379792Y-99190104D01*
X176530104Y-99039792D01*
X176530106Y-99039788D01*
X176530109Y-99039786D01*
X176655048Y-98867820D01*
X176655047Y-98867820D01*
X176655051Y-98867816D01*
X176751557Y-98678412D01*
X176817246Y-98476243D01*
X176850500Y-98266287D01*
X176850500Y-98053713D01*
X176817246Y-97843757D01*
X176751557Y-97641588D01*
X176655051Y-97452184D01*
X176655049Y-97452181D01*
X176655048Y-97452179D01*
X176530109Y-97280213D01*
X176379786Y-97129890D01*
X176207820Y-97004951D01*
X176207115Y-97004591D01*
X176199054Y-97000485D01*
X176148259Y-96952512D01*
X176131463Y-96884692D01*
X176153999Y-96818556D01*
X176199054Y-96779515D01*
X176207816Y-96775051D01*
X176281406Y-96721585D01*
X176379786Y-96650109D01*
X176379788Y-96650106D01*
X176379792Y-96650104D01*
X176530104Y-96499792D01*
X176530106Y-96499788D01*
X176530109Y-96499786D01*
X176655048Y-96327820D01*
X176655047Y-96327820D01*
X176655051Y-96327816D01*
X176751557Y-96138412D01*
X176817246Y-95936243D01*
X176850500Y-95726287D01*
X176850500Y-95513713D01*
X176817246Y-95303757D01*
X176751557Y-95101588D01*
X176655051Y-94912184D01*
X176655049Y-94912181D01*
X176655048Y-94912179D01*
X176530109Y-94740213D01*
X176379786Y-94589890D01*
X176207820Y-94464951D01*
X176207115Y-94464591D01*
X176199054Y-94460485D01*
X176148259Y-94412512D01*
X176131463Y-94344692D01*
X176153999Y-94278556D01*
X176199054Y-94239515D01*
X176207816Y-94235051D01*
X176281406Y-94181585D01*
X176379786Y-94110109D01*
X176379788Y-94110106D01*
X176379792Y-94110104D01*
X176530104Y-93959792D01*
X176530106Y-93959788D01*
X176530109Y-93959786D01*
X176655048Y-93787820D01*
X176655047Y-93787820D01*
X176655051Y-93787816D01*
X176751557Y-93598412D01*
X176817246Y-93396243D01*
X176850500Y-93186287D01*
X176850500Y-92973713D01*
X176817246Y-92763757D01*
X176751557Y-92561588D01*
X176655051Y-92372184D01*
X176655049Y-92372181D01*
X176655048Y-92372179D01*
X176530109Y-92200213D01*
X176379786Y-92049890D01*
X176207820Y-91924951D01*
X176207115Y-91924591D01*
X176199054Y-91920485D01*
X176148259Y-91872512D01*
X176131463Y-91804692D01*
X176153999Y-91738556D01*
X176199054Y-91699515D01*
X176207816Y-91695051D01*
X176281406Y-91641585D01*
X176379786Y-91570109D01*
X176379788Y-91570106D01*
X176379792Y-91570104D01*
X176530104Y-91419792D01*
X176530106Y-91419788D01*
X176530109Y-91419786D01*
X176655048Y-91247820D01*
X176655047Y-91247820D01*
X176655051Y-91247816D01*
X176751557Y-91058412D01*
X176817246Y-90856243D01*
X176850500Y-90646287D01*
X176850500Y-90433713D01*
X176817246Y-90223757D01*
X176751557Y-90021588D01*
X176655051Y-89832184D01*
X176655049Y-89832181D01*
X176655048Y-89832179D01*
X176530109Y-89660213D01*
X176379786Y-89509890D01*
X176207820Y-89384951D01*
X176207115Y-89384591D01*
X176199054Y-89380485D01*
X176148259Y-89332512D01*
X176131463Y-89264692D01*
X176153999Y-89198556D01*
X176199054Y-89159515D01*
X176207816Y-89155051D01*
X176281406Y-89101585D01*
X176379786Y-89030109D01*
X176379788Y-89030106D01*
X176379792Y-89030104D01*
X176530104Y-88879792D01*
X176530106Y-88879788D01*
X176530109Y-88879786D01*
X176655048Y-88707820D01*
X176655047Y-88707820D01*
X176655051Y-88707816D01*
X176751557Y-88518412D01*
X176817246Y-88316243D01*
X176850500Y-88106287D01*
X176850500Y-87893713D01*
X176817246Y-87683757D01*
X176751557Y-87481588D01*
X176655051Y-87292184D01*
X176650264Y-87285595D01*
X176618392Y-87241726D01*
X176530109Y-87120213D01*
X176379786Y-86969890D01*
X176207820Y-86844951D01*
X176207115Y-86844591D01*
X176199054Y-86840485D01*
X176148259Y-86792512D01*
X176131463Y-86724692D01*
X176153999Y-86658556D01*
X176199054Y-86619515D01*
X176207816Y-86615051D01*
X176281406Y-86561585D01*
X176379786Y-86490109D01*
X176379788Y-86490106D01*
X176379792Y-86490104D01*
X176530104Y-86339792D01*
X176530106Y-86339788D01*
X176530109Y-86339786D01*
X176655048Y-86167820D01*
X176655047Y-86167820D01*
X176655051Y-86167816D01*
X176751557Y-85978412D01*
X176817246Y-85776243D01*
X176850500Y-85566287D01*
X176850500Y-85353713D01*
X176817246Y-85143757D01*
X176751557Y-84941588D01*
X176655051Y-84752184D01*
X176530104Y-84580208D01*
X176379792Y-84429896D01*
X176379786Y-84429890D01*
X176207820Y-84304951D01*
X176207115Y-84304591D01*
X176199054Y-84300485D01*
X176148259Y-84252512D01*
X176131463Y-84184692D01*
X176153999Y-84118556D01*
X176199054Y-84079515D01*
X176207816Y-84075051D01*
X176281406Y-84021585D01*
X176379786Y-83950109D01*
X176379788Y-83950106D01*
X176379792Y-83950104D01*
X176530104Y-83799792D01*
X176530106Y-83799788D01*
X176530109Y-83799786D01*
X176655048Y-83627820D01*
X176655047Y-83627820D01*
X176655051Y-83627816D01*
X176751557Y-83438412D01*
X176817246Y-83236243D01*
X176850500Y-83026287D01*
X176850500Y-82813713D01*
X176817246Y-82603757D01*
X176751557Y-82401588D01*
X176655051Y-82212184D01*
X176655049Y-82212181D01*
X176655048Y-82212179D01*
X176530109Y-82040213D01*
X176379786Y-81889890D01*
X176207820Y-81764951D01*
X176207115Y-81764591D01*
X176199054Y-81760485D01*
X176148259Y-81712512D01*
X176131463Y-81644692D01*
X176153999Y-81578556D01*
X176199054Y-81539515D01*
X176207816Y-81535051D01*
X176281406Y-81481585D01*
X176379786Y-81410109D01*
X176379788Y-81410106D01*
X176379792Y-81410104D01*
X176530104Y-81259792D01*
X176530106Y-81259788D01*
X176530109Y-81259786D01*
X176655048Y-81087820D01*
X176655047Y-81087820D01*
X176655051Y-81087816D01*
X176751557Y-80898412D01*
X176817246Y-80696243D01*
X176850500Y-80486287D01*
X176850500Y-80273713D01*
X176817246Y-80063757D01*
X176751557Y-79861588D01*
X176655051Y-79672184D01*
X176655049Y-79672181D01*
X176655048Y-79672179D01*
X176530109Y-79500213D01*
X176379786Y-79349890D01*
X176207820Y-79224951D01*
X176207115Y-79224591D01*
X176199054Y-79220485D01*
X176148259Y-79172512D01*
X176131463Y-79104692D01*
X176153999Y-79038556D01*
X176199054Y-78999515D01*
X176207816Y-78995051D01*
X176281406Y-78941585D01*
X176379786Y-78870109D01*
X176379788Y-78870106D01*
X176379792Y-78870104D01*
X176530104Y-78719792D01*
X176530106Y-78719788D01*
X176530109Y-78719786D01*
X176655048Y-78547820D01*
X176655047Y-78547820D01*
X176655051Y-78547816D01*
X176751557Y-78358412D01*
X176817246Y-78156243D01*
X176850500Y-77946287D01*
X176850500Y-77733713D01*
X176817246Y-77523757D01*
X176751557Y-77321588D01*
X176655051Y-77132184D01*
X176655049Y-77132181D01*
X176655048Y-77132179D01*
X176530109Y-76960213D01*
X176379786Y-76809890D01*
X176207820Y-76684951D01*
X176207115Y-76684591D01*
X176199054Y-76680485D01*
X176148259Y-76632512D01*
X176131463Y-76564692D01*
X176153999Y-76498556D01*
X176199054Y-76459515D01*
X176207816Y-76455051D01*
X176281406Y-76401585D01*
X176379786Y-76330109D01*
X176379788Y-76330106D01*
X176379792Y-76330104D01*
X176530104Y-76179792D01*
X176530106Y-76179788D01*
X176530109Y-76179786D01*
X176655048Y-76007820D01*
X176655047Y-76007820D01*
X176655051Y-76007816D01*
X176751557Y-75818412D01*
X176817246Y-75616243D01*
X176850500Y-75406287D01*
X176850500Y-75193713D01*
X176817246Y-74983757D01*
X176751557Y-74781588D01*
X176655051Y-74592184D01*
X176655049Y-74592181D01*
X176655048Y-74592179D01*
X176530109Y-74420213D01*
X176379786Y-74269890D01*
X176207820Y-74144951D01*
X176207115Y-74144591D01*
X176199054Y-74140485D01*
X176148259Y-74092512D01*
X176131463Y-74024692D01*
X176153999Y-73958556D01*
X176199054Y-73919515D01*
X176207816Y-73915051D01*
X176266825Y-73872179D01*
X176379786Y-73790109D01*
X176379788Y-73790106D01*
X176379792Y-73790104D01*
X176530104Y-73639792D01*
X176530106Y-73639788D01*
X176530109Y-73639786D01*
X176644653Y-73482128D01*
X176655051Y-73467816D01*
X176751557Y-73278412D01*
X176817246Y-73076243D01*
X176850500Y-72866287D01*
X176850500Y-72653713D01*
X176817246Y-72443757D01*
X176751557Y-72241588D01*
X176655051Y-72052184D01*
X176655049Y-72052181D01*
X176655048Y-72052179D01*
X176530109Y-71880213D01*
X176379786Y-71729890D01*
X176207820Y-71604951D01*
X176207115Y-71604591D01*
X176199054Y-71600485D01*
X176148259Y-71552512D01*
X176131463Y-71484692D01*
X176153999Y-71418556D01*
X176199054Y-71379515D01*
X176207816Y-71375051D01*
X176266825Y-71332179D01*
X176379786Y-71250109D01*
X176379788Y-71250106D01*
X176379792Y-71250104D01*
X176530104Y-71099792D01*
X176530106Y-71099788D01*
X176530109Y-71099786D01*
X176655048Y-70927820D01*
X176655047Y-70927820D01*
X176655051Y-70927816D01*
X176751557Y-70738412D01*
X176817246Y-70536243D01*
X176850500Y-70326287D01*
X176850500Y-70113713D01*
X176817246Y-69903757D01*
X176751557Y-69701588D01*
X176655051Y-69512184D01*
X176646763Y-69500776D01*
X176618392Y-69461726D01*
X176568978Y-69393713D01*
X199649500Y-69393713D01*
X199649500Y-69606286D01*
X199663624Y-69695465D01*
X199682754Y-69816243D01*
X199709204Y-69897648D01*
X199748444Y-70018414D01*
X199844951Y-70207820D01*
X199969890Y-70379786D01*
X200120213Y-70530109D01*
X200292182Y-70655050D01*
X200300946Y-70659516D01*
X200351742Y-70707491D01*
X200368536Y-70775312D01*
X200345998Y-70841447D01*
X200300946Y-70880484D01*
X200292182Y-70884949D01*
X200120213Y-71009890D01*
X199969890Y-71160213D01*
X199844951Y-71332179D01*
X199748444Y-71521585D01*
X199682753Y-71723760D01*
X199649500Y-71933713D01*
X199649500Y-72146286D01*
X199682753Y-72356239D01*
X199748444Y-72558414D01*
X199844951Y-72747820D01*
X199969890Y-72919786D01*
X200120213Y-73070109D01*
X200292182Y-73195050D01*
X200300946Y-73199516D01*
X200351742Y-73247491D01*
X200368536Y-73315312D01*
X200345998Y-73381447D01*
X200300946Y-73420484D01*
X200292182Y-73424949D01*
X200120213Y-73549890D01*
X199969890Y-73700213D01*
X199844951Y-73872179D01*
X199748444Y-74061585D01*
X199682753Y-74263760D01*
X199649500Y-74473713D01*
X199649500Y-74686287D01*
X199682754Y-74896243D01*
X199689728Y-74917708D01*
X199748444Y-75098414D01*
X199844951Y-75287820D01*
X199969890Y-75459786D01*
X200120213Y-75610109D01*
X200292182Y-75735050D01*
X200300946Y-75739516D01*
X200351742Y-75787491D01*
X200368536Y-75855312D01*
X200345998Y-75921447D01*
X200300946Y-75960484D01*
X200292182Y-75964949D01*
X200120213Y-76089890D01*
X199969890Y-76240213D01*
X199844951Y-76412179D01*
X199748444Y-76601585D01*
X199682753Y-76803760D01*
X199649500Y-77013713D01*
X199649500Y-77226287D01*
X199682754Y-77436243D01*
X199745001Y-77627820D01*
X199748444Y-77638414D01*
X199844951Y-77827820D01*
X199969890Y-77999786D01*
X200120213Y-78150109D01*
X200292182Y-78275050D01*
X200300946Y-78279516D01*
X200351742Y-78327491D01*
X200368536Y-78395312D01*
X200345998Y-78461447D01*
X200300946Y-78500484D01*
X200292182Y-78504949D01*
X200120213Y-78629890D01*
X199969890Y-78780213D01*
X199844951Y-78952179D01*
X199748444Y-79141585D01*
X199682753Y-79343760D01*
X199657884Y-79500776D01*
X199649500Y-79553713D01*
X199649500Y-79766287D01*
X199682754Y-79976243D01*
X199745001Y-80167820D01*
X199748444Y-80178414D01*
X199844951Y-80367820D01*
X199969890Y-80539786D01*
X200120213Y-80690109D01*
X200292182Y-80815050D01*
X200300946Y-80819516D01*
X200351742Y-80867491D01*
X200368536Y-80935312D01*
X200345998Y-81001447D01*
X200300946Y-81040484D01*
X200292182Y-81044949D01*
X200120213Y-81169890D01*
X199969890Y-81320213D01*
X199844951Y-81492179D01*
X199748444Y-81681585D01*
X199682753Y-81883760D01*
X199655269Y-82057288D01*
X199649500Y-82093713D01*
X199649500Y-82306287D01*
X199682754Y-82516243D01*
X199745001Y-82707820D01*
X199748444Y-82718414D01*
X199844951Y-82907820D01*
X199969890Y-83079786D01*
X200120213Y-83230109D01*
X200292179Y-83355048D01*
X200292181Y-83355049D01*
X200292184Y-83355051D01*
X200301493Y-83359794D01*
X200352290Y-83407766D01*
X200369087Y-83475587D01*
X200346552Y-83541722D01*
X200301505Y-83580760D01*
X200292446Y-83585376D01*
X200292440Y-83585380D01*
X200238282Y-83624727D01*
X200238282Y-83624728D01*
X200870591Y-84257037D01*
X200807007Y-84274075D01*
X200692993Y-84339901D01*
X200599901Y-84432993D01*
X200534075Y-84547007D01*
X200517037Y-84610591D01*
X199884728Y-83978282D01*
X199884727Y-83978282D01*
X199845380Y-84032439D01*
X199748904Y-84221782D01*
X199683242Y-84423869D01*
X199683242Y-84423872D01*
X199650000Y-84633753D01*
X199650000Y-84846246D01*
X199683242Y-85056127D01*
X199683242Y-85056130D01*
X199748904Y-85258217D01*
X199845375Y-85447550D01*
X199884728Y-85501716D01*
X200517037Y-84869408D01*
X200534075Y-84932993D01*
X200599901Y-85047007D01*
X200692993Y-85140099D01*
X200807007Y-85205925D01*
X200870590Y-85222962D01*
X200238282Y-85855269D01*
X200238282Y-85855270D01*
X200292452Y-85894626D01*
X200292451Y-85894626D01*
X200301495Y-85899234D01*
X200352292Y-85947208D01*
X200369087Y-86015029D01*
X200346550Y-86081164D01*
X200301499Y-86120202D01*
X200292182Y-86124949D01*
X200120213Y-86249890D01*
X199969890Y-86400213D01*
X199844951Y-86572179D01*
X199748444Y-86761585D01*
X199682753Y-86963760D01*
X199649500Y-87173713D01*
X199649500Y-87386286D01*
X199678198Y-87567482D01*
X199682754Y-87596243D01*
X199745001Y-87787820D01*
X199748444Y-87798414D01*
X199844951Y-87987820D01*
X199969890Y-88159786D01*
X200120213Y-88310109D01*
X200292182Y-88435050D01*
X200300946Y-88439516D01*
X200351742Y-88487491D01*
X200368536Y-88555312D01*
X200345998Y-88621447D01*
X200300946Y-88660484D01*
X200292182Y-88664949D01*
X200120213Y-88789890D01*
X199969890Y-88940213D01*
X199844951Y-89112179D01*
X199748444Y-89301585D01*
X199682753Y-89503760D01*
X199649500Y-89713713D01*
X199649500Y-89926287D01*
X199682754Y-90136243D01*
X199745001Y-90327820D01*
X199748444Y-90338414D01*
X199844951Y-90527820D01*
X199969890Y-90699786D01*
X200120213Y-90850109D01*
X200292182Y-90975050D01*
X200300946Y-90979516D01*
X200351742Y-91027491D01*
X200368536Y-91095312D01*
X200345998Y-91161447D01*
X200300946Y-91200484D01*
X200292182Y-91204949D01*
X200120213Y-91329890D01*
X199969890Y-91480213D01*
X199844951Y-91652179D01*
X199748444Y-91841585D01*
X199682753Y-92043760D01*
X199649500Y-92253713D01*
X199649500Y-92466287D01*
X199682754Y-92676243D01*
X199745001Y-92867820D01*
X199748444Y-92878414D01*
X199844951Y-93067820D01*
X199969890Y-93239786D01*
X200083818Y-93353714D01*
X200117303Y-93415037D01*
X200112319Y-93484729D01*
X200070447Y-93540662D01*
X200039471Y-93557577D01*
X199907912Y-93606646D01*
X199907906Y-93606649D01*
X199792812Y-93692809D01*
X199792809Y-93692812D01*
X199706649Y-93807906D01*
X199706645Y-93807913D01*
X199656403Y-93942620D01*
X199656401Y-93942627D01*
X199650000Y-94002155D01*
X199650000Y-94650000D01*
X200566988Y-94650000D01*
X200534075Y-94707007D01*
X200500000Y-94834174D01*
X200500000Y-94965826D01*
X200534075Y-95092993D01*
X200566988Y-95150000D01*
X199650000Y-95150000D01*
X199650000Y-95797844D01*
X199656401Y-95857372D01*
X199656403Y-95857379D01*
X199706645Y-95992086D01*
X199706649Y-95992093D01*
X199792809Y-96107187D01*
X199792812Y-96107190D01*
X199907906Y-96193350D01*
X199907913Y-96193354D01*
X200042620Y-96243596D01*
X200042627Y-96243598D01*
X200102155Y-96249999D01*
X200102172Y-96250000D01*
X200750000Y-96250000D01*
X200750000Y-95333012D01*
X200807007Y-95365925D01*
X200934174Y-95400000D01*
X201065826Y-95400000D01*
X201192993Y-95365925D01*
X201250000Y-95333012D01*
X201250000Y-96250000D01*
X201897828Y-96250000D01*
X201897844Y-96249999D01*
X201957372Y-96243598D01*
X201957379Y-96243596D01*
X202092086Y-96193354D01*
X202092093Y-96193350D01*
X202207187Y-96107190D01*
X202207190Y-96107187D01*
X202293350Y-95992093D01*
X202293354Y-95992086D01*
X202343596Y-95857379D01*
X202343598Y-95857372D01*
X202349999Y-95797844D01*
X202350000Y-95797827D01*
X202350000Y-95150000D01*
X201433012Y-95150000D01*
X201465925Y-95092993D01*
X201500000Y-94965826D01*
X201500000Y-94834174D01*
X201465925Y-94707007D01*
X201433012Y-94650000D01*
X202350000Y-94650000D01*
X202350000Y-94002172D01*
X202349999Y-94002155D01*
X202343598Y-93942627D01*
X202343596Y-93942620D01*
X202293354Y-93807913D01*
X202293350Y-93807906D01*
X202207190Y-93692812D01*
X202207187Y-93692809D01*
X202092093Y-93606649D01*
X202092088Y-93606646D01*
X201960528Y-93557577D01*
X201904595Y-93515705D01*
X201880178Y-93450241D01*
X201895030Y-93381968D01*
X201916175Y-93353720D01*
X202030104Y-93239792D01*
X202155051Y-93067816D01*
X202251557Y-92878412D01*
X202317246Y-92676243D01*
X202350500Y-92466287D01*
X202350500Y-92253713D01*
X202317246Y-92043757D01*
X202251557Y-91841588D01*
X202155051Y-91652184D01*
X202155049Y-91652181D01*
X202155048Y-91652179D01*
X202030109Y-91480213D01*
X201879786Y-91329890D01*
X201707820Y-91204951D01*
X201707115Y-91204591D01*
X201699054Y-91200485D01*
X201648259Y-91152512D01*
X201631463Y-91084692D01*
X201653999Y-91018556D01*
X201699054Y-90979515D01*
X201707816Y-90975051D01*
X201729789Y-90959086D01*
X201879786Y-90850109D01*
X201879788Y-90850106D01*
X201879792Y-90850104D01*
X202030104Y-90699792D01*
X202030106Y-90699788D01*
X202030109Y-90699786D01*
X202155048Y-90527820D01*
X202155047Y-90527820D01*
X202155051Y-90527816D01*
X202251557Y-90338412D01*
X202317246Y-90136243D01*
X202350500Y-89926287D01*
X202350500Y-89713713D01*
X202317246Y-89503757D01*
X202251557Y-89301588D01*
X202155051Y-89112184D01*
X202155049Y-89112181D01*
X202155048Y-89112179D01*
X202030109Y-88940213D01*
X201879786Y-88789890D01*
X201707820Y-88664951D01*
X201707115Y-88664591D01*
X201699054Y-88660485D01*
X201648259Y-88612512D01*
X201631463Y-88544692D01*
X201653999Y-88478556D01*
X201699054Y-88439515D01*
X201707816Y-88435051D01*
X201731687Y-88417708D01*
X201879786Y-88310109D01*
X201879788Y-88310106D01*
X201879792Y-88310104D01*
X202030104Y-88159792D01*
X202030106Y-88159788D01*
X202030109Y-88159786D01*
X202155048Y-87987820D01*
X202155047Y-87987820D01*
X202155051Y-87987816D01*
X202251557Y-87798412D01*
X202317246Y-87596243D01*
X202350500Y-87386287D01*
X202350500Y-87173713D01*
X202317246Y-86963757D01*
X202251557Y-86761588D01*
X202155051Y-86572184D01*
X202155049Y-86572181D01*
X202155048Y-86572179D01*
X202030109Y-86400213D01*
X201879786Y-86249890D01*
X201707817Y-86124949D01*
X201698504Y-86120204D01*
X201647707Y-86072230D01*
X201630912Y-86004409D01*
X201653449Y-85938274D01*
X201698507Y-85899232D01*
X201707555Y-85894622D01*
X201761716Y-85855270D01*
X201761717Y-85855270D01*
X201129408Y-85222962D01*
X201192993Y-85205925D01*
X201307007Y-85140099D01*
X201400099Y-85047007D01*
X201465925Y-84932993D01*
X201482962Y-84869408D01*
X202115270Y-85501717D01*
X202115270Y-85501716D01*
X202154622Y-85447554D01*
X202251095Y-85258217D01*
X202316757Y-85056130D01*
X202316757Y-85056127D01*
X202350000Y-84846246D01*
X202350000Y-84633753D01*
X202316757Y-84423872D01*
X202316757Y-84423869D01*
X202251095Y-84221782D01*
X202154624Y-84032449D01*
X202115270Y-83978282D01*
X202115269Y-83978282D01*
X201482962Y-84610590D01*
X201465925Y-84547007D01*
X201400099Y-84432993D01*
X201307007Y-84339901D01*
X201192993Y-84274075D01*
X201129409Y-84257037D01*
X201761716Y-83624728D01*
X201707547Y-83585373D01*
X201707547Y-83585372D01*
X201698500Y-83580763D01*
X201647706Y-83532788D01*
X201630912Y-83464966D01*
X201653451Y-83398832D01*
X201698508Y-83359793D01*
X201707816Y-83355051D01*
X201817568Y-83275312D01*
X201879786Y-83230109D01*
X201879788Y-83230106D01*
X201879792Y-83230104D01*
X202030104Y-83079792D01*
X202030106Y-83079788D01*
X202030109Y-83079786D01*
X202155048Y-82907820D01*
X202155047Y-82907820D01*
X202155051Y-82907816D01*
X202251557Y-82718412D01*
X202317246Y-82516243D01*
X202350500Y-82306287D01*
X202350500Y-82093713D01*
X202317246Y-81883757D01*
X202251557Y-81681588D01*
X202155051Y-81492184D01*
X202155049Y-81492181D01*
X202155048Y-81492179D01*
X202030109Y-81320213D01*
X201879786Y-81169890D01*
X201707820Y-81044951D01*
X201707115Y-81044591D01*
X201699054Y-81040485D01*
X201648259Y-80992512D01*
X201631463Y-80924692D01*
X201653999Y-80858556D01*
X201699054Y-80819515D01*
X201707816Y-80815051D01*
X201729789Y-80799086D01*
X201879786Y-80690109D01*
X201879788Y-80690106D01*
X201879792Y-80690104D01*
X202030104Y-80539792D01*
X202030106Y-80539788D01*
X202030109Y-80539786D01*
X202155048Y-80367820D01*
X202155047Y-80367820D01*
X202155051Y-80367816D01*
X202251557Y-80178412D01*
X202317246Y-79976243D01*
X202350500Y-79766287D01*
X202350500Y-79553713D01*
X202317246Y-79343757D01*
X202251557Y-79141588D01*
X202155051Y-78952184D01*
X202155049Y-78952181D01*
X202155048Y-78952179D01*
X202030109Y-78780213D01*
X201879786Y-78629890D01*
X201707820Y-78504951D01*
X201707115Y-78504591D01*
X201699054Y-78500485D01*
X201648259Y-78452512D01*
X201631463Y-78384692D01*
X201653999Y-78318556D01*
X201699054Y-78279515D01*
X201707816Y-78275051D01*
X201729789Y-78259086D01*
X201879786Y-78150109D01*
X201879788Y-78150106D01*
X201879792Y-78150104D01*
X202030104Y-77999792D01*
X202030106Y-77999788D01*
X202030109Y-77999786D01*
X202155048Y-77827820D01*
X202155047Y-77827820D01*
X202155051Y-77827816D01*
X202251557Y-77638412D01*
X202317246Y-77436243D01*
X202350500Y-77226287D01*
X202350500Y-77013713D01*
X202317246Y-76803757D01*
X202251557Y-76601588D01*
X202155051Y-76412184D01*
X202155049Y-76412181D01*
X202155048Y-76412179D01*
X202030109Y-76240213D01*
X201879786Y-76089890D01*
X201707820Y-75964951D01*
X201707115Y-75964591D01*
X201699054Y-75960485D01*
X201648259Y-75912512D01*
X201631463Y-75844692D01*
X201653999Y-75778556D01*
X201699054Y-75739515D01*
X201707816Y-75735051D01*
X201729789Y-75719086D01*
X201879786Y-75610109D01*
X201879788Y-75610106D01*
X201879792Y-75610104D01*
X202030104Y-75459792D01*
X202030106Y-75459788D01*
X202030109Y-75459786D01*
X202155048Y-75287820D01*
X202155047Y-75287820D01*
X202155051Y-75287816D01*
X202251557Y-75098412D01*
X202317246Y-74896243D01*
X202350500Y-74686287D01*
X202350500Y-74473713D01*
X202317246Y-74263757D01*
X202251557Y-74061588D01*
X202155051Y-73872184D01*
X202155049Y-73872181D01*
X202155048Y-73872179D01*
X202030109Y-73700213D01*
X201879786Y-73549890D01*
X201707820Y-73424951D01*
X201707115Y-73424591D01*
X201699054Y-73420485D01*
X201648259Y-73372512D01*
X201631463Y-73304692D01*
X201653999Y-73238556D01*
X201699054Y-73199515D01*
X201707816Y-73195051D01*
X201772187Y-73148283D01*
X201879786Y-73070109D01*
X201879788Y-73070106D01*
X201879792Y-73070104D01*
X202030104Y-72919792D01*
X202030106Y-72919788D01*
X202030109Y-72919786D01*
X202155048Y-72747820D01*
X202155047Y-72747820D01*
X202155051Y-72747816D01*
X202251557Y-72558412D01*
X202317246Y-72356243D01*
X202350500Y-72146287D01*
X202350500Y-71933713D01*
X202317246Y-71723757D01*
X202251557Y-71521588D01*
X202155051Y-71332184D01*
X202155049Y-71332181D01*
X202155048Y-71332179D01*
X202030109Y-71160213D01*
X201879786Y-71009890D01*
X201707820Y-70884951D01*
X201707115Y-70884591D01*
X201699054Y-70880485D01*
X201648259Y-70832512D01*
X201631463Y-70764692D01*
X201653999Y-70698556D01*
X201699054Y-70659515D01*
X201707816Y-70655051D01*
X201838667Y-70559983D01*
X201879786Y-70530109D01*
X201879788Y-70530106D01*
X201879792Y-70530104D01*
X202030104Y-70379792D01*
X202030106Y-70379788D01*
X202030109Y-70379786D01*
X202155048Y-70207820D01*
X202155047Y-70207820D01*
X202155051Y-70207816D01*
X202251557Y-70018412D01*
X202317246Y-69816243D01*
X202350500Y-69606287D01*
X202350500Y-69393713D01*
X202317246Y-69183757D01*
X202251557Y-68981588D01*
X202155051Y-68792184D01*
X202155049Y-68792181D01*
X202155048Y-68792179D01*
X202030109Y-68620213D01*
X201879786Y-68469890D01*
X201707817Y-68344949D01*
X201698504Y-68340204D01*
X201647707Y-68292230D01*
X201630912Y-68224409D01*
X201653449Y-68158274D01*
X201698507Y-68119232D01*
X201707555Y-68114622D01*
X201761716Y-68075270D01*
X201761717Y-68075270D01*
X201129408Y-67442962D01*
X201192993Y-67425925D01*
X201307007Y-67360099D01*
X201400099Y-67267007D01*
X201465925Y-67152993D01*
X201482962Y-67089408D01*
X202115270Y-67721717D01*
X202115270Y-67721716D01*
X202154622Y-67667554D01*
X202251095Y-67478217D01*
X202316757Y-67276130D01*
X202316757Y-67276127D01*
X202350000Y-67066246D01*
X202350000Y-66853753D01*
X202316757Y-66643872D01*
X202316757Y-66643869D01*
X202251095Y-66441782D01*
X202154624Y-66252449D01*
X202115270Y-66198282D01*
X202115269Y-66198282D01*
X201482962Y-66830590D01*
X201465925Y-66767007D01*
X201400099Y-66652993D01*
X201307007Y-66559901D01*
X201192993Y-66494075D01*
X201129409Y-66477037D01*
X201761716Y-65844728D01*
X201707550Y-65805375D01*
X201518217Y-65708904D01*
X201316129Y-65643242D01*
X201106246Y-65610000D01*
X200893754Y-65610000D01*
X200683872Y-65643242D01*
X200683869Y-65643242D01*
X200481782Y-65708904D01*
X200292439Y-65805380D01*
X200238282Y-65844727D01*
X200238282Y-65844728D01*
X200870591Y-66477037D01*
X200807007Y-66494075D01*
X200692993Y-66559901D01*
X200599901Y-66652993D01*
X200534075Y-66767007D01*
X200517037Y-66830590D01*
X199884728Y-66198282D01*
X199884727Y-66198282D01*
X199845380Y-66252439D01*
X199748904Y-66441782D01*
X199683242Y-66643869D01*
X199683242Y-66643872D01*
X199650000Y-66853753D01*
X199650000Y-67066246D01*
X199683242Y-67276127D01*
X199683242Y-67276130D01*
X199748904Y-67478217D01*
X199845375Y-67667550D01*
X199884728Y-67721716D01*
X200517037Y-67089408D01*
X200534075Y-67152993D01*
X200599901Y-67267007D01*
X200692993Y-67360099D01*
X200807007Y-67425925D01*
X200870590Y-67442962D01*
X200238282Y-68075269D01*
X200238282Y-68075270D01*
X200292452Y-68114626D01*
X200292451Y-68114626D01*
X200301495Y-68119234D01*
X200352292Y-68167208D01*
X200369087Y-68235029D01*
X200346550Y-68301164D01*
X200301499Y-68340202D01*
X200292182Y-68344949D01*
X200120213Y-68469890D01*
X199969890Y-68620213D01*
X199844951Y-68792179D01*
X199748444Y-68981585D01*
X199682753Y-69183760D01*
X199649500Y-69393713D01*
X176568978Y-69393713D01*
X176530109Y-69340213D01*
X176416569Y-69226673D01*
X176383084Y-69165350D01*
X176388068Y-69095658D01*
X176429940Y-69039725D01*
X176460915Y-69022810D01*
X176592331Y-68973796D01*
X176707546Y-68887546D01*
X176793796Y-68772331D01*
X176844091Y-68637483D01*
X176850500Y-68577873D01*
X176850499Y-66782128D01*
X176844091Y-66722517D01*
X176818160Y-66652993D01*
X176793797Y-66587671D01*
X176793793Y-66587664D01*
X176707547Y-66472455D01*
X176707544Y-66472452D01*
X176592335Y-66386206D01*
X176592328Y-66386202D01*
X176457482Y-66335908D01*
X176457483Y-66335908D01*
X176397883Y-66329501D01*
X176397881Y-66329500D01*
X176397873Y-66329500D01*
X176397864Y-66329500D01*
X174602129Y-66329500D01*
X174602123Y-66329501D01*
X174542516Y-66335908D01*
X174407671Y-66386202D01*
X174407664Y-66386206D01*
X174292455Y-66472452D01*
X174292452Y-66472455D01*
X174206206Y-66587664D01*
X174206202Y-66587671D01*
X174155908Y-66722517D01*
X174149501Y-66782116D01*
X174149501Y-66782123D01*
X174149500Y-66782135D01*
X161350499Y-66782135D01*
X161350499Y-66782128D01*
X161344091Y-66722517D01*
X161318160Y-66652993D01*
X161293797Y-66587671D01*
X161293793Y-66587664D01*
X161207547Y-66472455D01*
X161207544Y-66472452D01*
X161092335Y-66386206D01*
X161092328Y-66386202D01*
X160957482Y-66335908D01*
X160957483Y-66335908D01*
X160897883Y-66329501D01*
X160897881Y-66329500D01*
X160897873Y-66329500D01*
X160897864Y-66329500D01*
X159102129Y-66329500D01*
X159102123Y-66329501D01*
X159042516Y-66335908D01*
X158907671Y-66386202D01*
X158907664Y-66386206D01*
X158792455Y-66472452D01*
X158792452Y-66472455D01*
X158706206Y-66587664D01*
X158706202Y-66587671D01*
X158655908Y-66722517D01*
X158649501Y-66782116D01*
X158649501Y-66782123D01*
X158649500Y-66782135D01*
X54500500Y-66782135D01*
X54500500Y-57874038D01*
X89399500Y-57874038D01*
X89399500Y-58125961D01*
X89438910Y-58374785D01*
X89516760Y-58614383D01*
X89631132Y-58838848D01*
X89779201Y-59042649D01*
X89779205Y-59042654D01*
X89957345Y-59220794D01*
X89957350Y-59220798D01*
X90092513Y-59318999D01*
X90161155Y-59368870D01*
X90304184Y-59441747D01*
X90385616Y-59483239D01*
X90385618Y-59483239D01*
X90385621Y-59483241D01*
X90625215Y-59561090D01*
X90874038Y-59600500D01*
X90874039Y-59600500D01*
X91125961Y-59600500D01*
X91125962Y-59600500D01*
X91374785Y-59561090D01*
X91614379Y-59483241D01*
X91838845Y-59368870D01*
X92042656Y-59220793D01*
X92220793Y-59042656D01*
X92368870Y-58838845D01*
X92483241Y-58614379D01*
X92561090Y-58374785D01*
X92600500Y-58125962D01*
X92600500Y-57874038D01*
X92561090Y-57625215D01*
X92483241Y-57385621D01*
X92483239Y-57385618D01*
X92483239Y-57385616D01*
X92368869Y-57161154D01*
X92368865Y-57161148D01*
X92324426Y-57099982D01*
X99559500Y-57099982D01*
X99559500Y-58900017D01*
X99570000Y-59002796D01*
X99618210Y-59148283D01*
X99625186Y-59169335D01*
X99717288Y-59318656D01*
X99841344Y-59442712D01*
X99990665Y-59534814D01*
X100157202Y-59589999D01*
X100259990Y-59600500D01*
X100259995Y-59600500D01*
X102060005Y-59600500D01*
X102060010Y-59600500D01*
X102162798Y-59589999D01*
X102329335Y-59534814D01*
X102478656Y-59442712D01*
X102602712Y-59318656D01*
X102694814Y-59169335D01*
X102749999Y-59002798D01*
X102760500Y-58900010D01*
X102760500Y-57099990D01*
X102749999Y-56997202D01*
X102694814Y-56830665D01*
X102602712Y-56681344D01*
X102478656Y-56557288D01*
X102329335Y-56465186D01*
X102162798Y-56410001D01*
X102162796Y-56410000D01*
X102060017Y-56399500D01*
X102060010Y-56399500D01*
X100259990Y-56399500D01*
X100259982Y-56399500D01*
X100157203Y-56410000D01*
X100157202Y-56410001D01*
X100074669Y-56437349D01*
X99990667Y-56465185D01*
X99990662Y-56465187D01*
X99841342Y-56557289D01*
X99717289Y-56681342D01*
X99625187Y-56830662D01*
X99625186Y-56830665D01*
X99570001Y-56997202D01*
X99570001Y-56997203D01*
X99570000Y-56997203D01*
X99559500Y-57099982D01*
X92324426Y-57099982D01*
X92220798Y-56957350D01*
X92220794Y-56957345D01*
X92042654Y-56779205D01*
X92042649Y-56779201D01*
X91838848Y-56631132D01*
X91838847Y-56631131D01*
X91838845Y-56631130D01*
X91768747Y-56595413D01*
X91614383Y-56516760D01*
X91374785Y-56438910D01*
X91125962Y-56399500D01*
X90874038Y-56399500D01*
X90807738Y-56410001D01*
X90625214Y-56438910D01*
X90385616Y-56516760D01*
X90161151Y-56631132D01*
X89957350Y-56779201D01*
X89957345Y-56779205D01*
X89779205Y-56957345D01*
X89779201Y-56957350D01*
X89631132Y-57161151D01*
X89516760Y-57385616D01*
X89438910Y-57625214D01*
X89399500Y-57874038D01*
X54500500Y-57874038D01*
X54500500Y-54499635D01*
X117999500Y-54499635D01*
X117999500Y-56500370D01*
X117999501Y-56500376D01*
X118005908Y-56559983D01*
X118056202Y-56694828D01*
X118056206Y-56694835D01*
X118142452Y-56810044D01*
X118142455Y-56810047D01*
X118257664Y-56896293D01*
X118257669Y-56896296D01*
X118285539Y-56906690D01*
X118341473Y-56948561D01*
X118365891Y-57014024D01*
X118351040Y-57082298D01*
X118342525Y-57095759D01*
X118209783Y-57278461D01*
X118105950Y-57482244D01*
X118035278Y-57699750D01*
X118035278Y-57699753D01*
X118035278Y-57699755D01*
X117999500Y-57925646D01*
X117999500Y-58154354D01*
X118017389Y-58267299D01*
X118035278Y-58380246D01*
X118035278Y-58380249D01*
X118105950Y-58597755D01*
X118133990Y-58652786D01*
X118209783Y-58801538D01*
X118344214Y-58986566D01*
X118505934Y-59148286D01*
X118590864Y-59209991D01*
X118633529Y-59265321D01*
X118639508Y-59334935D01*
X118606902Y-59396730D01*
X118590864Y-59410627D01*
X118506257Y-59472097D01*
X118344597Y-59633757D01*
X118210211Y-59818723D01*
X118106417Y-60022429D01*
X118035765Y-60239871D01*
X118021491Y-60330000D01*
X119009252Y-60330000D01*
X118987482Y-60367708D01*
X118950000Y-60507591D01*
X118950000Y-60652409D01*
X118987482Y-60792292D01*
X119009252Y-60830000D01*
X118021491Y-60830000D01*
X118035765Y-60920128D01*
X118106417Y-61137570D01*
X118210211Y-61341276D01*
X118344597Y-61526242D01*
X118506257Y-61687902D01*
X118691223Y-61822288D01*
X118894929Y-61926082D01*
X119112371Y-61996734D01*
X119250000Y-62018532D01*
X119250000Y-61070747D01*
X119287708Y-61092518D01*
X119427591Y-61130000D01*
X119572409Y-61130000D01*
X119712292Y-61092518D01*
X119750000Y-61070747D01*
X119750000Y-62018531D01*
X119887628Y-61996734D01*
X120105070Y-61926082D01*
X120308776Y-61822288D01*
X120493742Y-61687902D01*
X120655402Y-61526242D01*
X120789788Y-61341276D01*
X120893582Y-61137570D01*
X120964234Y-60920128D01*
X120978509Y-60830000D01*
X119990748Y-60830000D01*
X120012518Y-60792292D01*
X120050000Y-60652409D01*
X120050000Y-60507591D01*
X120012518Y-60367708D01*
X119990748Y-60330000D01*
X120978509Y-60330000D01*
X120964234Y-60239871D01*
X120893582Y-60022429D01*
X120789788Y-59818723D01*
X120655402Y-59633757D01*
X120507905Y-59486260D01*
X120406662Y-59408781D01*
X120398511Y-59397648D01*
X136579500Y-59397648D01*
X136579500Y-59602351D01*
X136611522Y-59804534D01*
X136674781Y-59999223D01*
X136767715Y-60181613D01*
X136888028Y-60347213D01*
X137032786Y-60491971D01*
X137187749Y-60604556D01*
X137198390Y-60612287D01*
X137277134Y-60652409D01*
X137380776Y-60705218D01*
X137380778Y-60705218D01*
X137380781Y-60705220D01*
X137485137Y-60739127D01*
X137575465Y-60768477D01*
X137676557Y-60784488D01*
X137777648Y-60800500D01*
X137777649Y-60800500D01*
X137982351Y-60800500D01*
X137982352Y-60800500D01*
X138184534Y-60768477D01*
X138379219Y-60705220D01*
X138561610Y-60612287D01*
X138705713Y-60507591D01*
X138727213Y-60491971D01*
X138727215Y-60491968D01*
X138727219Y-60491966D01*
X138871966Y-60347219D01*
X138871968Y-60347215D01*
X138871971Y-60347213D01*
X138949958Y-60239871D01*
X138992287Y-60181610D01*
X139085220Y-59999219D01*
X139148477Y-59804534D01*
X139180500Y-59602352D01*
X139180500Y-59397648D01*
X144199500Y-59397648D01*
X144199500Y-59602351D01*
X144231522Y-59804534D01*
X144294781Y-59999223D01*
X144387715Y-60181613D01*
X144508028Y-60347213D01*
X144652786Y-60491971D01*
X144807749Y-60604556D01*
X144818390Y-60612287D01*
X144897134Y-60652409D01*
X145000776Y-60705218D01*
X145000778Y-60705218D01*
X145000781Y-60705220D01*
X145105137Y-60739127D01*
X145195465Y-60768477D01*
X145296557Y-60784488D01*
X145397648Y-60800500D01*
X145397649Y-60800500D01*
X145602351Y-60800500D01*
X145602352Y-60800500D01*
X145804534Y-60768477D01*
X145999219Y-60705220D01*
X146181610Y-60612287D01*
X146325713Y-60507591D01*
X146347213Y-60491971D01*
X146347215Y-60491968D01*
X146347219Y-60491966D01*
X146491966Y-60347219D01*
X146491968Y-60347215D01*
X146491971Y-60347213D01*
X146569958Y-60239871D01*
X146612287Y-60181610D01*
X146705220Y-59999219D01*
X146768477Y-59804534D01*
X146800500Y-59602352D01*
X146800500Y-59397648D01*
X146782542Y-59284265D01*
X146768477Y-59195465D01*
X146705875Y-59002798D01*
X146705220Y-59000781D01*
X146705218Y-59000778D01*
X146705218Y-59000776D01*
X146653878Y-58900017D01*
X146612287Y-58818390D01*
X146600043Y-58801538D01*
X146491971Y-58652786D01*
X146347213Y-58508028D01*
X146181613Y-58387715D01*
X146181612Y-58387714D01*
X146181610Y-58387713D01*
X146124653Y-58358691D01*
X145999223Y-58294781D01*
X145804534Y-58231522D01*
X145629995Y-58203878D01*
X145602352Y-58199500D01*
X145397648Y-58199500D01*
X145373329Y-58203351D01*
X145195465Y-58231522D01*
X145000776Y-58294781D01*
X144818386Y-58387715D01*
X144652786Y-58508028D01*
X144508028Y-58652786D01*
X144387715Y-58818386D01*
X144294781Y-59000776D01*
X144231522Y-59195465D01*
X144199500Y-59397648D01*
X139180500Y-59397648D01*
X139162542Y-59284265D01*
X139148477Y-59195465D01*
X139085875Y-59002798D01*
X139085220Y-59000781D01*
X139085218Y-59000778D01*
X139085218Y-59000776D01*
X139033878Y-58900017D01*
X138992287Y-58818390D01*
X138980043Y-58801538D01*
X138871971Y-58652786D01*
X138727213Y-58508028D01*
X138561613Y-58387715D01*
X138561612Y-58387714D01*
X138561610Y-58387713D01*
X138504653Y-58358691D01*
X138379223Y-58294781D01*
X138184534Y-58231522D01*
X138009995Y-58203878D01*
X137982352Y-58199500D01*
X137777648Y-58199500D01*
X137753329Y-58203351D01*
X137575465Y-58231522D01*
X137380776Y-58294781D01*
X137198386Y-58387715D01*
X137032786Y-58508028D01*
X136888028Y-58652786D01*
X136767715Y-58818386D01*
X136674781Y-59000776D01*
X136611522Y-59195465D01*
X136579500Y-59397648D01*
X120398511Y-59397648D01*
X120386909Y-59381802D01*
X120366470Y-59355296D01*
X120366332Y-59353699D01*
X120365386Y-59352406D01*
X120363352Y-59318999D01*
X120360491Y-59285682D01*
X120361238Y-59284265D01*
X120361141Y-59282666D01*
X120377485Y-59253473D01*
X120393097Y-59223887D01*
X120394950Y-59222281D01*
X120395275Y-59221701D01*
X120396169Y-59221224D01*
X120409125Y-59209999D01*
X120494066Y-59148286D01*
X120655786Y-58986566D01*
X120790217Y-58801538D01*
X120894048Y-58597758D01*
X120964722Y-58380245D01*
X121000500Y-58154354D01*
X121000500Y-57925646D01*
X120964722Y-57699755D01*
X120964721Y-57699751D01*
X120964721Y-57699750D01*
X120894049Y-57482244D01*
X120844817Y-57385621D01*
X120790217Y-57278462D01*
X120657472Y-57095755D01*
X120633994Y-57029953D01*
X120649819Y-56961899D01*
X120699925Y-56913204D01*
X120714455Y-56906692D01*
X120742331Y-56896296D01*
X120857546Y-56810046D01*
X120943796Y-56694831D01*
X120994091Y-56559983D01*
X121000500Y-56500373D01*
X121000499Y-54707648D01*
X205699500Y-54707648D01*
X205699500Y-54912351D01*
X205731522Y-55114534D01*
X205794781Y-55309223D01*
X205887715Y-55491613D01*
X206008028Y-55657213D01*
X206152786Y-55801971D01*
X206307749Y-55914556D01*
X206318390Y-55922287D01*
X206434607Y-55981503D01*
X206500776Y-56015218D01*
X206500778Y-56015218D01*
X206500781Y-56015220D01*
X206605137Y-56049127D01*
X206695465Y-56078477D01*
X206796557Y-56094488D01*
X206897648Y-56110500D01*
X206897649Y-56110500D01*
X207102351Y-56110500D01*
X207102352Y-56110500D01*
X207304534Y-56078477D01*
X207499219Y-56015220D01*
X207681610Y-55922287D01*
X207774590Y-55854732D01*
X207847213Y-55801971D01*
X207847215Y-55801968D01*
X207847219Y-55801966D01*
X207991966Y-55657219D01*
X207991968Y-55657215D01*
X207991971Y-55657213D01*
X208044732Y-55584590D01*
X208112287Y-55491610D01*
X208205220Y-55309219D01*
X208268477Y-55114534D01*
X208300500Y-54912352D01*
X208300500Y-54707648D01*
X208268477Y-54505466D01*
X208266582Y-54499635D01*
X208205218Y-54310776D01*
X208143654Y-54189952D01*
X208112287Y-54128390D01*
X208057810Y-54053408D01*
X207991971Y-53962786D01*
X207847213Y-53818028D01*
X207681613Y-53697715D01*
X207681612Y-53697714D01*
X207681610Y-53697713D01*
X207624653Y-53668691D01*
X207499223Y-53604781D01*
X207304534Y-53541522D01*
X207129995Y-53513878D01*
X207102352Y-53509500D01*
X206897648Y-53509500D01*
X206873329Y-53513351D01*
X206695465Y-53541522D01*
X206500776Y-53604781D01*
X206318386Y-53697715D01*
X206152786Y-53818028D01*
X206008028Y-53962786D01*
X205887715Y-54128386D01*
X205794781Y-54310776D01*
X205731522Y-54505465D01*
X205699500Y-54707648D01*
X121000499Y-54707648D01*
X121000499Y-54499628D01*
X120994091Y-54440017D01*
X120945887Y-54310776D01*
X120943797Y-54305171D01*
X120943793Y-54305164D01*
X120857547Y-54189955D01*
X120857544Y-54189952D01*
X120742335Y-54103706D01*
X120742328Y-54103702D01*
X120607482Y-54053408D01*
X120607483Y-54053408D01*
X120547883Y-54047001D01*
X120547881Y-54047000D01*
X120547873Y-54047000D01*
X120547864Y-54047000D01*
X118452129Y-54047000D01*
X118452123Y-54047001D01*
X118392516Y-54053408D01*
X118257671Y-54103702D01*
X118257664Y-54103706D01*
X118142455Y-54189952D01*
X118142452Y-54189955D01*
X118056206Y-54305164D01*
X118056202Y-54305171D01*
X118005908Y-54440017D01*
X117999501Y-54499616D01*
X117999501Y-54499623D01*
X117999500Y-54499635D01*
X54500500Y-54499635D01*
X54500500Y-49897648D01*
X136579500Y-49897648D01*
X136579500Y-50102351D01*
X136611522Y-50304534D01*
X136674781Y-50499223D01*
X136767715Y-50681613D01*
X136888028Y-50847213D01*
X137032786Y-50991971D01*
X137187749Y-51104556D01*
X137198390Y-51112287D01*
X137314607Y-51171503D01*
X137380776Y-51205218D01*
X137380778Y-51205218D01*
X137380781Y-51205220D01*
X137485137Y-51239127D01*
X137575465Y-51268477D01*
X137676557Y-51284488D01*
X137777648Y-51300500D01*
X137777649Y-51300500D01*
X137982351Y-51300500D01*
X137982352Y-51300500D01*
X138184534Y-51268477D01*
X138379219Y-51205220D01*
X138561610Y-51112287D01*
X138654590Y-51044732D01*
X138727213Y-50991971D01*
X138727215Y-50991968D01*
X138727219Y-50991966D01*
X138871966Y-50847219D01*
X138871968Y-50847215D01*
X138871971Y-50847213D01*
X138924732Y-50774590D01*
X138992287Y-50681610D01*
X139085220Y-50499219D01*
X139148477Y-50304534D01*
X139180500Y-50102352D01*
X139180500Y-49897648D01*
X144199500Y-49897648D01*
X144199500Y-50102351D01*
X144231522Y-50304534D01*
X144294781Y-50499223D01*
X144387715Y-50681613D01*
X144508028Y-50847213D01*
X144652786Y-50991971D01*
X144807749Y-51104556D01*
X144818390Y-51112287D01*
X144934607Y-51171503D01*
X145000776Y-51205218D01*
X145000778Y-51205218D01*
X145000781Y-51205220D01*
X145105137Y-51239127D01*
X145195465Y-51268477D01*
X145296557Y-51284488D01*
X145397648Y-51300500D01*
X145397649Y-51300500D01*
X145602351Y-51300500D01*
X145602352Y-51300500D01*
X145804534Y-51268477D01*
X145999219Y-51205220D01*
X146181610Y-51112287D01*
X146274590Y-51044732D01*
X146347213Y-50991971D01*
X146347215Y-50991968D01*
X146347219Y-50991966D01*
X146491966Y-50847219D01*
X146491968Y-50847215D01*
X146491971Y-50847213D01*
X146544732Y-50774590D01*
X146612287Y-50681610D01*
X146705220Y-50499219D01*
X146768477Y-50304534D01*
X146800500Y-50102352D01*
X146800500Y-49897648D01*
X146768477Y-49695466D01*
X146705220Y-49500781D01*
X146705218Y-49500778D01*
X146705218Y-49500776D01*
X146671503Y-49434607D01*
X146612287Y-49318390D01*
X146604556Y-49307749D01*
X146491971Y-49152786D01*
X146347213Y-49008028D01*
X146181613Y-48887715D01*
X146181612Y-48887714D01*
X146181610Y-48887713D01*
X146124653Y-48858691D01*
X145999223Y-48794781D01*
X145804534Y-48731522D01*
X145629995Y-48703878D01*
X145602352Y-48699500D01*
X145397648Y-48699500D01*
X145373329Y-48703351D01*
X145195465Y-48731522D01*
X145000776Y-48794781D01*
X144818386Y-48887715D01*
X144652786Y-49008028D01*
X144508028Y-49152786D01*
X144387715Y-49318386D01*
X144294781Y-49500776D01*
X144231522Y-49695465D01*
X144199500Y-49897648D01*
X139180500Y-49897648D01*
X139148477Y-49695466D01*
X139085220Y-49500781D01*
X139085218Y-49500778D01*
X139085218Y-49500776D01*
X139051503Y-49434607D01*
X138992287Y-49318390D01*
X138984556Y-49307749D01*
X138871971Y-49152786D01*
X138727213Y-49008028D01*
X138561613Y-48887715D01*
X138561612Y-48887714D01*
X138561610Y-48887713D01*
X138504653Y-48858691D01*
X138379223Y-48794781D01*
X138184534Y-48731522D01*
X138009995Y-48703878D01*
X137982352Y-48699500D01*
X137777648Y-48699500D01*
X137753329Y-48703351D01*
X137575465Y-48731522D01*
X137380776Y-48794781D01*
X137198386Y-48887715D01*
X137032786Y-49008028D01*
X136888028Y-49152786D01*
X136767715Y-49318386D01*
X136674781Y-49500776D01*
X136611522Y-49695465D01*
X136579500Y-49897648D01*
X54500500Y-49897648D01*
X54500500Y-43874038D01*
X89399500Y-43874038D01*
X89399500Y-44125962D01*
X89411188Y-44199755D01*
X89438910Y-44374785D01*
X89516760Y-44614383D01*
X89595413Y-44768747D01*
X89628332Y-44833354D01*
X89631132Y-44838848D01*
X89779201Y-45042649D01*
X89779205Y-45042654D01*
X89957345Y-45220794D01*
X89957350Y-45220798D01*
X90135117Y-45349952D01*
X90161155Y-45368870D01*
X90304184Y-45441747D01*
X90385616Y-45483239D01*
X90385618Y-45483239D01*
X90385621Y-45483241D01*
X90625215Y-45561090D01*
X90874038Y-45600500D01*
X90874039Y-45600500D01*
X91125961Y-45600500D01*
X91125962Y-45600500D01*
X91374785Y-45561090D01*
X91614379Y-45483241D01*
X91838845Y-45368870D01*
X92042656Y-45220793D01*
X92220793Y-45042656D01*
X92368870Y-44838845D01*
X92483241Y-44614379D01*
X92561090Y-44374785D01*
X92600500Y-44125962D01*
X92600500Y-43874038D01*
X92561090Y-43625215D01*
X92483241Y-43385621D01*
X92483239Y-43385618D01*
X92483239Y-43385616D01*
X92405473Y-43232993D01*
X92368870Y-43161155D01*
X92324431Y-43099990D01*
X92324425Y-43099982D01*
X99559500Y-43099982D01*
X99559500Y-44900017D01*
X99570000Y-45002796D01*
X99601467Y-45097755D01*
X99625186Y-45169335D01*
X99717288Y-45318656D01*
X99841344Y-45442712D01*
X99990665Y-45534814D01*
X100157202Y-45589999D01*
X100259990Y-45600500D01*
X100259995Y-45600500D01*
X102060005Y-45600500D01*
X102060010Y-45600500D01*
X102162798Y-45589999D01*
X102329335Y-45534814D01*
X102478656Y-45442712D01*
X102602712Y-45318656D01*
X102694814Y-45169335D01*
X102749999Y-45002798D01*
X102760500Y-44900010D01*
X102760500Y-43099990D01*
X102749999Y-42997202D01*
X102694814Y-42830665D01*
X102602712Y-42681344D01*
X102478656Y-42557288D01*
X102329335Y-42465186D01*
X102162798Y-42410001D01*
X102162796Y-42410000D01*
X102060017Y-42399500D01*
X102060010Y-42399500D01*
X100259990Y-42399500D01*
X100259982Y-42399500D01*
X100157203Y-42410000D01*
X100157202Y-42410001D01*
X100074669Y-42437349D01*
X99990667Y-42465185D01*
X99990662Y-42465187D01*
X99841342Y-42557289D01*
X99717289Y-42681342D01*
X99625187Y-42830662D01*
X99625186Y-42830665D01*
X99570001Y-42997202D01*
X99570001Y-42997203D01*
X99570000Y-42997203D01*
X99559500Y-43099982D01*
X92324425Y-43099982D01*
X92220798Y-42957350D01*
X92220794Y-42957345D01*
X92042654Y-42779205D01*
X92042649Y-42779201D01*
X91838848Y-42631132D01*
X91838847Y-42631131D01*
X91838845Y-42631130D01*
X91768747Y-42595413D01*
X91614383Y-42516760D01*
X91374785Y-42438910D01*
X91125962Y-42399500D01*
X90874038Y-42399500D01*
X90807738Y-42410001D01*
X90625214Y-42438910D01*
X90385616Y-42516760D01*
X90161151Y-42631132D01*
X89957350Y-42779201D01*
X89957345Y-42779205D01*
X89779205Y-42957345D01*
X89779201Y-42957350D01*
X89631132Y-43161151D01*
X89516760Y-43385616D01*
X89438910Y-43625214D01*
X89414638Y-43778461D01*
X89399500Y-43874038D01*
X54500500Y-43874038D01*
X54500500Y-40999635D01*
X117999500Y-40999635D01*
X117999500Y-43000370D01*
X117999501Y-43000376D01*
X118005908Y-43059983D01*
X118056202Y-43194828D01*
X118056206Y-43194835D01*
X118142452Y-43310044D01*
X118142455Y-43310047D01*
X118257664Y-43396293D01*
X118257669Y-43396296D01*
X118285539Y-43406690D01*
X118341473Y-43448561D01*
X118365891Y-43514024D01*
X118351040Y-43582298D01*
X118342525Y-43595759D01*
X118209783Y-43778461D01*
X118105950Y-43982244D01*
X118035278Y-44199750D01*
X118035278Y-44199753D01*
X117999500Y-44425646D01*
X117999500Y-44654353D01*
X118035278Y-44880246D01*
X118035278Y-44880249D01*
X118105950Y-45097755D01*
X118142422Y-45169335D01*
X118209783Y-45301538D01*
X118344214Y-45486566D01*
X118505934Y-45648286D01*
X118590864Y-45709991D01*
X118633529Y-45765321D01*
X118639508Y-45834935D01*
X118606902Y-45896730D01*
X118590864Y-45910627D01*
X118506257Y-45972097D01*
X118344597Y-46133757D01*
X118210211Y-46318723D01*
X118106417Y-46522429D01*
X118035765Y-46739871D01*
X118021491Y-46830000D01*
X119009252Y-46830000D01*
X118987482Y-46867708D01*
X118950000Y-47007591D01*
X118950000Y-47152409D01*
X118987482Y-47292292D01*
X119009252Y-47330000D01*
X118021491Y-47330000D01*
X118035765Y-47420128D01*
X118106417Y-47637570D01*
X118210211Y-47841276D01*
X118344597Y-48026242D01*
X118506257Y-48187902D01*
X118691223Y-48322288D01*
X118894929Y-48426082D01*
X119112371Y-48496734D01*
X119250000Y-48518532D01*
X119250000Y-47570747D01*
X119287708Y-47592518D01*
X119427591Y-47630000D01*
X119572409Y-47630000D01*
X119712292Y-47592518D01*
X119750000Y-47570747D01*
X119750000Y-48518531D01*
X119887628Y-48496734D01*
X120105070Y-48426082D01*
X120308776Y-48322288D01*
X120493742Y-48187902D01*
X120655402Y-48026242D01*
X120789788Y-47841276D01*
X120893582Y-47637570D01*
X120964234Y-47420128D01*
X120978509Y-47330000D01*
X119990748Y-47330000D01*
X120012518Y-47292292D01*
X120050000Y-47152409D01*
X120050000Y-47087648D01*
X205699500Y-47087648D01*
X205699500Y-47292351D01*
X205731522Y-47494534D01*
X205794781Y-47689223D01*
X205887715Y-47871613D01*
X206008028Y-48037213D01*
X206152786Y-48181971D01*
X206307749Y-48294556D01*
X206318390Y-48302287D01*
X206434607Y-48361503D01*
X206500776Y-48395218D01*
X206500778Y-48395218D01*
X206500781Y-48395220D01*
X206605137Y-48429127D01*
X206695465Y-48458477D01*
X206796557Y-48474488D01*
X206897648Y-48490500D01*
X206897649Y-48490500D01*
X207102351Y-48490500D01*
X207102352Y-48490500D01*
X207304534Y-48458477D01*
X207499219Y-48395220D01*
X207681610Y-48302287D01*
X207774590Y-48234732D01*
X207847213Y-48181971D01*
X207847215Y-48181968D01*
X207847219Y-48181966D01*
X207991966Y-48037219D01*
X207991968Y-48037215D01*
X207991971Y-48037213D01*
X208044732Y-47964590D01*
X208112287Y-47871610D01*
X208205220Y-47689219D01*
X208268477Y-47494534D01*
X208300500Y-47292352D01*
X208300500Y-47087648D01*
X208268477Y-46885466D01*
X208205220Y-46690781D01*
X208205218Y-46690778D01*
X208205218Y-46690776D01*
X208171503Y-46624607D01*
X208112287Y-46508390D01*
X208104556Y-46497749D01*
X207991971Y-46342786D01*
X207847213Y-46198028D01*
X207681613Y-46077715D01*
X207681612Y-46077714D01*
X207681610Y-46077713D01*
X207624653Y-46048691D01*
X207499223Y-45984781D01*
X207304534Y-45921522D01*
X207129995Y-45893878D01*
X207102352Y-45889500D01*
X206897648Y-45889500D01*
X206873329Y-45893351D01*
X206695465Y-45921522D01*
X206500776Y-45984781D01*
X206318386Y-46077715D01*
X206152786Y-46198028D01*
X206008028Y-46342786D01*
X205887715Y-46508386D01*
X205794781Y-46690776D01*
X205731522Y-46885465D01*
X205699500Y-47087648D01*
X120050000Y-47087648D01*
X120050000Y-47007591D01*
X120012518Y-46867708D01*
X119990748Y-46830000D01*
X120978509Y-46830000D01*
X120964234Y-46739871D01*
X120893582Y-46522429D01*
X120789788Y-46318723D01*
X120655402Y-46133757D01*
X120493742Y-45972097D01*
X120409135Y-45910626D01*
X120366470Y-45855296D01*
X120360491Y-45785682D01*
X120393097Y-45723887D01*
X120409125Y-45709999D01*
X120494066Y-45648286D01*
X120655786Y-45486566D01*
X120790217Y-45301538D01*
X120894048Y-45097758D01*
X120958302Y-44900004D01*
X120964721Y-44880249D01*
X120964721Y-44880248D01*
X120964722Y-44880245D01*
X121000500Y-44654354D01*
X121000500Y-44425646D01*
X120964722Y-44199755D01*
X120964721Y-44199751D01*
X120964721Y-44199750D01*
X120894049Y-43982244D01*
X120798609Y-43794933D01*
X120798608Y-43794931D01*
X120790218Y-43778463D01*
X120757182Y-43732993D01*
X120657472Y-43595755D01*
X120633994Y-43529953D01*
X120649819Y-43461899D01*
X120699925Y-43413204D01*
X120714455Y-43406692D01*
X120742331Y-43396296D01*
X120857546Y-43310046D01*
X120943796Y-43194831D01*
X120994091Y-43059983D01*
X121000500Y-43000373D01*
X121000499Y-40999628D01*
X120994091Y-40940017D01*
X120943796Y-40805169D01*
X120943795Y-40805168D01*
X120943793Y-40805164D01*
X120857547Y-40689955D01*
X120857544Y-40689952D01*
X120742335Y-40603706D01*
X120742328Y-40603702D01*
X120607482Y-40553408D01*
X120607483Y-40553408D01*
X120547883Y-40547001D01*
X120547881Y-40547000D01*
X120547873Y-40547000D01*
X120547864Y-40547000D01*
X118452129Y-40547000D01*
X118452123Y-40547001D01*
X118392516Y-40553408D01*
X118257671Y-40603702D01*
X118257664Y-40603706D01*
X118142455Y-40689952D01*
X118142452Y-40689955D01*
X118056206Y-40805164D01*
X118056202Y-40805171D01*
X118005908Y-40940017D01*
X117999544Y-40999219D01*
X117999501Y-40999623D01*
X117999500Y-40999635D01*
X54500500Y-40999635D01*
X54500500Y-40397648D01*
X136579500Y-40397648D01*
X136579500Y-40602352D01*
X136583878Y-40629995D01*
X136611522Y-40804534D01*
X136674781Y-40999223D01*
X136767715Y-41181613D01*
X136888028Y-41347213D01*
X137032786Y-41491971D01*
X137187749Y-41604556D01*
X137198390Y-41612287D01*
X137314607Y-41671503D01*
X137380776Y-41705218D01*
X137380778Y-41705218D01*
X137380781Y-41705220D01*
X137485137Y-41739127D01*
X137575465Y-41768477D01*
X137676557Y-41784488D01*
X137777648Y-41800500D01*
X137777649Y-41800500D01*
X137982351Y-41800500D01*
X137982352Y-41800500D01*
X138184534Y-41768477D01*
X138379219Y-41705220D01*
X138561610Y-41612287D01*
X138654590Y-41544732D01*
X138727213Y-41491971D01*
X138727215Y-41491968D01*
X138727219Y-41491966D01*
X138871966Y-41347219D01*
X138871968Y-41347215D01*
X138871971Y-41347213D01*
X138924732Y-41274590D01*
X138992287Y-41181610D01*
X139085220Y-40999219D01*
X139148477Y-40804534D01*
X139180500Y-40602352D01*
X139180500Y-40397648D01*
X144199500Y-40397648D01*
X144199500Y-40602352D01*
X144203878Y-40629995D01*
X144231522Y-40804534D01*
X144294781Y-40999223D01*
X144387715Y-41181613D01*
X144508028Y-41347213D01*
X144652786Y-41491971D01*
X144807749Y-41604556D01*
X144818390Y-41612287D01*
X144934607Y-41671503D01*
X145000776Y-41705218D01*
X145000778Y-41705218D01*
X145000781Y-41705220D01*
X145105137Y-41739127D01*
X145195465Y-41768477D01*
X145296557Y-41784488D01*
X145397648Y-41800500D01*
X145397649Y-41800500D01*
X145602351Y-41800500D01*
X145602352Y-41800500D01*
X145804534Y-41768477D01*
X145999219Y-41705220D01*
X146181610Y-41612287D01*
X146274590Y-41544732D01*
X146347213Y-41491971D01*
X146347215Y-41491968D01*
X146347219Y-41491966D01*
X146491966Y-41347219D01*
X146491968Y-41347215D01*
X146491971Y-41347213D01*
X146544732Y-41274590D01*
X146612287Y-41181610D01*
X146705220Y-40999219D01*
X146768477Y-40804534D01*
X146800500Y-40602352D01*
X146800500Y-40397648D01*
X146768477Y-40195466D01*
X146705220Y-40000781D01*
X146705218Y-40000778D01*
X146705218Y-40000776D01*
X146671503Y-39934607D01*
X146612287Y-39818390D01*
X146551928Y-39735312D01*
X146491971Y-39652786D01*
X146347213Y-39508028D01*
X146181613Y-39387715D01*
X146181612Y-39387714D01*
X146181610Y-39387713D01*
X146087560Y-39339792D01*
X145999223Y-39294781D01*
X145804534Y-39231522D01*
X145629995Y-39203878D01*
X145602352Y-39199500D01*
X145397648Y-39199500D01*
X145373329Y-39203351D01*
X145195465Y-39231522D01*
X145000776Y-39294781D01*
X144818386Y-39387715D01*
X144652786Y-39508028D01*
X144508028Y-39652786D01*
X144387715Y-39818386D01*
X144294781Y-40000776D01*
X144231522Y-40195465D01*
X144216204Y-40292184D01*
X144199500Y-40397648D01*
X139180500Y-40397648D01*
X139148477Y-40195466D01*
X139085220Y-40000781D01*
X139085218Y-40000778D01*
X139085218Y-40000776D01*
X139051503Y-39934607D01*
X138992287Y-39818390D01*
X138931928Y-39735312D01*
X138871971Y-39652786D01*
X138727213Y-39508028D01*
X138561613Y-39387715D01*
X138561612Y-39387714D01*
X138561610Y-39387713D01*
X138467560Y-39339792D01*
X138379223Y-39294781D01*
X138184534Y-39231522D01*
X138009995Y-39203878D01*
X137982352Y-39199500D01*
X137777648Y-39199500D01*
X137753329Y-39203351D01*
X137575465Y-39231522D01*
X137380776Y-39294781D01*
X137198386Y-39387715D01*
X137032786Y-39508028D01*
X136888028Y-39652786D01*
X136767715Y-39818386D01*
X136674781Y-40000776D01*
X136611522Y-40195465D01*
X136596204Y-40292184D01*
X136579500Y-40397648D01*
X54500500Y-40397648D01*
X54500500Y-35916995D01*
X66532000Y-35916995D01*
X66532000Y-36153004D01*
X66532001Y-36153020D01*
X66562806Y-36387010D01*
X66623894Y-36614993D01*
X66714214Y-36833045D01*
X66714219Y-36833056D01*
X66781798Y-36950104D01*
X66832227Y-37037450D01*
X66832229Y-37037453D01*
X66832230Y-37037454D01*
X66975906Y-37224697D01*
X66975912Y-37224704D01*
X67142795Y-37391587D01*
X67142801Y-37391592D01*
X67330050Y-37535273D01*
X67461418Y-37611118D01*
X67534443Y-37653280D01*
X67534448Y-37653282D01*
X67534451Y-37653284D01*
X67752507Y-37743606D01*
X67980486Y-37804693D01*
X68214489Y-37835500D01*
X68214496Y-37835500D01*
X68450504Y-37835500D01*
X68450511Y-37835500D01*
X68684514Y-37804693D01*
X68912493Y-37743606D01*
X69130549Y-37653284D01*
X69334950Y-37535273D01*
X69522199Y-37391592D01*
X69689092Y-37224699D01*
X69832773Y-37037450D01*
X69950784Y-36833049D01*
X70041106Y-36614993D01*
X70102193Y-36387014D01*
X70133000Y-36153011D01*
X70133000Y-35916989D01*
X70102193Y-35682986D01*
X70041106Y-35455007D01*
X69950784Y-35236951D01*
X69950782Y-35236948D01*
X69950780Y-35236943D01*
X69908618Y-35163918D01*
X69832773Y-35032550D01*
X69689092Y-34845301D01*
X69689087Y-34845295D01*
X69522204Y-34678412D01*
X69522197Y-34678406D01*
X69334954Y-34534730D01*
X69334953Y-34534729D01*
X69334950Y-34534727D01*
X69253457Y-34487677D01*
X69130556Y-34416719D01*
X69130545Y-34416714D01*
X68912493Y-34326394D01*
X68684510Y-34265306D01*
X68450520Y-34234501D01*
X68450517Y-34234500D01*
X68450511Y-34234500D01*
X68214489Y-34234500D01*
X68214483Y-34234500D01*
X68214479Y-34234501D01*
X67980489Y-34265306D01*
X67752506Y-34326394D01*
X67534454Y-34416714D01*
X67534443Y-34416719D01*
X67330045Y-34534730D01*
X67142802Y-34678406D01*
X67142795Y-34678412D01*
X66975912Y-34845295D01*
X66975906Y-34845302D01*
X66832230Y-35032545D01*
X66714219Y-35236943D01*
X66714214Y-35236954D01*
X66623894Y-35455006D01*
X66562806Y-35682989D01*
X66532001Y-35916979D01*
X66532000Y-35916995D01*
X54500500Y-35916995D01*
X54500500Y-29854983D01*
X66532000Y-29854983D01*
X66532000Y-32055001D01*
X66532001Y-32055018D01*
X66542500Y-32157796D01*
X66542501Y-32157799D01*
X66578131Y-32265321D01*
X66597686Y-32324334D01*
X66689788Y-32473656D01*
X66813844Y-32597712D01*
X66963166Y-32689814D01*
X67129703Y-32744999D01*
X67232491Y-32755500D01*
X69432508Y-32755499D01*
X69535297Y-32744999D01*
X69701834Y-32689814D01*
X69851156Y-32597712D01*
X69975212Y-32473656D01*
X70067314Y-32324334D01*
X70122499Y-32157797D01*
X70133000Y-32055009D01*
X70132999Y-29874038D01*
X89399500Y-29874038D01*
X89399500Y-30125962D01*
X89423654Y-30278461D01*
X89438910Y-30374785D01*
X89516760Y-30614383D01*
X89631132Y-30838848D01*
X89779201Y-31042649D01*
X89779205Y-31042654D01*
X89957345Y-31220794D01*
X89957350Y-31220798D01*
X90131347Y-31347213D01*
X90161155Y-31368870D01*
X90304184Y-31441747D01*
X90385616Y-31483239D01*
X90385618Y-31483239D01*
X90385621Y-31483241D01*
X90625215Y-31561090D01*
X90874038Y-31600500D01*
X90874039Y-31600500D01*
X91125961Y-31600500D01*
X91125962Y-31600500D01*
X91374785Y-31561090D01*
X91614379Y-31483241D01*
X91838845Y-31368870D01*
X92042656Y-31220793D01*
X92220793Y-31042656D01*
X92368870Y-30838845D01*
X92483241Y-30614379D01*
X92561090Y-30374785D01*
X92600500Y-30125962D01*
X92600500Y-29874038D01*
X92561090Y-29625215D01*
X92483241Y-29385621D01*
X92483239Y-29385618D01*
X92483239Y-29385616D01*
X92398947Y-29220185D01*
X92368870Y-29161155D01*
X92324431Y-29099990D01*
X92324425Y-29099982D01*
X99559500Y-29099982D01*
X99559500Y-30900017D01*
X99570000Y-31002796D01*
X99620221Y-31154353D01*
X99625186Y-31169335D01*
X99717288Y-31318656D01*
X99841344Y-31442712D01*
X99990665Y-31534814D01*
X100157202Y-31589999D01*
X100259990Y-31600500D01*
X100259995Y-31600500D01*
X102060005Y-31600500D01*
X102060010Y-31600500D01*
X102162798Y-31589999D01*
X102329335Y-31534814D01*
X102478656Y-31442712D01*
X102602712Y-31318656D01*
X102694814Y-31169335D01*
X102749999Y-31002798D01*
X102760500Y-30900010D01*
X102760500Y-29099990D01*
X102749999Y-28997202D01*
X102694814Y-28830665D01*
X102602712Y-28681344D01*
X102478656Y-28557288D01*
X102329335Y-28465186D01*
X102162798Y-28410001D01*
X102162796Y-28410000D01*
X102060017Y-28399500D01*
X102060010Y-28399500D01*
X100259990Y-28399500D01*
X100259982Y-28399500D01*
X100157203Y-28410000D01*
X100157202Y-28410001D01*
X100074669Y-28437349D01*
X99990667Y-28465185D01*
X99990662Y-28465187D01*
X99841342Y-28557289D01*
X99717289Y-28681342D01*
X99625187Y-28830662D01*
X99625186Y-28830665D01*
X99570001Y-28997202D01*
X99570001Y-28997203D01*
X99570000Y-28997203D01*
X99559500Y-29099982D01*
X92324425Y-29099982D01*
X92220798Y-28957350D01*
X92220794Y-28957345D01*
X92042654Y-28779205D01*
X92042649Y-28779201D01*
X91838848Y-28631132D01*
X91838847Y-28631131D01*
X91838845Y-28631130D01*
X91768747Y-28595413D01*
X91614383Y-28516760D01*
X91374785Y-28438910D01*
X91125962Y-28399500D01*
X90874038Y-28399500D01*
X90807738Y-28410001D01*
X90625214Y-28438910D01*
X90385616Y-28516760D01*
X90161151Y-28631132D01*
X89957350Y-28779201D01*
X89957345Y-28779205D01*
X89779205Y-28957345D01*
X89779201Y-28957350D01*
X89631132Y-29161151D01*
X89516760Y-29385616D01*
X89438910Y-29625214D01*
X89438910Y-29625215D01*
X89399500Y-29874038D01*
X70132999Y-29874038D01*
X70132999Y-29854992D01*
X70122499Y-29752203D01*
X70067314Y-29585666D01*
X69975212Y-29436344D01*
X69851156Y-29312288D01*
X69758388Y-29255069D01*
X69701836Y-29220187D01*
X69701831Y-29220185D01*
X69700362Y-29219698D01*
X69535297Y-29165001D01*
X69535295Y-29165000D01*
X69432510Y-29154500D01*
X67232498Y-29154500D01*
X67232481Y-29154501D01*
X67129703Y-29165000D01*
X67129700Y-29165001D01*
X66963168Y-29220185D01*
X66963163Y-29220187D01*
X66813842Y-29312289D01*
X66689789Y-29436342D01*
X66597687Y-29585663D01*
X66597686Y-29585666D01*
X66542501Y-29752203D01*
X66542501Y-29752204D01*
X66542500Y-29752204D01*
X66532000Y-29854983D01*
X54500500Y-29854983D01*
X54500500Y-27499635D01*
X117999500Y-27499635D01*
X117999500Y-29500370D01*
X117999501Y-29500376D01*
X118005908Y-29559983D01*
X118056202Y-29694828D01*
X118056206Y-29694835D01*
X118142452Y-29810044D01*
X118142455Y-29810047D01*
X118257664Y-29896293D01*
X118257669Y-29896296D01*
X118285539Y-29906690D01*
X118341473Y-29948561D01*
X118365891Y-30014024D01*
X118351040Y-30082298D01*
X118342525Y-30095759D01*
X118209783Y-30278461D01*
X118105950Y-30482244D01*
X118035278Y-30699750D01*
X118035278Y-30699753D01*
X118003561Y-30900004D01*
X117999500Y-30925646D01*
X117999500Y-31154354D01*
X118010023Y-31220793D01*
X118035278Y-31380246D01*
X118035278Y-31380249D01*
X118105950Y-31597755D01*
X118192938Y-31768477D01*
X118209783Y-31801538D01*
X118344214Y-31986566D01*
X118505934Y-32148286D01*
X118590864Y-32209991D01*
X118633529Y-32265321D01*
X118639508Y-32334935D01*
X118606902Y-32396730D01*
X118590864Y-32410627D01*
X118506257Y-32472097D01*
X118344597Y-32633757D01*
X118210211Y-32818723D01*
X118106417Y-33022429D01*
X118035765Y-33239871D01*
X118021491Y-33330000D01*
X119009252Y-33330000D01*
X118987482Y-33367708D01*
X118950000Y-33507591D01*
X118950000Y-33652409D01*
X118987482Y-33792292D01*
X119009252Y-33830000D01*
X118021491Y-33830000D01*
X118035765Y-33920128D01*
X118106417Y-34137570D01*
X118210211Y-34341276D01*
X118344597Y-34526242D01*
X118506257Y-34687902D01*
X118691223Y-34822288D01*
X118894929Y-34926082D01*
X119112371Y-34996734D01*
X119250000Y-35018532D01*
X119250000Y-34070747D01*
X119287708Y-34092518D01*
X119427591Y-34130000D01*
X119572409Y-34130000D01*
X119712292Y-34092518D01*
X119750000Y-34070747D01*
X119750000Y-35018531D01*
X119887628Y-34996734D01*
X120105070Y-34926082D01*
X120308776Y-34822288D01*
X120493742Y-34687902D01*
X120655402Y-34526242D01*
X120789788Y-34341276D01*
X120893582Y-34137570D01*
X120964234Y-33920128D01*
X120978509Y-33830000D01*
X119990748Y-33830000D01*
X120012518Y-33792292D01*
X120050000Y-33652409D01*
X120050000Y-33507591D01*
X120012518Y-33367708D01*
X119990748Y-33330000D01*
X120978509Y-33330000D01*
X120971895Y-33288239D01*
X120969594Y-33273713D01*
X193649500Y-33273713D01*
X193649500Y-33486287D01*
X193682754Y-33696243D01*
X193726214Y-33830000D01*
X193748444Y-33898414D01*
X193844951Y-34087820D01*
X193969890Y-34259786D01*
X194120213Y-34410109D01*
X194292182Y-34535050D01*
X194300946Y-34539516D01*
X194351742Y-34587491D01*
X194368536Y-34655312D01*
X194345998Y-34721447D01*
X194300946Y-34760484D01*
X194292182Y-34764949D01*
X194120213Y-34889890D01*
X193969890Y-35040213D01*
X193844951Y-35212179D01*
X193748444Y-35401585D01*
X193682753Y-35603760D01*
X193649500Y-35813713D01*
X193649500Y-36026287D01*
X193682754Y-36236243D01*
X193731741Y-36387010D01*
X193748444Y-36438414D01*
X193844951Y-36627820D01*
X193969890Y-36799786D01*
X194120213Y-36950109D01*
X194292182Y-37075050D01*
X194300946Y-37079516D01*
X194351742Y-37127491D01*
X194368536Y-37195312D01*
X194345998Y-37261447D01*
X194300946Y-37300484D01*
X194292182Y-37304949D01*
X194120213Y-37429890D01*
X193969890Y-37580213D01*
X193844951Y-37752179D01*
X193748444Y-37941585D01*
X193682753Y-38143760D01*
X193649500Y-38353713D01*
X193649500Y-38566286D01*
X193682753Y-38776239D01*
X193748444Y-38978414D01*
X193844951Y-39167820D01*
X193969890Y-39339786D01*
X194120213Y-39490109D01*
X194292182Y-39615050D01*
X194300946Y-39619516D01*
X194351742Y-39667491D01*
X194368536Y-39735312D01*
X194345998Y-39801447D01*
X194300946Y-39840484D01*
X194292182Y-39844949D01*
X194120213Y-39969890D01*
X193969890Y-40120213D01*
X193844951Y-40292179D01*
X193748444Y-40481585D01*
X193682753Y-40683760D01*
X193649500Y-40893713D01*
X193649500Y-41106286D01*
X193682753Y-41316239D01*
X193748444Y-41518414D01*
X193844951Y-41707820D01*
X193969890Y-41879786D01*
X194083818Y-41993714D01*
X194117303Y-42055037D01*
X194112319Y-42124729D01*
X194070447Y-42180662D01*
X194039471Y-42197577D01*
X193907912Y-42246646D01*
X193907906Y-42246649D01*
X193792812Y-42332809D01*
X193792809Y-42332812D01*
X193706649Y-42447906D01*
X193706645Y-42447913D01*
X193656403Y-42582620D01*
X193656401Y-42582627D01*
X193650000Y-42642155D01*
X193650000Y-43290000D01*
X194566988Y-43290000D01*
X194534075Y-43347007D01*
X194500000Y-43474174D01*
X194500000Y-43605826D01*
X194534075Y-43732993D01*
X194566988Y-43790000D01*
X193650000Y-43790000D01*
X193650000Y-44437844D01*
X193656401Y-44497372D01*
X193656403Y-44497379D01*
X193706645Y-44632086D01*
X193706649Y-44632093D01*
X193792809Y-44747187D01*
X193792812Y-44747190D01*
X193907906Y-44833350D01*
X193907913Y-44833354D01*
X194042620Y-44883596D01*
X194042627Y-44883598D01*
X194102155Y-44889999D01*
X194102172Y-44890000D01*
X194750000Y-44890000D01*
X194750000Y-43973012D01*
X194807007Y-44005925D01*
X194934174Y-44040000D01*
X195065826Y-44040000D01*
X195192993Y-44005925D01*
X195250000Y-43973012D01*
X195250000Y-44890000D01*
X195897828Y-44890000D01*
X195897844Y-44889999D01*
X195957372Y-44883598D01*
X195957379Y-44883596D01*
X196092086Y-44833354D01*
X196092093Y-44833350D01*
X196207187Y-44747190D01*
X196207190Y-44747187D01*
X196293350Y-44632093D01*
X196293354Y-44632086D01*
X196343596Y-44497379D01*
X196343598Y-44497372D01*
X196349999Y-44437844D01*
X196350000Y-44437827D01*
X196350000Y-43790000D01*
X195433012Y-43790000D01*
X195465925Y-43732993D01*
X195500000Y-43605826D01*
X195500000Y-43474174D01*
X195465925Y-43347007D01*
X195433012Y-43290000D01*
X196350000Y-43290000D01*
X196350000Y-42642172D01*
X196349999Y-42642155D01*
X196343598Y-42582627D01*
X196343596Y-42582620D01*
X196293354Y-42447913D01*
X196293350Y-42447906D01*
X196207190Y-42332812D01*
X196207187Y-42332809D01*
X196092093Y-42246649D01*
X196092088Y-42246646D01*
X195960528Y-42197577D01*
X195904595Y-42155705D01*
X195880178Y-42090241D01*
X195895030Y-42021968D01*
X195916175Y-41993720D01*
X196030104Y-41879792D01*
X196155051Y-41707816D01*
X196251557Y-41518412D01*
X196317246Y-41316243D01*
X196350500Y-41106287D01*
X196350500Y-40893713D01*
X196317246Y-40683757D01*
X196251557Y-40481588D01*
X196155051Y-40292184D01*
X196155049Y-40292181D01*
X196155048Y-40292179D01*
X196030109Y-40120213D01*
X195879786Y-39969890D01*
X195707820Y-39844951D01*
X195707115Y-39844591D01*
X195699054Y-39840485D01*
X195648259Y-39792512D01*
X195631463Y-39724692D01*
X195653999Y-39658556D01*
X195699054Y-39619515D01*
X195707816Y-39615051D01*
X195729789Y-39599086D01*
X195879786Y-39490109D01*
X195879788Y-39490106D01*
X195879792Y-39490104D01*
X196030104Y-39339792D01*
X196030106Y-39339788D01*
X196030109Y-39339786D01*
X196155048Y-39167820D01*
X196155047Y-39167820D01*
X196155051Y-39167816D01*
X196251557Y-38978412D01*
X196317246Y-38776243D01*
X196350500Y-38566287D01*
X196350500Y-38353713D01*
X196317246Y-38143757D01*
X196251557Y-37941588D01*
X196155051Y-37752184D01*
X196155049Y-37752181D01*
X196155048Y-37752179D01*
X196030109Y-37580213D01*
X195879786Y-37429890D01*
X195707820Y-37304951D01*
X195707115Y-37304591D01*
X195699054Y-37300485D01*
X195648259Y-37252512D01*
X195631463Y-37184692D01*
X195653999Y-37118556D01*
X195699054Y-37079515D01*
X195707816Y-37075051D01*
X195759570Y-37037450D01*
X195879786Y-36950109D01*
X195879788Y-36950106D01*
X195879792Y-36950104D01*
X196030104Y-36799792D01*
X196030106Y-36799788D01*
X196030109Y-36799786D01*
X196155048Y-36627820D01*
X196155047Y-36627820D01*
X196155051Y-36627816D01*
X196251557Y-36438412D01*
X196317246Y-36236243D01*
X196350500Y-36026287D01*
X196350500Y-35813713D01*
X196317246Y-35603757D01*
X196251557Y-35401588D01*
X196155051Y-35212184D01*
X196155049Y-35212181D01*
X196155048Y-35212179D01*
X196030109Y-35040213D01*
X195879786Y-34889890D01*
X195707820Y-34764951D01*
X195707115Y-34764591D01*
X195699054Y-34760485D01*
X195648259Y-34712512D01*
X195631463Y-34644692D01*
X195653999Y-34578556D01*
X195699054Y-34539515D01*
X195707816Y-34535051D01*
X195729789Y-34519086D01*
X195879786Y-34410109D01*
X195879788Y-34410106D01*
X195879792Y-34410104D01*
X196030104Y-34259792D01*
X196030106Y-34259788D01*
X196030109Y-34259786D01*
X196155048Y-34087820D01*
X196155047Y-34087820D01*
X196155051Y-34087816D01*
X196251557Y-33898412D01*
X196317246Y-33696243D01*
X196350500Y-33486287D01*
X196350500Y-33273713D01*
X196317246Y-33063757D01*
X196251557Y-32861588D01*
X196155051Y-32672184D01*
X196155049Y-32672181D01*
X196155048Y-32672179D01*
X196030109Y-32500213D01*
X195879786Y-32349890D01*
X195707820Y-32224951D01*
X195518414Y-32128444D01*
X195518413Y-32128443D01*
X195518412Y-32128443D01*
X195316243Y-32062754D01*
X195316241Y-32062753D01*
X195316240Y-32062753D01*
X195154957Y-32037208D01*
X195106287Y-32029500D01*
X194893713Y-32029500D01*
X194845042Y-32037208D01*
X194683760Y-32062753D01*
X194481585Y-32128444D01*
X194292179Y-32224951D01*
X194120213Y-32349890D01*
X193969890Y-32500213D01*
X193844951Y-32672179D01*
X193748444Y-32861585D01*
X193682753Y-33063760D01*
X193654860Y-33239871D01*
X193649500Y-33273713D01*
X120969594Y-33273713D01*
X120964234Y-33239871D01*
X120893582Y-33022429D01*
X120789788Y-32818723D01*
X120655402Y-32633757D01*
X120493742Y-32472097D01*
X120409135Y-32410626D01*
X120366470Y-32355296D01*
X120360491Y-32285682D01*
X120393097Y-32223887D01*
X120409125Y-32209999D01*
X120494066Y-32148286D01*
X120655786Y-31986566D01*
X120790217Y-31801538D01*
X120894048Y-31597758D01*
X120905962Y-31561090D01*
X120964721Y-31380249D01*
X120964721Y-31380248D01*
X120964722Y-31380245D01*
X121000500Y-31154354D01*
X121000500Y-30925646D01*
X120964722Y-30699755D01*
X120964721Y-30699751D01*
X120964721Y-30699750D01*
X120894048Y-30482242D01*
X120894048Y-30482241D01*
X120877148Y-30449072D01*
X120877147Y-30449071D01*
X120850945Y-30397648D01*
X136889500Y-30397648D01*
X136889500Y-30602351D01*
X136921522Y-30804534D01*
X136984781Y-30999223D01*
X137006911Y-31042654D01*
X137063825Y-31154354D01*
X137077715Y-31181613D01*
X137198028Y-31347213D01*
X137342786Y-31491971D01*
X137477713Y-31589999D01*
X137508390Y-31612287D01*
X137624607Y-31671503D01*
X137690776Y-31705218D01*
X137690778Y-31705218D01*
X137690781Y-31705220D01*
X137795137Y-31739127D01*
X137885465Y-31768477D01*
X137986557Y-31784488D01*
X138087648Y-31800500D01*
X138087649Y-31800500D01*
X138292351Y-31800500D01*
X138292352Y-31800500D01*
X138494534Y-31768477D01*
X138689219Y-31705220D01*
X138871610Y-31612287D01*
X138978246Y-31534812D01*
X139037213Y-31491971D01*
X139037215Y-31491968D01*
X139037219Y-31491966D01*
X139181966Y-31347219D01*
X139181968Y-31347215D01*
X139181971Y-31347213D01*
X139273819Y-31220793D01*
X139302287Y-31181610D01*
X139395220Y-30999219D01*
X139458477Y-30804534D01*
X139490500Y-30602352D01*
X139490500Y-30397648D01*
X144509500Y-30397648D01*
X144509500Y-30602351D01*
X144541522Y-30804534D01*
X144604781Y-30999223D01*
X144626911Y-31042654D01*
X144683825Y-31154354D01*
X144697715Y-31181613D01*
X144818028Y-31347213D01*
X144962786Y-31491971D01*
X145097713Y-31589999D01*
X145128390Y-31612287D01*
X145244607Y-31671503D01*
X145310776Y-31705218D01*
X145310778Y-31705218D01*
X145310781Y-31705220D01*
X145415137Y-31739127D01*
X145505465Y-31768477D01*
X145606557Y-31784488D01*
X145707648Y-31800500D01*
X145707649Y-31800500D01*
X145912351Y-31800500D01*
X145912352Y-31800500D01*
X146114534Y-31768477D01*
X146309219Y-31705220D01*
X146491610Y-31612287D01*
X146598246Y-31534812D01*
X146657213Y-31491971D01*
X146657215Y-31491968D01*
X146657219Y-31491966D01*
X146801966Y-31347219D01*
X146801968Y-31347215D01*
X146801971Y-31347213D01*
X146893819Y-31220793D01*
X146922287Y-31181610D01*
X147015220Y-30999219D01*
X147078477Y-30804534D01*
X147110500Y-30602352D01*
X147110500Y-30397648D01*
X147106879Y-30374785D01*
X147078477Y-30195465D01*
X147041706Y-30082298D01*
X147015220Y-30000781D01*
X147015218Y-30000778D01*
X147015218Y-30000776D01*
X146967278Y-29906690D01*
X146922287Y-29818390D01*
X146914556Y-29807749D01*
X146801971Y-29652786D01*
X146657213Y-29508028D01*
X146491613Y-29387715D01*
X146491612Y-29387714D01*
X146491610Y-29387713D01*
X146434653Y-29358691D01*
X146309223Y-29294781D01*
X146114534Y-29231522D01*
X145939995Y-29203878D01*
X145912352Y-29199500D01*
X145707648Y-29199500D01*
X145683329Y-29203351D01*
X145505465Y-29231522D01*
X145310776Y-29294781D01*
X145128386Y-29387715D01*
X144962786Y-29508028D01*
X144818028Y-29652786D01*
X144697715Y-29818386D01*
X144604781Y-30000776D01*
X144541522Y-30195465D01*
X144509500Y-30397648D01*
X139490500Y-30397648D01*
X139486879Y-30374785D01*
X139458477Y-30195465D01*
X139421706Y-30082298D01*
X139395220Y-30000781D01*
X139395218Y-30000778D01*
X139395218Y-30000776D01*
X139347278Y-29906690D01*
X139302287Y-29818390D01*
X139294556Y-29807749D01*
X139181971Y-29652786D01*
X139037213Y-29508028D01*
X138871613Y-29387715D01*
X138871612Y-29387714D01*
X138871610Y-29387713D01*
X138814653Y-29358691D01*
X138689223Y-29294781D01*
X138494534Y-29231522D01*
X138319995Y-29203878D01*
X138292352Y-29199500D01*
X138087648Y-29199500D01*
X138063329Y-29203351D01*
X137885465Y-29231522D01*
X137690776Y-29294781D01*
X137508386Y-29387715D01*
X137342786Y-29508028D01*
X137198028Y-29652786D01*
X137077715Y-29818386D01*
X136984781Y-30000776D01*
X136921522Y-30195465D01*
X136889500Y-30397648D01*
X120850945Y-30397648D01*
X120790216Y-30278461D01*
X120657472Y-30095755D01*
X120633994Y-30029953D01*
X120649819Y-29961899D01*
X120699925Y-29913204D01*
X120714455Y-29906692D01*
X120742331Y-29896296D01*
X120857546Y-29810046D01*
X120943796Y-29694831D01*
X120994091Y-29559983D01*
X121000500Y-29500373D01*
X121000499Y-27499628D01*
X120994091Y-27440017D01*
X120943796Y-27305169D01*
X120943795Y-27305168D01*
X120943793Y-27305164D01*
X120857547Y-27189955D01*
X120857544Y-27189952D01*
X120742335Y-27103706D01*
X120742328Y-27103702D01*
X120607482Y-27053408D01*
X120607483Y-27053408D01*
X120547883Y-27047001D01*
X120547881Y-27047000D01*
X120547873Y-27047000D01*
X120547864Y-27047000D01*
X118452129Y-27047000D01*
X118452123Y-27047001D01*
X118392516Y-27053408D01*
X118257671Y-27103702D01*
X118257664Y-27103706D01*
X118142455Y-27189952D01*
X118142452Y-27189955D01*
X118056206Y-27305164D01*
X118056202Y-27305171D01*
X118005908Y-27440017D01*
X117999501Y-27499616D01*
X117999501Y-27499623D01*
X117999500Y-27499635D01*
X54500500Y-27499635D01*
X54500500Y-16624500D01*
X54520185Y-16557461D01*
X54572989Y-16511706D01*
X54624500Y-16500500D01*
X210375500Y-16500500D01*
X210442539Y-16520185D01*
G37*
%TD.AperFunction*%
%TD*%
M02*
