%TF.GenerationSoftware,KiCad,Pcbnew,9.0.4*%
%TF.CreationDate,2026-01-03T14:17:46-05:00*%
%TF.ProjectId,watering_pcb,77617465-7269-46e6-975f-7063622e6b69,rev?*%
%TF.SameCoordinates,Original*%
%TF.FileFunction,Legend,Top*%
%TF.FilePolarity,Positive*%
%FSLAX46Y46*%
G04 Gerber Fmt 4.6, Leading zero omitted, Abs format (unit mm)*
G04 Created by KiCad (PCBNEW 9.0.4) date 2026-01-03 14:17:46*
%MOMM*%
%LPD*%
G01*
G04 APERTURE LIST*
%ADD10C,0.150000*%
%ADD11C,0.120000*%
G04 APERTURE END LIST*
D10*
X191619047Y-45764819D02*
X191619047Y-46479104D01*
X191619047Y-46479104D02*
X191571428Y-46621961D01*
X191571428Y-46621961D02*
X191476190Y-46717200D01*
X191476190Y-46717200D02*
X191333333Y-46764819D01*
X191333333Y-46764819D02*
X191238095Y-46764819D01*
X192285714Y-45764819D02*
X192476190Y-45764819D01*
X192476190Y-45764819D02*
X192571428Y-45812438D01*
X192571428Y-45812438D02*
X192666666Y-45907676D01*
X192666666Y-45907676D02*
X192714285Y-46098152D01*
X192714285Y-46098152D02*
X192714285Y-46431485D01*
X192714285Y-46431485D02*
X192666666Y-46621961D01*
X192666666Y-46621961D02*
X192571428Y-46717200D01*
X192571428Y-46717200D02*
X192476190Y-46764819D01*
X192476190Y-46764819D02*
X192285714Y-46764819D01*
X192285714Y-46764819D02*
X192190476Y-46717200D01*
X192190476Y-46717200D02*
X192095238Y-46621961D01*
X192095238Y-46621961D02*
X192047619Y-46431485D01*
X192047619Y-46431485D02*
X192047619Y-46098152D01*
X192047619Y-46098152D02*
X192095238Y-45907676D01*
X192095238Y-45907676D02*
X192190476Y-45812438D01*
X192190476Y-45812438D02*
X192285714Y-45764819D01*
X193333333Y-46288628D02*
X193333333Y-46764819D01*
X193000000Y-45764819D02*
X193333333Y-46288628D01*
X193333333Y-46288628D02*
X193666666Y-45764819D01*
X193952381Y-46717200D02*
X194095238Y-46764819D01*
X194095238Y-46764819D02*
X194333333Y-46764819D01*
X194333333Y-46764819D02*
X194428571Y-46717200D01*
X194428571Y-46717200D02*
X194476190Y-46669580D01*
X194476190Y-46669580D02*
X194523809Y-46574342D01*
X194523809Y-46574342D02*
X194523809Y-46479104D01*
X194523809Y-46479104D02*
X194476190Y-46383866D01*
X194476190Y-46383866D02*
X194428571Y-46336247D01*
X194428571Y-46336247D02*
X194333333Y-46288628D01*
X194333333Y-46288628D02*
X194142857Y-46241009D01*
X194142857Y-46241009D02*
X194047619Y-46193390D01*
X194047619Y-46193390D02*
X194000000Y-46145771D01*
X194000000Y-46145771D02*
X193952381Y-46050533D01*
X193952381Y-46050533D02*
X193952381Y-45955295D01*
X193952381Y-45955295D02*
X194000000Y-45860057D01*
X194000000Y-45860057D02*
X194047619Y-45812438D01*
X194047619Y-45812438D02*
X194142857Y-45764819D01*
X194142857Y-45764819D02*
X194380952Y-45764819D01*
X194380952Y-45764819D02*
X194523809Y-45812438D01*
X194809524Y-45764819D02*
X195380952Y-45764819D01*
X195095238Y-46764819D02*
X195095238Y-45764819D01*
X195714286Y-46764819D02*
X195714286Y-45764819D01*
X196761904Y-46669580D02*
X196714285Y-46717200D01*
X196714285Y-46717200D02*
X196571428Y-46764819D01*
X196571428Y-46764819D02*
X196476190Y-46764819D01*
X196476190Y-46764819D02*
X196333333Y-46717200D01*
X196333333Y-46717200D02*
X196238095Y-46621961D01*
X196238095Y-46621961D02*
X196190476Y-46526723D01*
X196190476Y-46526723D02*
X196142857Y-46336247D01*
X196142857Y-46336247D02*
X196142857Y-46193390D01*
X196142857Y-46193390D02*
X196190476Y-46002914D01*
X196190476Y-46002914D02*
X196238095Y-45907676D01*
X196238095Y-45907676D02*
X196333333Y-45812438D01*
X196333333Y-45812438D02*
X196476190Y-45764819D01*
X196476190Y-45764819D02*
X196571428Y-45764819D01*
X196571428Y-45764819D02*
X196714285Y-45812438D01*
X196714285Y-45812438D02*
X196761904Y-45860057D01*
X197190476Y-46764819D02*
X197190476Y-45764819D01*
X197761904Y-46764819D02*
X197333333Y-46193390D01*
X197761904Y-45764819D02*
X197190476Y-46336247D01*
X198714285Y-46764819D02*
X198142857Y-46764819D01*
X198428571Y-46764819D02*
X198428571Y-45764819D01*
X198428571Y-45764819D02*
X198333333Y-45907676D01*
X198333333Y-45907676D02*
X198238095Y-46002914D01*
X198238095Y-46002914D02*
X198142857Y-46050533D01*
X124150057Y-58135238D02*
X124102438Y-58230476D01*
X124102438Y-58230476D02*
X124007200Y-58325714D01*
X124007200Y-58325714D02*
X123864342Y-58468571D01*
X123864342Y-58468571D02*
X123816723Y-58563809D01*
X123816723Y-58563809D02*
X123816723Y-58659047D01*
X124054819Y-58611428D02*
X124007200Y-58706666D01*
X124007200Y-58706666D02*
X123911961Y-58801904D01*
X123911961Y-58801904D02*
X123721485Y-58849523D01*
X123721485Y-58849523D02*
X123388152Y-58849523D01*
X123388152Y-58849523D02*
X123197676Y-58801904D01*
X123197676Y-58801904D02*
X123102438Y-58706666D01*
X123102438Y-58706666D02*
X123054819Y-58611428D01*
X123054819Y-58611428D02*
X123054819Y-58420952D01*
X123054819Y-58420952D02*
X123102438Y-58325714D01*
X123102438Y-58325714D02*
X123197676Y-58230476D01*
X123197676Y-58230476D02*
X123388152Y-58182857D01*
X123388152Y-58182857D02*
X123721485Y-58182857D01*
X123721485Y-58182857D02*
X123911961Y-58230476D01*
X123911961Y-58230476D02*
X124007200Y-58325714D01*
X124007200Y-58325714D02*
X124054819Y-58420952D01*
X124054819Y-58420952D02*
X124054819Y-58611428D01*
X123054819Y-57849523D02*
X123054819Y-57230476D01*
X123054819Y-57230476D02*
X123435771Y-57563809D01*
X123435771Y-57563809D02*
X123435771Y-57420952D01*
X123435771Y-57420952D02*
X123483390Y-57325714D01*
X123483390Y-57325714D02*
X123531009Y-57278095D01*
X123531009Y-57278095D02*
X123626247Y-57230476D01*
X123626247Y-57230476D02*
X123864342Y-57230476D01*
X123864342Y-57230476D02*
X123959580Y-57278095D01*
X123959580Y-57278095D02*
X124007200Y-57325714D01*
X124007200Y-57325714D02*
X124054819Y-57420952D01*
X124054819Y-57420952D02*
X124054819Y-57706666D01*
X124054819Y-57706666D02*
X124007200Y-57801904D01*
X124007200Y-57801904D02*
X123959580Y-57849523D01*
X141523333Y-78084819D02*
X141190000Y-77608628D01*
X140951905Y-78084819D02*
X140951905Y-77084819D01*
X140951905Y-77084819D02*
X141332857Y-77084819D01*
X141332857Y-77084819D02*
X141428095Y-77132438D01*
X141428095Y-77132438D02*
X141475714Y-77180057D01*
X141475714Y-77180057D02*
X141523333Y-77275295D01*
X141523333Y-77275295D02*
X141523333Y-77418152D01*
X141523333Y-77418152D02*
X141475714Y-77513390D01*
X141475714Y-77513390D02*
X141428095Y-77561009D01*
X141428095Y-77561009D02*
X141332857Y-77608628D01*
X141332857Y-77608628D02*
X140951905Y-77608628D01*
X142380476Y-77084819D02*
X142190000Y-77084819D01*
X142190000Y-77084819D02*
X142094762Y-77132438D01*
X142094762Y-77132438D02*
X142047143Y-77180057D01*
X142047143Y-77180057D02*
X141951905Y-77322914D01*
X141951905Y-77322914D02*
X141904286Y-77513390D01*
X141904286Y-77513390D02*
X141904286Y-77894342D01*
X141904286Y-77894342D02*
X141951905Y-77989580D01*
X141951905Y-77989580D02*
X141999524Y-78037200D01*
X141999524Y-78037200D02*
X142094762Y-78084819D01*
X142094762Y-78084819D02*
X142285238Y-78084819D01*
X142285238Y-78084819D02*
X142380476Y-78037200D01*
X142380476Y-78037200D02*
X142428095Y-77989580D01*
X142428095Y-77989580D02*
X142475714Y-77894342D01*
X142475714Y-77894342D02*
X142475714Y-77656247D01*
X142475714Y-77656247D02*
X142428095Y-77561009D01*
X142428095Y-77561009D02*
X142380476Y-77513390D01*
X142380476Y-77513390D02*
X142285238Y-77465771D01*
X142285238Y-77465771D02*
X142094762Y-77465771D01*
X142094762Y-77465771D02*
X141999524Y-77513390D01*
X141999524Y-77513390D02*
X141951905Y-77561009D01*
X141951905Y-77561009D02*
X141904286Y-77656247D01*
X141523333Y-68084819D02*
X141190000Y-67608628D01*
X140951905Y-68084819D02*
X140951905Y-67084819D01*
X140951905Y-67084819D02*
X141332857Y-67084819D01*
X141332857Y-67084819D02*
X141428095Y-67132438D01*
X141428095Y-67132438D02*
X141475714Y-67180057D01*
X141475714Y-67180057D02*
X141523333Y-67275295D01*
X141523333Y-67275295D02*
X141523333Y-67418152D01*
X141523333Y-67418152D02*
X141475714Y-67513390D01*
X141475714Y-67513390D02*
X141428095Y-67561009D01*
X141428095Y-67561009D02*
X141332857Y-67608628D01*
X141332857Y-67608628D02*
X140951905Y-67608628D01*
X142428095Y-67084819D02*
X141951905Y-67084819D01*
X141951905Y-67084819D02*
X141904286Y-67561009D01*
X141904286Y-67561009D02*
X141951905Y-67513390D01*
X141951905Y-67513390D02*
X142047143Y-67465771D01*
X142047143Y-67465771D02*
X142285238Y-67465771D01*
X142285238Y-67465771D02*
X142380476Y-67513390D01*
X142380476Y-67513390D02*
X142428095Y-67561009D01*
X142428095Y-67561009D02*
X142475714Y-67656247D01*
X142475714Y-67656247D02*
X142475714Y-67894342D01*
X142475714Y-67894342D02*
X142428095Y-67989580D01*
X142428095Y-67989580D02*
X142380476Y-68037200D01*
X142380476Y-68037200D02*
X142285238Y-68084819D01*
X142285238Y-68084819D02*
X142047143Y-68084819D01*
X142047143Y-68084819D02*
X141951905Y-68037200D01*
X141951905Y-68037200D02*
X141904286Y-67989580D01*
X124150057Y-31135238D02*
X124102438Y-31230476D01*
X124102438Y-31230476D02*
X124007200Y-31325714D01*
X124007200Y-31325714D02*
X123864342Y-31468571D01*
X123864342Y-31468571D02*
X123816723Y-31563809D01*
X123816723Y-31563809D02*
X123816723Y-31659047D01*
X124054819Y-31611428D02*
X124007200Y-31706666D01*
X124007200Y-31706666D02*
X123911961Y-31801904D01*
X123911961Y-31801904D02*
X123721485Y-31849523D01*
X123721485Y-31849523D02*
X123388152Y-31849523D01*
X123388152Y-31849523D02*
X123197676Y-31801904D01*
X123197676Y-31801904D02*
X123102438Y-31706666D01*
X123102438Y-31706666D02*
X123054819Y-31611428D01*
X123054819Y-31611428D02*
X123054819Y-31420952D01*
X123054819Y-31420952D02*
X123102438Y-31325714D01*
X123102438Y-31325714D02*
X123197676Y-31230476D01*
X123197676Y-31230476D02*
X123388152Y-31182857D01*
X123388152Y-31182857D02*
X123721485Y-31182857D01*
X123721485Y-31182857D02*
X123911961Y-31230476D01*
X123911961Y-31230476D02*
X124007200Y-31325714D01*
X124007200Y-31325714D02*
X124054819Y-31420952D01*
X124054819Y-31420952D02*
X124054819Y-31611428D01*
X124054819Y-30230476D02*
X124054819Y-30801904D01*
X124054819Y-30516190D02*
X123054819Y-30516190D01*
X123054819Y-30516190D02*
X123197676Y-30611428D01*
X123197676Y-30611428D02*
X123292914Y-30706666D01*
X123292914Y-30706666D02*
X123340533Y-30801904D01*
X124550057Y-44635238D02*
X124502438Y-44730476D01*
X124502438Y-44730476D02*
X124407200Y-44825714D01*
X124407200Y-44825714D02*
X124264342Y-44968571D01*
X124264342Y-44968571D02*
X124216723Y-45063809D01*
X124216723Y-45063809D02*
X124216723Y-45159047D01*
X124454819Y-45111428D02*
X124407200Y-45206666D01*
X124407200Y-45206666D02*
X124311961Y-45301904D01*
X124311961Y-45301904D02*
X124121485Y-45349523D01*
X124121485Y-45349523D02*
X123788152Y-45349523D01*
X123788152Y-45349523D02*
X123597676Y-45301904D01*
X123597676Y-45301904D02*
X123502438Y-45206666D01*
X123502438Y-45206666D02*
X123454819Y-45111428D01*
X123454819Y-45111428D02*
X123454819Y-44920952D01*
X123454819Y-44920952D02*
X123502438Y-44825714D01*
X123502438Y-44825714D02*
X123597676Y-44730476D01*
X123597676Y-44730476D02*
X123788152Y-44682857D01*
X123788152Y-44682857D02*
X124121485Y-44682857D01*
X124121485Y-44682857D02*
X124311961Y-44730476D01*
X124311961Y-44730476D02*
X124407200Y-44825714D01*
X124407200Y-44825714D02*
X124454819Y-44920952D01*
X124454819Y-44920952D02*
X124454819Y-45111428D01*
X123550057Y-44301904D02*
X123502438Y-44254285D01*
X123502438Y-44254285D02*
X123454819Y-44159047D01*
X123454819Y-44159047D02*
X123454819Y-43920952D01*
X123454819Y-43920952D02*
X123502438Y-43825714D01*
X123502438Y-43825714D02*
X123550057Y-43778095D01*
X123550057Y-43778095D02*
X123645295Y-43730476D01*
X123645295Y-43730476D02*
X123740533Y-43730476D01*
X123740533Y-43730476D02*
X123883390Y-43778095D01*
X123883390Y-43778095D02*
X124454819Y-44349523D01*
X124454819Y-44349523D02*
X124454819Y-43730476D01*
X59261905Y-72017200D02*
X59404762Y-72064819D01*
X59404762Y-72064819D02*
X59642857Y-72064819D01*
X59642857Y-72064819D02*
X59738095Y-72017200D01*
X59738095Y-72017200D02*
X59785714Y-71969580D01*
X59785714Y-71969580D02*
X59833333Y-71874342D01*
X59833333Y-71874342D02*
X59833333Y-71779104D01*
X59833333Y-71779104D02*
X59785714Y-71683866D01*
X59785714Y-71683866D02*
X59738095Y-71636247D01*
X59738095Y-71636247D02*
X59642857Y-71588628D01*
X59642857Y-71588628D02*
X59452381Y-71541009D01*
X59452381Y-71541009D02*
X59357143Y-71493390D01*
X59357143Y-71493390D02*
X59309524Y-71445771D01*
X59309524Y-71445771D02*
X59261905Y-71350533D01*
X59261905Y-71350533D02*
X59261905Y-71255295D01*
X59261905Y-71255295D02*
X59309524Y-71160057D01*
X59309524Y-71160057D02*
X59357143Y-71112438D01*
X59357143Y-71112438D02*
X59452381Y-71064819D01*
X59452381Y-71064819D02*
X59690476Y-71064819D01*
X59690476Y-71064819D02*
X59833333Y-71112438D01*
X60452381Y-71064819D02*
X60642857Y-71064819D01*
X60642857Y-71064819D02*
X60738095Y-71112438D01*
X60738095Y-71112438D02*
X60833333Y-71207676D01*
X60833333Y-71207676D02*
X60880952Y-71398152D01*
X60880952Y-71398152D02*
X60880952Y-71731485D01*
X60880952Y-71731485D02*
X60833333Y-71921961D01*
X60833333Y-71921961D02*
X60738095Y-72017200D01*
X60738095Y-72017200D02*
X60642857Y-72064819D01*
X60642857Y-72064819D02*
X60452381Y-72064819D01*
X60452381Y-72064819D02*
X60357143Y-72017200D01*
X60357143Y-72017200D02*
X60261905Y-71921961D01*
X60261905Y-71921961D02*
X60214286Y-71731485D01*
X60214286Y-71731485D02*
X60214286Y-71398152D01*
X60214286Y-71398152D02*
X60261905Y-71207676D01*
X60261905Y-71207676D02*
X60357143Y-71112438D01*
X60357143Y-71112438D02*
X60452381Y-71064819D01*
X61785714Y-72064819D02*
X61309524Y-72064819D01*
X61309524Y-72064819D02*
X61309524Y-71064819D01*
X62119048Y-71541009D02*
X62452381Y-71541009D01*
X62595238Y-72064819D02*
X62119048Y-72064819D01*
X62119048Y-72064819D02*
X62119048Y-71064819D01*
X62119048Y-71064819D02*
X62595238Y-71064819D01*
X63023810Y-72064819D02*
X63023810Y-71064819D01*
X63023810Y-71064819D02*
X63595238Y-72064819D01*
X63595238Y-72064819D02*
X63595238Y-71064819D01*
X64261905Y-71064819D02*
X64452381Y-71064819D01*
X64452381Y-71064819D02*
X64547619Y-71112438D01*
X64547619Y-71112438D02*
X64642857Y-71207676D01*
X64642857Y-71207676D02*
X64690476Y-71398152D01*
X64690476Y-71398152D02*
X64690476Y-71731485D01*
X64690476Y-71731485D02*
X64642857Y-71921961D01*
X64642857Y-71921961D02*
X64547619Y-72017200D01*
X64547619Y-72017200D02*
X64452381Y-72064819D01*
X64452381Y-72064819D02*
X64261905Y-72064819D01*
X64261905Y-72064819D02*
X64166667Y-72017200D01*
X64166667Y-72017200D02*
X64071429Y-71921961D01*
X64071429Y-71921961D02*
X64023810Y-71731485D01*
X64023810Y-71731485D02*
X64023810Y-71398152D01*
X64023810Y-71398152D02*
X64071429Y-71207676D01*
X64071429Y-71207676D02*
X64166667Y-71112438D01*
X64166667Y-71112438D02*
X64261905Y-71064819D01*
X65119048Y-72064819D02*
X65119048Y-71064819D01*
X65595238Y-72064819D02*
X65595238Y-71064819D01*
X65595238Y-71064819D02*
X65833333Y-71064819D01*
X65833333Y-71064819D02*
X65976190Y-71112438D01*
X65976190Y-71112438D02*
X66071428Y-71207676D01*
X66071428Y-71207676D02*
X66119047Y-71302914D01*
X66119047Y-71302914D02*
X66166666Y-71493390D01*
X66166666Y-71493390D02*
X66166666Y-71636247D01*
X66166666Y-71636247D02*
X66119047Y-71826723D01*
X66119047Y-71826723D02*
X66071428Y-71921961D01*
X66071428Y-71921961D02*
X65976190Y-72017200D01*
X65976190Y-72017200D02*
X65833333Y-72064819D01*
X65833333Y-72064819D02*
X65595238Y-72064819D01*
X66357143Y-72160057D02*
X67119047Y-72160057D01*
X67928571Y-71969580D02*
X67880952Y-72017200D01*
X67880952Y-72017200D02*
X67738095Y-72064819D01*
X67738095Y-72064819D02*
X67642857Y-72064819D01*
X67642857Y-72064819D02*
X67500000Y-72017200D01*
X67500000Y-72017200D02*
X67404762Y-71921961D01*
X67404762Y-71921961D02*
X67357143Y-71826723D01*
X67357143Y-71826723D02*
X67309524Y-71636247D01*
X67309524Y-71636247D02*
X67309524Y-71493390D01*
X67309524Y-71493390D02*
X67357143Y-71302914D01*
X67357143Y-71302914D02*
X67404762Y-71207676D01*
X67404762Y-71207676D02*
X67500000Y-71112438D01*
X67500000Y-71112438D02*
X67642857Y-71064819D01*
X67642857Y-71064819D02*
X67738095Y-71064819D01*
X67738095Y-71064819D02*
X67880952Y-71112438D01*
X67880952Y-71112438D02*
X67928571Y-71160057D01*
X68547619Y-71064819D02*
X68738095Y-71064819D01*
X68738095Y-71064819D02*
X68833333Y-71112438D01*
X68833333Y-71112438D02*
X68928571Y-71207676D01*
X68928571Y-71207676D02*
X68976190Y-71398152D01*
X68976190Y-71398152D02*
X68976190Y-71731485D01*
X68976190Y-71731485D02*
X68928571Y-71921961D01*
X68928571Y-71921961D02*
X68833333Y-72017200D01*
X68833333Y-72017200D02*
X68738095Y-72064819D01*
X68738095Y-72064819D02*
X68547619Y-72064819D01*
X68547619Y-72064819D02*
X68452381Y-72017200D01*
X68452381Y-72017200D02*
X68357143Y-71921961D01*
X68357143Y-71921961D02*
X68309524Y-71731485D01*
X68309524Y-71731485D02*
X68309524Y-71398152D01*
X68309524Y-71398152D02*
X68357143Y-71207676D01*
X68357143Y-71207676D02*
X68452381Y-71112438D01*
X68452381Y-71112438D02*
X68547619Y-71064819D01*
X69404762Y-72064819D02*
X69404762Y-71064819D01*
X69404762Y-71064819D02*
X69976190Y-72064819D01*
X69976190Y-72064819D02*
X69976190Y-71064819D01*
X70452381Y-72064819D02*
X70452381Y-71064819D01*
X70452381Y-71064819D02*
X71023809Y-72064819D01*
X71023809Y-72064819D02*
X71023809Y-71064819D01*
X71500000Y-71541009D02*
X71833333Y-71541009D01*
X71976190Y-72064819D02*
X71500000Y-72064819D01*
X71500000Y-72064819D02*
X71500000Y-71064819D01*
X71500000Y-71064819D02*
X71976190Y-71064819D01*
X72976190Y-71969580D02*
X72928571Y-72017200D01*
X72928571Y-72017200D02*
X72785714Y-72064819D01*
X72785714Y-72064819D02*
X72690476Y-72064819D01*
X72690476Y-72064819D02*
X72547619Y-72017200D01*
X72547619Y-72017200D02*
X72452381Y-71921961D01*
X72452381Y-71921961D02*
X72404762Y-71826723D01*
X72404762Y-71826723D02*
X72357143Y-71636247D01*
X72357143Y-71636247D02*
X72357143Y-71493390D01*
X72357143Y-71493390D02*
X72404762Y-71302914D01*
X72404762Y-71302914D02*
X72452381Y-71207676D01*
X72452381Y-71207676D02*
X72547619Y-71112438D01*
X72547619Y-71112438D02*
X72690476Y-71064819D01*
X72690476Y-71064819D02*
X72785714Y-71064819D01*
X72785714Y-71064819D02*
X72928571Y-71112438D01*
X72928571Y-71112438D02*
X72976190Y-71160057D01*
X73261905Y-71064819D02*
X73833333Y-71064819D01*
X73547619Y-72064819D02*
X73547619Y-71064819D01*
X74357143Y-71064819D02*
X74547619Y-71064819D01*
X74547619Y-71064819D02*
X74642857Y-71112438D01*
X74642857Y-71112438D02*
X74738095Y-71207676D01*
X74738095Y-71207676D02*
X74785714Y-71398152D01*
X74785714Y-71398152D02*
X74785714Y-71731485D01*
X74785714Y-71731485D02*
X74738095Y-71921961D01*
X74738095Y-71921961D02*
X74642857Y-72017200D01*
X74642857Y-72017200D02*
X74547619Y-72064819D01*
X74547619Y-72064819D02*
X74357143Y-72064819D01*
X74357143Y-72064819D02*
X74261905Y-72017200D01*
X74261905Y-72017200D02*
X74166667Y-71921961D01*
X74166667Y-71921961D02*
X74119048Y-71731485D01*
X74119048Y-71731485D02*
X74119048Y-71398152D01*
X74119048Y-71398152D02*
X74166667Y-71207676D01*
X74166667Y-71207676D02*
X74261905Y-71112438D01*
X74261905Y-71112438D02*
X74357143Y-71064819D01*
X75785714Y-72064819D02*
X75452381Y-71588628D01*
X75214286Y-72064819D02*
X75214286Y-71064819D01*
X75214286Y-71064819D02*
X75595238Y-71064819D01*
X75595238Y-71064819D02*
X75690476Y-71112438D01*
X75690476Y-71112438D02*
X75738095Y-71160057D01*
X75738095Y-71160057D02*
X75785714Y-71255295D01*
X75785714Y-71255295D02*
X75785714Y-71398152D01*
X75785714Y-71398152D02*
X75738095Y-71493390D01*
X75738095Y-71493390D02*
X75690476Y-71541009D01*
X75690476Y-71541009D02*
X75595238Y-71588628D01*
X75595238Y-71588628D02*
X75214286Y-71588628D01*
X76738095Y-72064819D02*
X76166667Y-72064819D01*
X76452381Y-72064819D02*
X76452381Y-71064819D01*
X76452381Y-71064819D02*
X76357143Y-71207676D01*
X76357143Y-71207676D02*
X76261905Y-71302914D01*
X76261905Y-71302914D02*
X76166667Y-71350533D01*
X209824819Y-51166666D02*
X209348628Y-51499999D01*
X209824819Y-51738094D02*
X208824819Y-51738094D01*
X208824819Y-51738094D02*
X208824819Y-51357142D01*
X208824819Y-51357142D02*
X208872438Y-51261904D01*
X208872438Y-51261904D02*
X208920057Y-51214285D01*
X208920057Y-51214285D02*
X209015295Y-51166666D01*
X209015295Y-51166666D02*
X209158152Y-51166666D01*
X209158152Y-51166666D02*
X209253390Y-51214285D01*
X209253390Y-51214285D02*
X209301009Y-51261904D01*
X209301009Y-51261904D02*
X209348628Y-51357142D01*
X209348628Y-51357142D02*
X209348628Y-51738094D01*
X209253390Y-50595237D02*
X209205771Y-50690475D01*
X209205771Y-50690475D02*
X209158152Y-50738094D01*
X209158152Y-50738094D02*
X209062914Y-50785713D01*
X209062914Y-50785713D02*
X209015295Y-50785713D01*
X209015295Y-50785713D02*
X208920057Y-50738094D01*
X208920057Y-50738094D02*
X208872438Y-50690475D01*
X208872438Y-50690475D02*
X208824819Y-50595237D01*
X208824819Y-50595237D02*
X208824819Y-50404761D01*
X208824819Y-50404761D02*
X208872438Y-50309523D01*
X208872438Y-50309523D02*
X208920057Y-50261904D01*
X208920057Y-50261904D02*
X209015295Y-50214285D01*
X209015295Y-50214285D02*
X209062914Y-50214285D01*
X209062914Y-50214285D02*
X209158152Y-50261904D01*
X209158152Y-50261904D02*
X209205771Y-50309523D01*
X209205771Y-50309523D02*
X209253390Y-50404761D01*
X209253390Y-50404761D02*
X209253390Y-50595237D01*
X209253390Y-50595237D02*
X209301009Y-50690475D01*
X209301009Y-50690475D02*
X209348628Y-50738094D01*
X209348628Y-50738094D02*
X209443866Y-50785713D01*
X209443866Y-50785713D02*
X209634342Y-50785713D01*
X209634342Y-50785713D02*
X209729580Y-50738094D01*
X209729580Y-50738094D02*
X209777200Y-50690475D01*
X209777200Y-50690475D02*
X209824819Y-50595237D01*
X209824819Y-50595237D02*
X209824819Y-50404761D01*
X209824819Y-50404761D02*
X209777200Y-50309523D01*
X209777200Y-50309523D02*
X209729580Y-50261904D01*
X209729580Y-50261904D02*
X209634342Y-50214285D01*
X209634342Y-50214285D02*
X209443866Y-50214285D01*
X209443866Y-50214285D02*
X209348628Y-50261904D01*
X209348628Y-50261904D02*
X209301009Y-50309523D01*
X209301009Y-50309523D02*
X209253390Y-50404761D01*
X171034819Y-136166666D02*
X170558628Y-136499999D01*
X171034819Y-136738094D02*
X170034819Y-136738094D01*
X170034819Y-136738094D02*
X170034819Y-136357142D01*
X170034819Y-136357142D02*
X170082438Y-136261904D01*
X170082438Y-136261904D02*
X170130057Y-136214285D01*
X170130057Y-136214285D02*
X170225295Y-136166666D01*
X170225295Y-136166666D02*
X170368152Y-136166666D01*
X170368152Y-136166666D02*
X170463390Y-136214285D01*
X170463390Y-136214285D02*
X170511009Y-136261904D01*
X170511009Y-136261904D02*
X170558628Y-136357142D01*
X170558628Y-136357142D02*
X170558628Y-136738094D01*
X170034819Y-135833332D02*
X170034819Y-135166666D01*
X170034819Y-135166666D02*
X171034819Y-135595237D01*
X141523333Y-57584819D02*
X141190000Y-57108628D01*
X140951905Y-57584819D02*
X140951905Y-56584819D01*
X140951905Y-56584819D02*
X141332857Y-56584819D01*
X141332857Y-56584819D02*
X141428095Y-56632438D01*
X141428095Y-56632438D02*
X141475714Y-56680057D01*
X141475714Y-56680057D02*
X141523333Y-56775295D01*
X141523333Y-56775295D02*
X141523333Y-56918152D01*
X141523333Y-56918152D02*
X141475714Y-57013390D01*
X141475714Y-57013390D02*
X141428095Y-57061009D01*
X141428095Y-57061009D02*
X141332857Y-57108628D01*
X141332857Y-57108628D02*
X140951905Y-57108628D01*
X142380476Y-56918152D02*
X142380476Y-57584819D01*
X142142381Y-56537200D02*
X141904286Y-57251485D01*
X141904286Y-57251485D02*
X142523333Y-57251485D01*
X141523333Y-48084819D02*
X141190000Y-47608628D01*
X140951905Y-48084819D02*
X140951905Y-47084819D01*
X140951905Y-47084819D02*
X141332857Y-47084819D01*
X141332857Y-47084819D02*
X141428095Y-47132438D01*
X141428095Y-47132438D02*
X141475714Y-47180057D01*
X141475714Y-47180057D02*
X141523333Y-47275295D01*
X141523333Y-47275295D02*
X141523333Y-47418152D01*
X141523333Y-47418152D02*
X141475714Y-47513390D01*
X141475714Y-47513390D02*
X141428095Y-47561009D01*
X141428095Y-47561009D02*
X141332857Y-47608628D01*
X141332857Y-47608628D02*
X140951905Y-47608628D01*
X141856667Y-47084819D02*
X142475714Y-47084819D01*
X142475714Y-47084819D02*
X142142381Y-47465771D01*
X142142381Y-47465771D02*
X142285238Y-47465771D01*
X142285238Y-47465771D02*
X142380476Y-47513390D01*
X142380476Y-47513390D02*
X142428095Y-47561009D01*
X142428095Y-47561009D02*
X142475714Y-47656247D01*
X142475714Y-47656247D02*
X142475714Y-47894342D01*
X142475714Y-47894342D02*
X142428095Y-47989580D01*
X142428095Y-47989580D02*
X142380476Y-48037200D01*
X142380476Y-48037200D02*
X142285238Y-48084819D01*
X142285238Y-48084819D02*
X141999524Y-48084819D01*
X141999524Y-48084819D02*
X141904286Y-48037200D01*
X141904286Y-48037200D02*
X141856667Y-47989580D01*
X141523333Y-38584819D02*
X141190000Y-38108628D01*
X140951905Y-38584819D02*
X140951905Y-37584819D01*
X140951905Y-37584819D02*
X141332857Y-37584819D01*
X141332857Y-37584819D02*
X141428095Y-37632438D01*
X141428095Y-37632438D02*
X141475714Y-37680057D01*
X141475714Y-37680057D02*
X141523333Y-37775295D01*
X141523333Y-37775295D02*
X141523333Y-37918152D01*
X141523333Y-37918152D02*
X141475714Y-38013390D01*
X141475714Y-38013390D02*
X141428095Y-38061009D01*
X141428095Y-38061009D02*
X141332857Y-38108628D01*
X141332857Y-38108628D02*
X140951905Y-38108628D01*
X141904286Y-37680057D02*
X141951905Y-37632438D01*
X141951905Y-37632438D02*
X142047143Y-37584819D01*
X142047143Y-37584819D02*
X142285238Y-37584819D01*
X142285238Y-37584819D02*
X142380476Y-37632438D01*
X142380476Y-37632438D02*
X142428095Y-37680057D01*
X142428095Y-37680057D02*
X142475714Y-37775295D01*
X142475714Y-37775295D02*
X142475714Y-37870533D01*
X142475714Y-37870533D02*
X142428095Y-38013390D01*
X142428095Y-38013390D02*
X141856667Y-38584819D01*
X141856667Y-38584819D02*
X142475714Y-38584819D01*
X141833333Y-28584819D02*
X141500000Y-28108628D01*
X141261905Y-28584819D02*
X141261905Y-27584819D01*
X141261905Y-27584819D02*
X141642857Y-27584819D01*
X141642857Y-27584819D02*
X141738095Y-27632438D01*
X141738095Y-27632438D02*
X141785714Y-27680057D01*
X141785714Y-27680057D02*
X141833333Y-27775295D01*
X141833333Y-27775295D02*
X141833333Y-27918152D01*
X141833333Y-27918152D02*
X141785714Y-28013390D01*
X141785714Y-28013390D02*
X141738095Y-28061009D01*
X141738095Y-28061009D02*
X141642857Y-28108628D01*
X141642857Y-28108628D02*
X141261905Y-28108628D01*
X142785714Y-28584819D02*
X142214286Y-28584819D01*
X142500000Y-28584819D02*
X142500000Y-27584819D01*
X142500000Y-27584819D02*
X142404762Y-27727676D01*
X142404762Y-27727676D02*
X142309524Y-27822914D01*
X142309524Y-27822914D02*
X142214286Y-27870533D01*
X124150057Y-100135238D02*
X124102438Y-100230476D01*
X124102438Y-100230476D02*
X124007200Y-100325714D01*
X124007200Y-100325714D02*
X123864342Y-100468571D01*
X123864342Y-100468571D02*
X123816723Y-100563809D01*
X123816723Y-100563809D02*
X123816723Y-100659047D01*
X124054819Y-100611428D02*
X124007200Y-100706666D01*
X124007200Y-100706666D02*
X123911961Y-100801904D01*
X123911961Y-100801904D02*
X123721485Y-100849523D01*
X123721485Y-100849523D02*
X123388152Y-100849523D01*
X123388152Y-100849523D02*
X123197676Y-100801904D01*
X123197676Y-100801904D02*
X123102438Y-100706666D01*
X123102438Y-100706666D02*
X123054819Y-100611428D01*
X123054819Y-100611428D02*
X123054819Y-100420952D01*
X123054819Y-100420952D02*
X123102438Y-100325714D01*
X123102438Y-100325714D02*
X123197676Y-100230476D01*
X123197676Y-100230476D02*
X123388152Y-100182857D01*
X123388152Y-100182857D02*
X123721485Y-100182857D01*
X123721485Y-100182857D02*
X123911961Y-100230476D01*
X123911961Y-100230476D02*
X124007200Y-100325714D01*
X124007200Y-100325714D02*
X124054819Y-100420952D01*
X124054819Y-100420952D02*
X124054819Y-100611428D01*
X123054819Y-99325714D02*
X123054819Y-99516190D01*
X123054819Y-99516190D02*
X123102438Y-99611428D01*
X123102438Y-99611428D02*
X123150057Y-99659047D01*
X123150057Y-99659047D02*
X123292914Y-99754285D01*
X123292914Y-99754285D02*
X123483390Y-99801904D01*
X123483390Y-99801904D02*
X123864342Y-99801904D01*
X123864342Y-99801904D02*
X123959580Y-99754285D01*
X123959580Y-99754285D02*
X124007200Y-99706666D01*
X124007200Y-99706666D02*
X124054819Y-99611428D01*
X124054819Y-99611428D02*
X124054819Y-99420952D01*
X124054819Y-99420952D02*
X124007200Y-99325714D01*
X124007200Y-99325714D02*
X123959580Y-99278095D01*
X123959580Y-99278095D02*
X123864342Y-99230476D01*
X123864342Y-99230476D02*
X123626247Y-99230476D01*
X123626247Y-99230476D02*
X123531009Y-99278095D01*
X123531009Y-99278095D02*
X123483390Y-99325714D01*
X123483390Y-99325714D02*
X123435771Y-99420952D01*
X123435771Y-99420952D02*
X123435771Y-99611428D01*
X123435771Y-99611428D02*
X123483390Y-99706666D01*
X123483390Y-99706666D02*
X123531009Y-99754285D01*
X123531009Y-99754285D02*
X123626247Y-99801904D01*
X124150057Y-85635238D02*
X124102438Y-85730476D01*
X124102438Y-85730476D02*
X124007200Y-85825714D01*
X124007200Y-85825714D02*
X123864342Y-85968571D01*
X123864342Y-85968571D02*
X123816723Y-86063809D01*
X123816723Y-86063809D02*
X123816723Y-86159047D01*
X124054819Y-86111428D02*
X124007200Y-86206666D01*
X124007200Y-86206666D02*
X123911961Y-86301904D01*
X123911961Y-86301904D02*
X123721485Y-86349523D01*
X123721485Y-86349523D02*
X123388152Y-86349523D01*
X123388152Y-86349523D02*
X123197676Y-86301904D01*
X123197676Y-86301904D02*
X123102438Y-86206666D01*
X123102438Y-86206666D02*
X123054819Y-86111428D01*
X123054819Y-86111428D02*
X123054819Y-85920952D01*
X123054819Y-85920952D02*
X123102438Y-85825714D01*
X123102438Y-85825714D02*
X123197676Y-85730476D01*
X123197676Y-85730476D02*
X123388152Y-85682857D01*
X123388152Y-85682857D02*
X123721485Y-85682857D01*
X123721485Y-85682857D02*
X123911961Y-85730476D01*
X123911961Y-85730476D02*
X124007200Y-85825714D01*
X124007200Y-85825714D02*
X124054819Y-85920952D01*
X124054819Y-85920952D02*
X124054819Y-86111428D01*
X123054819Y-84778095D02*
X123054819Y-85254285D01*
X123054819Y-85254285D02*
X123531009Y-85301904D01*
X123531009Y-85301904D02*
X123483390Y-85254285D01*
X123483390Y-85254285D02*
X123435771Y-85159047D01*
X123435771Y-85159047D02*
X123435771Y-84920952D01*
X123435771Y-84920952D02*
X123483390Y-84825714D01*
X123483390Y-84825714D02*
X123531009Y-84778095D01*
X123531009Y-84778095D02*
X123626247Y-84730476D01*
X123626247Y-84730476D02*
X123864342Y-84730476D01*
X123864342Y-84730476D02*
X123959580Y-84778095D01*
X123959580Y-84778095D02*
X124007200Y-84825714D01*
X124007200Y-84825714D02*
X124054819Y-84920952D01*
X124054819Y-84920952D02*
X124054819Y-85159047D01*
X124054819Y-85159047D02*
X124007200Y-85254285D01*
X124007200Y-85254285D02*
X123959580Y-85301904D01*
X124150057Y-72135238D02*
X124102438Y-72230476D01*
X124102438Y-72230476D02*
X124007200Y-72325714D01*
X124007200Y-72325714D02*
X123864342Y-72468571D01*
X123864342Y-72468571D02*
X123816723Y-72563809D01*
X123816723Y-72563809D02*
X123816723Y-72659047D01*
X124054819Y-72611428D02*
X124007200Y-72706666D01*
X124007200Y-72706666D02*
X123911961Y-72801904D01*
X123911961Y-72801904D02*
X123721485Y-72849523D01*
X123721485Y-72849523D02*
X123388152Y-72849523D01*
X123388152Y-72849523D02*
X123197676Y-72801904D01*
X123197676Y-72801904D02*
X123102438Y-72706666D01*
X123102438Y-72706666D02*
X123054819Y-72611428D01*
X123054819Y-72611428D02*
X123054819Y-72420952D01*
X123054819Y-72420952D02*
X123102438Y-72325714D01*
X123102438Y-72325714D02*
X123197676Y-72230476D01*
X123197676Y-72230476D02*
X123388152Y-72182857D01*
X123388152Y-72182857D02*
X123721485Y-72182857D01*
X123721485Y-72182857D02*
X123911961Y-72230476D01*
X123911961Y-72230476D02*
X124007200Y-72325714D01*
X124007200Y-72325714D02*
X124054819Y-72420952D01*
X124054819Y-72420952D02*
X124054819Y-72611428D01*
X123388152Y-71325714D02*
X124054819Y-71325714D01*
X123007200Y-71563809D02*
X123721485Y-71801904D01*
X123721485Y-71801904D02*
X123721485Y-71182857D01*
X155847319Y-154056785D02*
X154847319Y-154056785D01*
X154847319Y-154056785D02*
X154847319Y-153675833D01*
X154847319Y-153675833D02*
X154894938Y-153580595D01*
X154894938Y-153580595D02*
X154942557Y-153532976D01*
X154942557Y-153532976D02*
X155037795Y-153485357D01*
X155037795Y-153485357D02*
X155180652Y-153485357D01*
X155180652Y-153485357D02*
X155275890Y-153532976D01*
X155275890Y-153532976D02*
X155323509Y-153580595D01*
X155323509Y-153580595D02*
X155371128Y-153675833D01*
X155371128Y-153675833D02*
X155371128Y-154056785D01*
X155799700Y-153104404D02*
X155847319Y-152961547D01*
X155847319Y-152961547D02*
X155847319Y-152723452D01*
X155847319Y-152723452D02*
X155799700Y-152628214D01*
X155799700Y-152628214D02*
X155752080Y-152580595D01*
X155752080Y-152580595D02*
X155656842Y-152532976D01*
X155656842Y-152532976D02*
X155561604Y-152532976D01*
X155561604Y-152532976D02*
X155466366Y-152580595D01*
X155466366Y-152580595D02*
X155418747Y-152628214D01*
X155418747Y-152628214D02*
X155371128Y-152723452D01*
X155371128Y-152723452D02*
X155323509Y-152913928D01*
X155323509Y-152913928D02*
X155275890Y-153009166D01*
X155275890Y-153009166D02*
X155228271Y-153056785D01*
X155228271Y-153056785D02*
X155133033Y-153104404D01*
X155133033Y-153104404D02*
X155037795Y-153104404D01*
X155037795Y-153104404D02*
X154942557Y-153056785D01*
X154942557Y-153056785D02*
X154894938Y-153009166D01*
X154894938Y-153009166D02*
X154847319Y-152913928D01*
X154847319Y-152913928D02*
X154847319Y-152675833D01*
X154847319Y-152675833D02*
X154894938Y-152532976D01*
X154942557Y-152152023D02*
X154894938Y-152104404D01*
X154894938Y-152104404D02*
X154847319Y-152009166D01*
X154847319Y-152009166D02*
X154847319Y-151771071D01*
X154847319Y-151771071D02*
X154894938Y-151675833D01*
X154894938Y-151675833D02*
X154942557Y-151628214D01*
X154942557Y-151628214D02*
X155037795Y-151580595D01*
X155037795Y-151580595D02*
X155133033Y-151580595D01*
X155133033Y-151580595D02*
X155275890Y-151628214D01*
X155275890Y-151628214D02*
X155847319Y-152199642D01*
X155847319Y-152199642D02*
X155847319Y-151580595D01*
X111485714Y-114172319D02*
X111485714Y-113172319D01*
X111485714Y-113172319D02*
X111866666Y-113172319D01*
X111866666Y-113172319D02*
X111961904Y-113219938D01*
X111961904Y-113219938D02*
X112009523Y-113267557D01*
X112009523Y-113267557D02*
X112057142Y-113362795D01*
X112057142Y-113362795D02*
X112057142Y-113505652D01*
X112057142Y-113505652D02*
X112009523Y-113600890D01*
X112009523Y-113600890D02*
X111961904Y-113648509D01*
X111961904Y-113648509D02*
X111866666Y-113696128D01*
X111866666Y-113696128D02*
X111485714Y-113696128D01*
X112438095Y-114124700D02*
X112580952Y-114172319D01*
X112580952Y-114172319D02*
X112819047Y-114172319D01*
X112819047Y-114172319D02*
X112914285Y-114124700D01*
X112914285Y-114124700D02*
X112961904Y-114077080D01*
X112961904Y-114077080D02*
X113009523Y-113981842D01*
X113009523Y-113981842D02*
X113009523Y-113886604D01*
X113009523Y-113886604D02*
X112961904Y-113791366D01*
X112961904Y-113791366D02*
X112914285Y-113743747D01*
X112914285Y-113743747D02*
X112819047Y-113696128D01*
X112819047Y-113696128D02*
X112628571Y-113648509D01*
X112628571Y-113648509D02*
X112533333Y-113600890D01*
X112533333Y-113600890D02*
X112485714Y-113553271D01*
X112485714Y-113553271D02*
X112438095Y-113458033D01*
X112438095Y-113458033D02*
X112438095Y-113362795D01*
X112438095Y-113362795D02*
X112485714Y-113267557D01*
X112485714Y-113267557D02*
X112533333Y-113219938D01*
X112533333Y-113219938D02*
X112628571Y-113172319D01*
X112628571Y-113172319D02*
X112866666Y-113172319D01*
X112866666Y-113172319D02*
X113009523Y-113219938D01*
X113961904Y-114172319D02*
X113390476Y-114172319D01*
X113676190Y-114172319D02*
X113676190Y-113172319D01*
X113676190Y-113172319D02*
X113580952Y-113315176D01*
X113580952Y-113315176D02*
X113485714Y-113410414D01*
X113485714Y-113410414D02*
X113390476Y-113458033D01*
X170738095Y-65364819D02*
X170738095Y-64364819D01*
X170738095Y-64364819D02*
X171309523Y-65364819D01*
X171309523Y-65364819D02*
X171309523Y-64364819D01*
X171738095Y-65079104D02*
X172214285Y-65079104D01*
X171642857Y-65364819D02*
X171976190Y-64364819D01*
X171976190Y-64364819D02*
X172309523Y-65364819D01*
X172642857Y-65364819D02*
X172642857Y-64364819D01*
X172642857Y-64364819D02*
X173214285Y-65364819D01*
X173214285Y-65364819D02*
X173214285Y-64364819D01*
X173880952Y-64364819D02*
X174071428Y-64364819D01*
X174071428Y-64364819D02*
X174166666Y-64412438D01*
X174166666Y-64412438D02*
X174261904Y-64507676D01*
X174261904Y-64507676D02*
X174309523Y-64698152D01*
X174309523Y-64698152D02*
X174309523Y-65031485D01*
X174309523Y-65031485D02*
X174261904Y-65221961D01*
X174261904Y-65221961D02*
X174166666Y-65317200D01*
X174166666Y-65317200D02*
X174071428Y-65364819D01*
X174071428Y-65364819D02*
X173880952Y-65364819D01*
X173880952Y-65364819D02*
X173785714Y-65317200D01*
X173785714Y-65317200D02*
X173690476Y-65221961D01*
X173690476Y-65221961D02*
X173642857Y-65031485D01*
X173642857Y-65031485D02*
X173642857Y-64698152D01*
X173642857Y-64698152D02*
X173690476Y-64507676D01*
X173690476Y-64507676D02*
X173785714Y-64412438D01*
X173785714Y-64412438D02*
X173880952Y-64364819D01*
X174500000Y-65460057D02*
X175261904Y-65460057D01*
X176071428Y-65364819D02*
X175738095Y-64888628D01*
X175500000Y-65364819D02*
X175500000Y-64364819D01*
X175500000Y-64364819D02*
X175880952Y-64364819D01*
X175880952Y-64364819D02*
X175976190Y-64412438D01*
X175976190Y-64412438D02*
X176023809Y-64460057D01*
X176023809Y-64460057D02*
X176071428Y-64555295D01*
X176071428Y-64555295D02*
X176071428Y-64698152D01*
X176071428Y-64698152D02*
X176023809Y-64793390D01*
X176023809Y-64793390D02*
X175976190Y-64841009D01*
X175976190Y-64841009D02*
X175880952Y-64888628D01*
X175880952Y-64888628D02*
X175500000Y-64888628D01*
X176500000Y-65364819D02*
X176500000Y-64364819D01*
X177499999Y-64412438D02*
X177404761Y-64364819D01*
X177404761Y-64364819D02*
X177261904Y-64364819D01*
X177261904Y-64364819D02*
X177119047Y-64412438D01*
X177119047Y-64412438D02*
X177023809Y-64507676D01*
X177023809Y-64507676D02*
X176976190Y-64602914D01*
X176976190Y-64602914D02*
X176928571Y-64793390D01*
X176928571Y-64793390D02*
X176928571Y-64936247D01*
X176928571Y-64936247D02*
X176976190Y-65126723D01*
X176976190Y-65126723D02*
X177023809Y-65221961D01*
X177023809Y-65221961D02*
X177119047Y-65317200D01*
X177119047Y-65317200D02*
X177261904Y-65364819D01*
X177261904Y-65364819D02*
X177357142Y-65364819D01*
X177357142Y-65364819D02*
X177499999Y-65317200D01*
X177499999Y-65317200D02*
X177547618Y-65269580D01*
X177547618Y-65269580D02*
X177547618Y-64936247D01*
X177547618Y-64936247D02*
X177357142Y-64936247D01*
X177976190Y-65364819D02*
X177976190Y-64364819D01*
X177976190Y-64841009D02*
X178547618Y-64841009D01*
X178547618Y-65364819D02*
X178547618Y-64364819D01*
X178880952Y-64364819D02*
X179452380Y-64364819D01*
X179166666Y-65364819D02*
X179166666Y-64364819D01*
X180309523Y-65364819D02*
X179738095Y-65364819D01*
X180023809Y-65364819D02*
X180023809Y-64364819D01*
X180023809Y-64364819D02*
X179928571Y-64507676D01*
X179928571Y-64507676D02*
X179833333Y-64602914D01*
X179833333Y-64602914D02*
X179738095Y-64650533D01*
X155714285Y-65364819D02*
X155714285Y-64364819D01*
X155714285Y-64364819D02*
X156285713Y-65364819D01*
X156285713Y-65364819D02*
X156285713Y-64364819D01*
X156714285Y-65079104D02*
X157190475Y-65079104D01*
X156619047Y-65364819D02*
X156952380Y-64364819D01*
X156952380Y-64364819D02*
X157285713Y-65364819D01*
X157619047Y-65364819D02*
X157619047Y-64364819D01*
X157619047Y-64364819D02*
X158190475Y-65364819D01*
X158190475Y-65364819D02*
X158190475Y-64364819D01*
X158857142Y-64364819D02*
X159047618Y-64364819D01*
X159047618Y-64364819D02*
X159142856Y-64412438D01*
X159142856Y-64412438D02*
X159238094Y-64507676D01*
X159238094Y-64507676D02*
X159285713Y-64698152D01*
X159285713Y-64698152D02*
X159285713Y-65031485D01*
X159285713Y-65031485D02*
X159238094Y-65221961D01*
X159238094Y-65221961D02*
X159142856Y-65317200D01*
X159142856Y-65317200D02*
X159047618Y-65364819D01*
X159047618Y-65364819D02*
X158857142Y-65364819D01*
X158857142Y-65364819D02*
X158761904Y-65317200D01*
X158761904Y-65317200D02*
X158666666Y-65221961D01*
X158666666Y-65221961D02*
X158619047Y-65031485D01*
X158619047Y-65031485D02*
X158619047Y-64698152D01*
X158619047Y-64698152D02*
X158666666Y-64507676D01*
X158666666Y-64507676D02*
X158761904Y-64412438D01*
X158761904Y-64412438D02*
X158857142Y-64364819D01*
X159476190Y-65460057D02*
X160238094Y-65460057D01*
X160952380Y-65364819D02*
X160476190Y-65364819D01*
X160476190Y-65364819D02*
X160476190Y-64364819D01*
X161285714Y-64841009D02*
X161619047Y-64841009D01*
X161761904Y-65364819D02*
X161285714Y-65364819D01*
X161285714Y-65364819D02*
X161285714Y-64364819D01*
X161285714Y-64364819D02*
X161761904Y-64364819D01*
X162523809Y-64841009D02*
X162190476Y-64841009D01*
X162190476Y-65364819D02*
X162190476Y-64364819D01*
X162190476Y-64364819D02*
X162666666Y-64364819D01*
X162904762Y-64364819D02*
X163476190Y-64364819D01*
X163190476Y-65364819D02*
X163190476Y-64364819D01*
X164333333Y-65364819D02*
X163761905Y-65364819D01*
X164047619Y-65364819D02*
X164047619Y-64364819D01*
X164047619Y-64364819D02*
X163952381Y-64507676D01*
X163952381Y-64507676D02*
X163857143Y-64602914D01*
X163857143Y-64602914D02*
X163761905Y-64650533D01*
X196476190Y-98124819D02*
X196000000Y-98124819D01*
X196000000Y-98124819D02*
X196000000Y-97124819D01*
X197380952Y-98029580D02*
X197333333Y-98077200D01*
X197333333Y-98077200D02*
X197190476Y-98124819D01*
X197190476Y-98124819D02*
X197095238Y-98124819D01*
X197095238Y-98124819D02*
X196952381Y-98077200D01*
X196952381Y-98077200D02*
X196857143Y-97981961D01*
X196857143Y-97981961D02*
X196809524Y-97886723D01*
X196809524Y-97886723D02*
X196761905Y-97696247D01*
X196761905Y-97696247D02*
X196761905Y-97553390D01*
X196761905Y-97553390D02*
X196809524Y-97362914D01*
X196809524Y-97362914D02*
X196857143Y-97267676D01*
X196857143Y-97267676D02*
X196952381Y-97172438D01*
X196952381Y-97172438D02*
X197095238Y-97124819D01*
X197095238Y-97124819D02*
X197190476Y-97124819D01*
X197190476Y-97124819D02*
X197333333Y-97172438D01*
X197333333Y-97172438D02*
X197380952Y-97220057D01*
X197809524Y-98124819D02*
X197809524Y-97124819D01*
X197809524Y-97124819D02*
X198047619Y-97124819D01*
X198047619Y-97124819D02*
X198190476Y-97172438D01*
X198190476Y-97172438D02*
X198285714Y-97267676D01*
X198285714Y-97267676D02*
X198333333Y-97362914D01*
X198333333Y-97362914D02*
X198380952Y-97553390D01*
X198380952Y-97553390D02*
X198380952Y-97696247D01*
X198380952Y-97696247D02*
X198333333Y-97886723D01*
X198333333Y-97886723D02*
X198285714Y-97981961D01*
X198285714Y-97981961D02*
X198190476Y-98077200D01*
X198190476Y-98077200D02*
X198047619Y-98124819D01*
X198047619Y-98124819D02*
X197809524Y-98124819D01*
X198571429Y-98220057D02*
X199333333Y-98220057D01*
X199571429Y-98124819D02*
X199571429Y-97124819D01*
X199571429Y-97124819D02*
X199809524Y-97124819D01*
X199809524Y-97124819D02*
X199952381Y-97172438D01*
X199952381Y-97172438D02*
X200047619Y-97267676D01*
X200047619Y-97267676D02*
X200095238Y-97362914D01*
X200095238Y-97362914D02*
X200142857Y-97553390D01*
X200142857Y-97553390D02*
X200142857Y-97696247D01*
X200142857Y-97696247D02*
X200095238Y-97886723D01*
X200095238Y-97886723D02*
X200047619Y-97981961D01*
X200047619Y-97981961D02*
X199952381Y-98077200D01*
X199952381Y-98077200D02*
X199809524Y-98124819D01*
X199809524Y-98124819D02*
X199571429Y-98124819D01*
X200571429Y-98124819D02*
X200571429Y-97124819D01*
X201000000Y-98077200D02*
X201142857Y-98124819D01*
X201142857Y-98124819D02*
X201380952Y-98124819D01*
X201380952Y-98124819D02*
X201476190Y-98077200D01*
X201476190Y-98077200D02*
X201523809Y-98029580D01*
X201523809Y-98029580D02*
X201571428Y-97934342D01*
X201571428Y-97934342D02*
X201571428Y-97839104D01*
X201571428Y-97839104D02*
X201523809Y-97743866D01*
X201523809Y-97743866D02*
X201476190Y-97696247D01*
X201476190Y-97696247D02*
X201380952Y-97648628D01*
X201380952Y-97648628D02*
X201190476Y-97601009D01*
X201190476Y-97601009D02*
X201095238Y-97553390D01*
X201095238Y-97553390D02*
X201047619Y-97505771D01*
X201047619Y-97505771D02*
X201000000Y-97410533D01*
X201000000Y-97410533D02*
X201000000Y-97315295D01*
X201000000Y-97315295D02*
X201047619Y-97220057D01*
X201047619Y-97220057D02*
X201095238Y-97172438D01*
X201095238Y-97172438D02*
X201190476Y-97124819D01*
X201190476Y-97124819D02*
X201428571Y-97124819D01*
X201428571Y-97124819D02*
X201571428Y-97172438D01*
X202000000Y-98124819D02*
X202000000Y-97124819D01*
X202000000Y-97124819D02*
X202380952Y-97124819D01*
X202380952Y-97124819D02*
X202476190Y-97172438D01*
X202476190Y-97172438D02*
X202523809Y-97220057D01*
X202523809Y-97220057D02*
X202571428Y-97315295D01*
X202571428Y-97315295D02*
X202571428Y-97458152D01*
X202571428Y-97458152D02*
X202523809Y-97553390D01*
X202523809Y-97553390D02*
X202476190Y-97601009D01*
X202476190Y-97601009D02*
X202380952Y-97648628D01*
X202380952Y-97648628D02*
X202000000Y-97648628D01*
X203476190Y-98124819D02*
X203000000Y-98124819D01*
X203000000Y-98124819D02*
X203000000Y-97124819D01*
X203761905Y-97839104D02*
X204238095Y-97839104D01*
X203666667Y-98124819D02*
X204000000Y-97124819D01*
X204000000Y-97124819D02*
X204333333Y-98124819D01*
X204857143Y-97648628D02*
X204857143Y-98124819D01*
X204523810Y-97124819D02*
X204857143Y-97648628D01*
X204857143Y-97648628D02*
X205190476Y-97124819D01*
X206047619Y-98124819D02*
X205476191Y-98124819D01*
X205761905Y-98124819D02*
X205761905Y-97124819D01*
X205761905Y-97124819D02*
X205666667Y-97267676D01*
X205666667Y-97267676D02*
X205571429Y-97362914D01*
X205571429Y-97362914D02*
X205476191Y-97410533D01*
X75307319Y-128328333D02*
X76021604Y-128328333D01*
X76021604Y-128328333D02*
X76164461Y-128375952D01*
X76164461Y-128375952D02*
X76259700Y-128471190D01*
X76259700Y-128471190D02*
X76307319Y-128614047D01*
X76307319Y-128614047D02*
X76307319Y-128709285D01*
X75402557Y-127899761D02*
X75354938Y-127852142D01*
X75354938Y-127852142D02*
X75307319Y-127756904D01*
X75307319Y-127756904D02*
X75307319Y-127518809D01*
X75307319Y-127518809D02*
X75354938Y-127423571D01*
X75354938Y-127423571D02*
X75402557Y-127375952D01*
X75402557Y-127375952D02*
X75497795Y-127328333D01*
X75497795Y-127328333D02*
X75593033Y-127328333D01*
X75593033Y-127328333D02*
X75735890Y-127375952D01*
X75735890Y-127375952D02*
X76307319Y-127947380D01*
X76307319Y-127947380D02*
X76307319Y-127328333D01*
X74807319Y-33828333D02*
X75521604Y-33828333D01*
X75521604Y-33828333D02*
X75664461Y-33875952D01*
X75664461Y-33875952D02*
X75759700Y-33971190D01*
X75759700Y-33971190D02*
X75807319Y-34114047D01*
X75807319Y-34114047D02*
X75807319Y-34209285D01*
X75807319Y-32828333D02*
X75807319Y-33399761D01*
X75807319Y-33114047D02*
X74807319Y-33114047D01*
X74807319Y-33114047D02*
X74950176Y-33209285D01*
X74950176Y-33209285D02*
X75045414Y-33304523D01*
X75045414Y-33304523D02*
X75093033Y-33399761D01*
X95341905Y-32924819D02*
X95341905Y-31924819D01*
X95341905Y-31924819D02*
X95580000Y-31924819D01*
X95580000Y-31924819D02*
X95722857Y-31972438D01*
X95722857Y-31972438D02*
X95818095Y-32067676D01*
X95818095Y-32067676D02*
X95865714Y-32162914D01*
X95865714Y-32162914D02*
X95913333Y-32353390D01*
X95913333Y-32353390D02*
X95913333Y-32496247D01*
X95913333Y-32496247D02*
X95865714Y-32686723D01*
X95865714Y-32686723D02*
X95818095Y-32781961D01*
X95818095Y-32781961D02*
X95722857Y-32877200D01*
X95722857Y-32877200D02*
X95580000Y-32924819D01*
X95580000Y-32924819D02*
X95341905Y-32924819D01*
X96770476Y-31924819D02*
X96580000Y-31924819D01*
X96580000Y-31924819D02*
X96484762Y-31972438D01*
X96484762Y-31972438D02*
X96437143Y-32020057D01*
X96437143Y-32020057D02*
X96341905Y-32162914D01*
X96341905Y-32162914D02*
X96294286Y-32353390D01*
X96294286Y-32353390D02*
X96294286Y-32734342D01*
X96294286Y-32734342D02*
X96341905Y-32829580D01*
X96341905Y-32829580D02*
X96389524Y-32877200D01*
X96389524Y-32877200D02*
X96484762Y-32924819D01*
X96484762Y-32924819D02*
X96675238Y-32924819D01*
X96675238Y-32924819D02*
X96770476Y-32877200D01*
X96770476Y-32877200D02*
X96818095Y-32829580D01*
X96818095Y-32829580D02*
X96865714Y-32734342D01*
X96865714Y-32734342D02*
X96865714Y-32496247D01*
X96865714Y-32496247D02*
X96818095Y-32401009D01*
X96818095Y-32401009D02*
X96770476Y-32353390D01*
X96770476Y-32353390D02*
X96675238Y-32305771D01*
X96675238Y-32305771D02*
X96484762Y-32305771D01*
X96484762Y-32305771D02*
X96389524Y-32353390D01*
X96389524Y-32353390D02*
X96341905Y-32401009D01*
X96341905Y-32401009D02*
X96294286Y-32496247D01*
X100898095Y-32554819D02*
X100898095Y-31554819D01*
X101469523Y-32554819D02*
X101040952Y-31983390D01*
X101469523Y-31554819D02*
X100898095Y-32126247D01*
X95341905Y-46924819D02*
X95341905Y-45924819D01*
X95341905Y-45924819D02*
X95580000Y-45924819D01*
X95580000Y-45924819D02*
X95722857Y-45972438D01*
X95722857Y-45972438D02*
X95818095Y-46067676D01*
X95818095Y-46067676D02*
X95865714Y-46162914D01*
X95865714Y-46162914D02*
X95913333Y-46353390D01*
X95913333Y-46353390D02*
X95913333Y-46496247D01*
X95913333Y-46496247D02*
X95865714Y-46686723D01*
X95865714Y-46686723D02*
X95818095Y-46781961D01*
X95818095Y-46781961D02*
X95722857Y-46877200D01*
X95722857Y-46877200D02*
X95580000Y-46924819D01*
X95580000Y-46924819D02*
X95341905Y-46924819D01*
X96818095Y-45924819D02*
X96341905Y-45924819D01*
X96341905Y-45924819D02*
X96294286Y-46401009D01*
X96294286Y-46401009D02*
X96341905Y-46353390D01*
X96341905Y-46353390D02*
X96437143Y-46305771D01*
X96437143Y-46305771D02*
X96675238Y-46305771D01*
X96675238Y-46305771D02*
X96770476Y-46353390D01*
X96770476Y-46353390D02*
X96818095Y-46401009D01*
X96818095Y-46401009D02*
X96865714Y-46496247D01*
X96865714Y-46496247D02*
X96865714Y-46734342D01*
X96865714Y-46734342D02*
X96818095Y-46829580D01*
X96818095Y-46829580D02*
X96770476Y-46877200D01*
X96770476Y-46877200D02*
X96675238Y-46924819D01*
X96675238Y-46924819D02*
X96437143Y-46924819D01*
X96437143Y-46924819D02*
X96341905Y-46877200D01*
X96341905Y-46877200D02*
X96294286Y-46829580D01*
X100898095Y-46554819D02*
X100898095Y-45554819D01*
X101469523Y-46554819D02*
X101040952Y-45983390D01*
X101469523Y-45554819D02*
X100898095Y-46126247D01*
X95341905Y-60924819D02*
X95341905Y-59924819D01*
X95341905Y-59924819D02*
X95580000Y-59924819D01*
X95580000Y-59924819D02*
X95722857Y-59972438D01*
X95722857Y-59972438D02*
X95818095Y-60067676D01*
X95818095Y-60067676D02*
X95865714Y-60162914D01*
X95865714Y-60162914D02*
X95913333Y-60353390D01*
X95913333Y-60353390D02*
X95913333Y-60496247D01*
X95913333Y-60496247D02*
X95865714Y-60686723D01*
X95865714Y-60686723D02*
X95818095Y-60781961D01*
X95818095Y-60781961D02*
X95722857Y-60877200D01*
X95722857Y-60877200D02*
X95580000Y-60924819D01*
X95580000Y-60924819D02*
X95341905Y-60924819D01*
X96770476Y-60258152D02*
X96770476Y-60924819D01*
X96532381Y-59877200D02*
X96294286Y-60591485D01*
X96294286Y-60591485D02*
X96913333Y-60591485D01*
X100898095Y-60554819D02*
X100898095Y-59554819D01*
X101469523Y-60554819D02*
X101040952Y-59983390D01*
X101469523Y-59554819D02*
X100898095Y-60126247D01*
X94341905Y-72424819D02*
X94341905Y-71424819D01*
X94341905Y-71424819D02*
X94580000Y-71424819D01*
X94580000Y-71424819D02*
X94722857Y-71472438D01*
X94722857Y-71472438D02*
X94818095Y-71567676D01*
X94818095Y-71567676D02*
X94865714Y-71662914D01*
X94865714Y-71662914D02*
X94913333Y-71853390D01*
X94913333Y-71853390D02*
X94913333Y-71996247D01*
X94913333Y-71996247D02*
X94865714Y-72186723D01*
X94865714Y-72186723D02*
X94818095Y-72281961D01*
X94818095Y-72281961D02*
X94722857Y-72377200D01*
X94722857Y-72377200D02*
X94580000Y-72424819D01*
X94580000Y-72424819D02*
X94341905Y-72424819D01*
X95246667Y-71424819D02*
X95865714Y-71424819D01*
X95865714Y-71424819D02*
X95532381Y-71805771D01*
X95532381Y-71805771D02*
X95675238Y-71805771D01*
X95675238Y-71805771D02*
X95770476Y-71853390D01*
X95770476Y-71853390D02*
X95818095Y-71901009D01*
X95818095Y-71901009D02*
X95865714Y-71996247D01*
X95865714Y-71996247D02*
X95865714Y-72234342D01*
X95865714Y-72234342D02*
X95818095Y-72329580D01*
X95818095Y-72329580D02*
X95770476Y-72377200D01*
X95770476Y-72377200D02*
X95675238Y-72424819D01*
X95675238Y-72424819D02*
X95389524Y-72424819D01*
X95389524Y-72424819D02*
X95294286Y-72377200D01*
X95294286Y-72377200D02*
X95246667Y-72329580D01*
X99898095Y-72054819D02*
X99898095Y-71054819D01*
X100469523Y-72054819D02*
X100040952Y-71483390D01*
X100469523Y-71054819D02*
X99898095Y-71626247D01*
X94921905Y-86424819D02*
X94921905Y-85424819D01*
X94921905Y-85424819D02*
X95160000Y-85424819D01*
X95160000Y-85424819D02*
X95302857Y-85472438D01*
X95302857Y-85472438D02*
X95398095Y-85567676D01*
X95398095Y-85567676D02*
X95445714Y-85662914D01*
X95445714Y-85662914D02*
X95493333Y-85853390D01*
X95493333Y-85853390D02*
X95493333Y-85996247D01*
X95493333Y-85996247D02*
X95445714Y-86186723D01*
X95445714Y-86186723D02*
X95398095Y-86281961D01*
X95398095Y-86281961D02*
X95302857Y-86377200D01*
X95302857Y-86377200D02*
X95160000Y-86424819D01*
X95160000Y-86424819D02*
X94921905Y-86424819D01*
X95874286Y-85520057D02*
X95921905Y-85472438D01*
X95921905Y-85472438D02*
X96017143Y-85424819D01*
X96017143Y-85424819D02*
X96255238Y-85424819D01*
X96255238Y-85424819D02*
X96350476Y-85472438D01*
X96350476Y-85472438D02*
X96398095Y-85520057D01*
X96398095Y-85520057D02*
X96445714Y-85615295D01*
X96445714Y-85615295D02*
X96445714Y-85710533D01*
X96445714Y-85710533D02*
X96398095Y-85853390D01*
X96398095Y-85853390D02*
X95826667Y-86424819D01*
X95826667Y-86424819D02*
X96445714Y-86424819D01*
X100478095Y-86054819D02*
X100478095Y-85054819D01*
X101049523Y-86054819D02*
X100620952Y-85483390D01*
X101049523Y-85054819D02*
X100478095Y-85626247D01*
X94921905Y-101924819D02*
X94921905Y-100924819D01*
X94921905Y-100924819D02*
X95160000Y-100924819D01*
X95160000Y-100924819D02*
X95302857Y-100972438D01*
X95302857Y-100972438D02*
X95398095Y-101067676D01*
X95398095Y-101067676D02*
X95445714Y-101162914D01*
X95445714Y-101162914D02*
X95493333Y-101353390D01*
X95493333Y-101353390D02*
X95493333Y-101496247D01*
X95493333Y-101496247D02*
X95445714Y-101686723D01*
X95445714Y-101686723D02*
X95398095Y-101781961D01*
X95398095Y-101781961D02*
X95302857Y-101877200D01*
X95302857Y-101877200D02*
X95160000Y-101924819D01*
X95160000Y-101924819D02*
X94921905Y-101924819D01*
X96445714Y-101924819D02*
X95874286Y-101924819D01*
X96160000Y-101924819D02*
X96160000Y-100924819D01*
X96160000Y-100924819D02*
X96064762Y-101067676D01*
X96064762Y-101067676D02*
X95969524Y-101162914D01*
X95969524Y-101162914D02*
X95874286Y-101210533D01*
X100478095Y-101554819D02*
X100478095Y-100554819D01*
X101049523Y-101554819D02*
X100620952Y-100983390D01*
X101049523Y-100554819D02*
X100478095Y-101126247D01*
D11*
%TO.C,JOYSTICK1*%
X193670000Y-42270000D02*
X193670000Y-32050000D01*
X193670000Y-44870000D02*
X193670000Y-43540000D01*
X195000000Y-44870000D02*
X193670000Y-44870000D01*
X196330000Y-32050000D02*
X193670000Y-32050000D01*
X196330000Y-42270000D02*
X193670000Y-42270000D01*
X196330000Y-42270000D02*
X196330000Y-32050000D01*
%TO.C,Q3*%
X118140000Y-63150000D02*
X118140000Y-52930000D01*
X122760000Y-63150000D02*
X118140000Y-63150000D01*
X122760000Y-59890000D02*
X121380000Y-59890000D01*
X122760000Y-56190000D02*
X121380000Y-56190000D01*
X118140000Y-52930000D02*
X122760000Y-52930000D01*
X121380000Y-52930000D02*
X121380000Y-63150000D01*
X122760000Y-52930000D02*
X122760000Y-63150000D01*
%TO.C,R6*%
X144960000Y-81370000D02*
X144960000Y-81040000D01*
X144960000Y-78630000D02*
X144960000Y-78960000D01*
X138420000Y-81370000D02*
X144960000Y-81370000D01*
X138420000Y-81040000D02*
X138420000Y-81370000D01*
X138420000Y-78960000D02*
X138420000Y-78630000D01*
X138420000Y-78630000D02*
X144960000Y-78630000D01*
%TO.C,R5*%
X144960000Y-71370000D02*
X144960000Y-71040000D01*
X144960000Y-68630000D02*
X144960000Y-68960000D01*
X138420000Y-71370000D02*
X144960000Y-71370000D01*
X138420000Y-71040000D02*
X138420000Y-71370000D01*
X138420000Y-68960000D02*
X138420000Y-68630000D01*
X138420000Y-68630000D02*
X144960000Y-68630000D01*
%TO.C,Q1*%
X118140000Y-36150000D02*
X118140000Y-25930000D01*
X122760000Y-36150000D02*
X118140000Y-36150000D01*
X122760000Y-32890000D02*
X121380000Y-32890000D01*
X122760000Y-29190000D02*
X121380000Y-29190000D01*
X118140000Y-25930000D02*
X122760000Y-25930000D01*
X121380000Y-25930000D02*
X121380000Y-36150000D01*
X122760000Y-25930000D02*
X122760000Y-36150000D01*
%TO.C,Q2*%
X118140000Y-49650000D02*
X118140000Y-39430000D01*
X122760000Y-49650000D02*
X118140000Y-49650000D01*
X122760000Y-46390000D02*
X121380000Y-46390000D01*
X122760000Y-42690000D02*
X121380000Y-42690000D01*
X118140000Y-39430000D02*
X122760000Y-39430000D01*
X121380000Y-39430000D02*
X121380000Y-49650000D01*
X122760000Y-39430000D02*
X122760000Y-49650000D01*
%TO.C,SOLENOID_CONNECTOR1*%
X66670000Y-75650000D02*
X66670000Y-98570000D01*
X66670000Y-75650000D02*
X69330000Y-75650000D01*
X66670000Y-98570000D02*
X69330000Y-98570000D01*
X68000000Y-73050000D02*
X69330000Y-73050000D01*
X69330000Y-73050000D02*
X69330000Y-74380000D01*
X69330000Y-75650000D02*
X69330000Y-98570000D01*
%TO.C,R8*%
X208370000Y-47730000D02*
X208370000Y-54270000D01*
X208040000Y-47730000D02*
X208370000Y-47730000D01*
X205960000Y-47730000D02*
X205630000Y-47730000D01*
X205630000Y-47730000D02*
X205630000Y-54270000D01*
X208370000Y-54270000D02*
X208040000Y-54270000D01*
X205630000Y-54270000D02*
X205960000Y-54270000D01*
%TO.C,R7*%
X171580000Y-139270000D02*
X171580000Y-132730000D01*
X171910000Y-139270000D02*
X171580000Y-139270000D01*
X173990000Y-139270000D02*
X174320000Y-139270000D01*
X174320000Y-139270000D02*
X174320000Y-132730000D01*
X171580000Y-132730000D02*
X171910000Y-132730000D01*
X174320000Y-132730000D02*
X173990000Y-132730000D01*
%TO.C,R4*%
X138420000Y-58130000D02*
X144960000Y-58130000D01*
X138420000Y-58460000D02*
X138420000Y-58130000D01*
X138420000Y-60540000D02*
X138420000Y-60870000D01*
X138420000Y-60870000D02*
X144960000Y-60870000D01*
X144960000Y-58130000D02*
X144960000Y-58460000D01*
X144960000Y-60870000D02*
X144960000Y-60540000D01*
%TO.C,R3*%
X138420000Y-48630000D02*
X144960000Y-48630000D01*
X138420000Y-48960000D02*
X138420000Y-48630000D01*
X138420000Y-51040000D02*
X138420000Y-51370000D01*
X138420000Y-51370000D02*
X144960000Y-51370000D01*
X144960000Y-48630000D02*
X144960000Y-48960000D01*
X144960000Y-51370000D02*
X144960000Y-51040000D01*
%TO.C,R2*%
X138420000Y-39130000D02*
X144960000Y-39130000D01*
X138420000Y-39460000D02*
X138420000Y-39130000D01*
X138420000Y-41540000D02*
X138420000Y-41870000D01*
X138420000Y-41870000D02*
X144960000Y-41870000D01*
X144960000Y-39130000D02*
X144960000Y-39460000D01*
X144960000Y-41870000D02*
X144960000Y-41540000D01*
%TO.C,R1*%
X138730000Y-29130000D02*
X145270000Y-29130000D01*
X138730000Y-29460000D02*
X138730000Y-29130000D01*
X138730000Y-31540000D02*
X138730000Y-31870000D01*
X138730000Y-31870000D02*
X145270000Y-31870000D01*
X145270000Y-29130000D02*
X145270000Y-29460000D01*
X145270000Y-31870000D02*
X145270000Y-31540000D01*
%TO.C,Q6*%
X122760000Y-94930000D02*
X122760000Y-105150000D01*
X121380000Y-94930000D02*
X121380000Y-105150000D01*
X118140000Y-94930000D02*
X122760000Y-94930000D01*
X122760000Y-98190000D02*
X121380000Y-98190000D01*
X122760000Y-101890000D02*
X121380000Y-101890000D01*
X122760000Y-105150000D02*
X118140000Y-105150000D01*
X118140000Y-105150000D02*
X118140000Y-94930000D01*
%TO.C,Q5*%
X122760000Y-80430000D02*
X122760000Y-90650000D01*
X121380000Y-80430000D02*
X121380000Y-90650000D01*
X118140000Y-80430000D02*
X122760000Y-80430000D01*
X122760000Y-83690000D02*
X121380000Y-83690000D01*
X122760000Y-87390000D02*
X121380000Y-87390000D01*
X122760000Y-90650000D02*
X118140000Y-90650000D01*
X118140000Y-90650000D02*
X118140000Y-80430000D01*
%TO.C,Q4*%
X122760000Y-66930000D02*
X122760000Y-77150000D01*
X121380000Y-66930000D02*
X121380000Y-77150000D01*
X118140000Y-66930000D02*
X122760000Y-66930000D01*
X122760000Y-70190000D02*
X121380000Y-70190000D01*
X122760000Y-73890000D02*
X121380000Y-73890000D01*
X122760000Y-77150000D02*
X118140000Y-77150000D01*
X118140000Y-77150000D02*
X118140000Y-66930000D01*
%TO.C,PS2*%
X156442500Y-154842500D02*
X157642500Y-154842500D01*
X156692500Y-154592500D02*
X168462500Y-154592500D01*
X156442500Y-153642500D02*
X156442500Y-154842500D01*
X156692500Y-148252500D02*
X156692500Y-154592500D01*
X156692500Y-148252500D02*
X168462500Y-148252500D01*
X168462500Y-148252500D02*
X168462500Y-154592500D01*
%TO.C,PS1*%
X86680000Y-114397500D02*
X86680000Y-141837500D01*
X86680000Y-114397500D02*
X139320000Y-114397500D01*
X86680000Y-141837500D02*
X139320000Y-141837500D01*
X91200000Y-114067500D02*
X89200000Y-114067500D01*
X139320000Y-114397500D02*
X139320000Y-141837500D01*
%TO.C,NANO_RIGHT1*%
X174170000Y-68950000D02*
X174170000Y-104570000D01*
X174170000Y-68950000D02*
X176830000Y-68950000D01*
X174170000Y-104570000D02*
X176830000Y-104570000D01*
X175500000Y-66350000D02*
X176830000Y-66350000D01*
X176830000Y-66350000D02*
X176830000Y-67680000D01*
X176830000Y-68950000D02*
X176830000Y-104570000D01*
%TO.C,NANO_LEFT1*%
X158670000Y-68950000D02*
X158670000Y-104570000D01*
X158670000Y-68950000D02*
X161330000Y-68950000D01*
X158670000Y-104570000D02*
X161330000Y-104570000D01*
X160000000Y-66350000D02*
X161330000Y-66350000D01*
X161330000Y-66350000D02*
X161330000Y-67680000D01*
X161330000Y-68950000D02*
X161330000Y-104570000D01*
%TO.C,LCD_DISPLAY1*%
X202330000Y-93630000D02*
X202330000Y-65630000D01*
X202330000Y-93630000D02*
X199670000Y-93630000D01*
X202330000Y-65630000D02*
X199670000Y-65630000D01*
X201000000Y-96230000D02*
X199670000Y-96230000D01*
X199670000Y-96230000D02*
X199670000Y-94900000D01*
X199670000Y-93630000D02*
X199670000Y-65630000D01*
%TO.C,J2*%
X74852500Y-122795000D02*
X74852500Y-133195000D01*
X72732500Y-122795000D02*
X72732500Y-133195000D01*
X66532500Y-122795000D02*
X66532500Y-133195000D01*
X64032500Y-122795000D02*
X64032500Y-133195000D01*
X63412500Y-122795000D02*
X74852500Y-122795000D01*
X63412500Y-125155000D02*
X63412500Y-122795000D01*
X74852500Y-133195000D02*
X63412500Y-133195000D01*
X63412500Y-133195000D02*
X63412500Y-125755000D01*
X63412500Y-125455000D02*
X62802500Y-125895000D01*
X62802500Y-125015000D01*
X63412500Y-125455000D01*
G36*
X63412500Y-125455000D02*
G01*
X62802500Y-125895000D01*
X62802500Y-125015000D01*
X63412500Y-125455000D01*
G37*
%TO.C,J1*%
X74352500Y-28295000D02*
X74352500Y-38695000D01*
X72232500Y-28295000D02*
X72232500Y-38695000D01*
X66032500Y-28295000D02*
X66032500Y-38695000D01*
X63532500Y-28295000D02*
X63532500Y-38695000D01*
X62912500Y-28295000D02*
X74352500Y-28295000D01*
X62912500Y-30655000D02*
X62912500Y-28295000D01*
X74352500Y-38695000D02*
X62912500Y-38695000D01*
X62912500Y-38695000D02*
X62912500Y-31255000D01*
X62912500Y-30955000D02*
X62302500Y-31395000D01*
X62302500Y-30515000D01*
X62912500Y-30955000D01*
G36*
X62912500Y-30955000D02*
G01*
X62302500Y-31395000D01*
X62302500Y-30515000D01*
X62912500Y-30955000D01*
G37*
%TO.C,D6*%
X99820000Y-30000000D02*
X98800000Y-30000000D01*
X98020000Y-31470000D02*
X98020000Y-28530000D01*
X97900000Y-31470000D02*
X97900000Y-28530000D01*
X97780000Y-31470000D02*
X97780000Y-28530000D01*
X92340000Y-30000000D02*
X93360000Y-30000000D01*
X98800000Y-31470000D02*
X93360000Y-31470000D01*
X93360000Y-28530000D01*
X98800000Y-28530000D01*
X98800000Y-31470000D01*
%TO.C,D5*%
X99820000Y-44000000D02*
X98800000Y-44000000D01*
X98020000Y-45470000D02*
X98020000Y-42530000D01*
X97900000Y-45470000D02*
X97900000Y-42530000D01*
X97780000Y-45470000D02*
X97780000Y-42530000D01*
X92340000Y-44000000D02*
X93360000Y-44000000D01*
X98800000Y-45470000D02*
X93360000Y-45470000D01*
X93360000Y-42530000D01*
X98800000Y-42530000D01*
X98800000Y-45470000D01*
%TO.C,D4*%
X99820000Y-58000000D02*
X98800000Y-58000000D01*
X98020000Y-59470000D02*
X98020000Y-56530000D01*
X97900000Y-59470000D02*
X97900000Y-56530000D01*
X97780000Y-59470000D02*
X97780000Y-56530000D01*
X92340000Y-58000000D02*
X93360000Y-58000000D01*
X98800000Y-59470000D02*
X93360000Y-59470000D01*
X93360000Y-56530000D01*
X98800000Y-56530000D01*
X98800000Y-59470000D01*
%TO.C,D3*%
X98820000Y-69500000D02*
X97800000Y-69500000D01*
X97020000Y-70970000D02*
X97020000Y-68030000D01*
X96900000Y-70970000D02*
X96900000Y-68030000D01*
X96780000Y-70970000D02*
X96780000Y-68030000D01*
X91340000Y-69500000D02*
X92360000Y-69500000D01*
X97800000Y-70970000D02*
X92360000Y-70970000D01*
X92360000Y-68030000D01*
X97800000Y-68030000D01*
X97800000Y-70970000D01*
%TO.C,D2*%
X99400000Y-83500000D02*
X98380000Y-83500000D01*
X97600000Y-84970000D02*
X97600000Y-82030000D01*
X97480000Y-84970000D02*
X97480000Y-82030000D01*
X97360000Y-84970000D02*
X97360000Y-82030000D01*
X91920000Y-83500000D02*
X92940000Y-83500000D01*
X98380000Y-84970000D02*
X92940000Y-84970000D01*
X92940000Y-82030000D01*
X98380000Y-82030000D01*
X98380000Y-84970000D01*
%TO.C,D1*%
X99400000Y-99000000D02*
X98380000Y-99000000D01*
X97600000Y-100470000D02*
X97600000Y-97530000D01*
X97480000Y-100470000D02*
X97480000Y-97530000D01*
X97360000Y-100470000D02*
X97360000Y-97530000D01*
X91920000Y-99000000D02*
X92940000Y-99000000D01*
X98380000Y-100470000D02*
X92940000Y-100470000D01*
X92940000Y-97530000D01*
X98380000Y-97530000D01*
X98380000Y-100470000D01*
%TD*%
M02*
